<?xml version="1.0" encoding="UTF-8" standalone="no"?>
<svg
   width="120"
   height="48"
   viewBox="0 0 120 48.000008"
   fill="none"
   version="1.1"
   id="svg12"
   sodipodi:docname="databricks.svg"
   inkscape:version="1.3.2 (091e20e, 2023-11-25)"
   xmlns:inkscape="http://www.inkscape.org/namespaces/inkscape"
   xmlns:sodipodi="http://sodipodi.sourceforge.net/DTD/sodipodi-0.dtd"
   xmlns="http://www.w3.org/2000/svg"
   xmlns:svg="http://www.w3.org/2000/svg">
  <sodipodi:namedview
     id="namedview12"
     pagecolor="#ffffff"
     bordercolor="#000000"
     borderopacity="0.25"
     inkscape:showpageshadow="2"
     inkscape:pageopacity="0.0"
     inkscape:pagecheckerboard="0"
     inkscape:deskcolor="#d1d1d1"
     showgrid="false"
     inkscape:zoom="4.2374668"
     inkscape:cx="94.396019"
     inkscape:cy="38.112393"
     inkscape:window-width="1512"
     inkscape:window-height="830"
     inkscape:window-x="0"
     inkscape:window-y="38"
     inkscape:window-maximized="1"
     inkscape:current-layer="svg12" />
  <g
     clip-path="url(#clip0_3567_2918)"
     id="g12"
     transform="matrix(1.206995,0,0,1.206995,-0.06361782,-0.66753704)">
    <path
       d="M 14.2149,18.6335 7.76252,22.2661 0.853303,18.3849 0.520996,18.5645 v 2.8177 l 7.241524,4.0607 6.45238,-3.6188 v 1.4918 L 7.76252,26.9484 0.853303,23.0672 0.520996,23.2468 v 0.4834 L 7.76252,27.7909 14.9902,23.7302 V 20.9125 L 14.6579,20.733 7.76252,24.6003 1.29638,20.9816 v -1.4917 l 6.46614,3.6187 7.22768,-4.0607 v -2.7762 l -0.36,-0.2072 -6.86768,3.8535 -6.13384,-3.4253 6.13384,-3.4392 5.03998,2.8314 0.4431,-0.2486 V 15.291 L 7.76252,12.2109 0.520996,16.2717 v 0.442 l 7.241524,4.0607 6.45238,-3.6326 z"
       fill="#8a8a8a"
       id="path1" />
    <path
       d="M 28.5175,25.4872 V 13.084 h -1.9107 v 4.6408 c 0,0.0691 -0.0416,0.1243 -0.1108,0.152 -0.0692,0.0276 -0.1384,0 -0.18,-0.0415 -0.6508,-0.7596 -1.6615,-1.1878 -2.7692,-1.1878 -2.3677,0 -4.2231,1.9889 -4.2231,4.5303 0,1.2431 0.4292,2.3895 1.2185,3.232 0.7892,0.8426 1.8554,1.2984 3.0046,1.2984 1.0939,0 2.1046,-0.4558 2.7692,-1.2431 0.0416,-0.0553 0.1246,-0.069 0.18,-0.0553 0.0692,0.0277 0.1108,0.0829 0.1108,0.152 v 0.9254 z m -4.5553,-1.5055 c -1.5231,0 -2.7139,-1.2293 -2.7139,-2.8039 0,-1.5745 1.1908,-2.8038 2.7139,-2.8038 1.523,0 2.7138,1.2293 2.7138,2.8038 0,1.5746 -1.1908,2.8039 -2.7138,2.8039 z"
       fill="#8a8a8a"
       id="path2" />
    <path
       d="m 38.7361,25.4883 v -8.6325 h -1.8969 v 0.8701 c 0,0.0691 -0.0416,0.1243 -0.1108,0.1519 -0.0692,0.0277 -0.1384,0 -0.18,-0.0552 -0.6369,-0.7597 -1.6338,-1.1878 -2.7692,-1.1878 -2.3677,0 -4.223,1.9889 -4.223,4.5303 0,2.5414 1.8553,4.5303 4.223,4.5303 1.0939,0 2.1046,-0.4558 2.7692,-1.2568 0.0416,-0.0552 0.1246,-0.0691 0.18,-0.0552 0.0692,0.0275 0.1108,0.0828 0.1108,0.1519 v 0.9391 h 1.8969 z m -4.5277,-1.5055 c -1.523,0 -2.7138,-1.2293 -2.7138,-2.8039 0,-1.5745 1.1908,-2.8038 2.7138,-2.8038 1.5231,0 2.7139,1.2293 2.7139,2.8038 0,1.5746 -1.1908,2.8039 -2.7139,2.8039 z"
       fill="#8a8a8a"
       id="path3" />
    <path
       d="m 54.9773,25.4883 v -8.6325 h -1.8969 v 0.8701 c 0,0.0691 -0.0415,0.1243 -0.1108,0.1519 -0.0692,0.0277 -0.1384,0 -0.18,-0.0552 -0.6368,-0.7597 -1.6338,-1.1878 -2.7692,-1.1878 -2.3815,0 -4.223,1.9889 -4.223,4.5441 0,2.5553 1.8553,4.5304 4.223,4.5304 1.0939,0 2.1046,-0.4558 2.7692,-1.2569 0.0416,-0.0553 0.1246,-0.069 0.18,-0.0553 0.0693,0.0277 0.1108,0.0829 0.1108,0.152 v 0.9392 z m -4.5277,-1.5055 c -1.523,0 -2.7138,-1.2293 -2.7138,-2.8039 0,-1.5745 1.1908,-2.8038 2.7138,-2.8038 1.5231,0 2.7139,1.2293 2.7139,2.8038 0,1.5746 -1.1908,2.8039 -2.7139,2.8039 z"
       fill="#8a8a8a"
       id="path4" />
    <path
       d="m 58.4527,24.4651 c 0.0138,0 0.0415,-0.0138 0.0554,-0.0138 0.0415,0 0.0969,0.0276 0.1246,0.0553 0.6508,0.7596 1.6615,1.1878 2.7692,1.1878 2.3677,0 4.2231,-1.9889 4.2231,-4.5304 0,-1.2431 -0.4292,-2.3895 -1.2185,-3.232 -0.7892,-0.8425 -1.8554,-1.2983 -3.0046,-1.2983 -1.0938,0 -2.1046,0.4558 -2.7692,1.2431 -0.0416,0.0552 -0.1108,0.069 -0.18,0.0552 -0.0692,-0.0276 -0.1108,-0.0829 -0.1108,-0.1519 V 13.084 h -1.9107 v 12.4032 h 1.9107 v -0.8701 c 0,-0.0691 0.0416,-0.1244 0.1108,-0.152 z m -0.1939,-3.2873 c 0,-1.5745 1.1908,-2.8038 2.7139,-2.8038 1.523,0 2.7138,1.2293 2.7138,2.8038 0,1.5746 -1.1908,2.8039 -2.7138,2.8039 -1.5231,0 -2.7139,-1.2431 -2.7139,-2.8039 z"
       fill="#8a8a8a"
       id="path5" />
    <path
       d="m 71.1499,18.6252 c 0.1799,0 0.3461,0.0138 0.4569,0.0415 v -1.9613 c -0.0693,-0.0139 -0.1938,-0.0277 -0.3185,-0.0277 -0.9969,0 -1.9108,0.5111 -2.3953,1.326 -0.0416,0.0691 -0.1108,0.0967 -0.1801,0.0691 -0.0692,-0.0139 -0.1246,-0.0829 -0.1246,-0.152 v -1.0635 h -1.8969 v 8.6464 h 1.9107 v -3.8122 c 0,-1.8922 0.9693,-3.0663 2.5478,-3.0663 z"
       fill="#8a8a8a"
       id="path6" />
    <path
       d="m 74.749,16.8574 h -1.9385 v 8.6463 h 1.9385 z"
       fill="#8a8a8a"
       id="path7" />
    <path
       d="m 73.7516,13.0996 c -0.6507,0 -1.1769,0.5249 -1.1769,1.174 0,0.6492 0.5262,1.1741 1.1769,1.1741 0.6508,0 1.1769,-0.5249 1.1769,-1.1741 0,-0.6491 -0.5261,-1.174 -1.1769,-1.174 z"
       fill="#8a8a8a"
       id="path8" />
    <path
       d="m 80.4267,16.6348 c -2.6584,0 -4.5834,1.906 -4.5834,4.5441 0,1.2845 0.4575,2.4309 1.2738,3.2597 0.8313,0.8287 1.9938,1.2845 3.2954,1.2845 1.0802,0 1.9108,-0.2072 3.4897,-1.3674 l -1.0937,-1.1464 c -0.776,0.511 -1.4959,0.7597 -2.2017,0.7597 -1.6065,0 -2.8109,-1.2017 -2.8109,-2.7901 0,-1.5883 1.2044,-2.79 2.8109,-2.79 0.7611,0 1.4675,0.2486 2.174,0.7597 l 1.2178,-1.1464 C 82.573,16.7867 81.2849,16.6348 80.4267,16.6348 Z"
       fill="#8a8a8a"
       id="path9" />
    <path
       d="m 87.2661,21.6907 c 0.0277,-0.0277 0.0696,-0.0414 0.1114,-0.0414 h 0.0135 c 0.0419,0 0.083,0.0276 0.1248,0.0552 l 3.0599,3.7845 h 2.3541 L 88.9699,20.71 c -0.0561,-0.0691 -0.0561,-0.1657 0.0134,-0.221 l 3.6415,-3.6325 h -2.3399 l -3.1429,3.1492 c -0.0418,0.0414 -0.1106,0.0552 -0.1801,0.0414 -0.0553,-0.0277 -0.0972,-0.0829 -0.0972,-0.1519 v -6.7956 h -1.9243 v 12.4032 h 1.9108 v -3.3701 c 0,-0.0414 0.0135,-0.0967 0.0554,-0.1244 z"
       fill="#8a8a8a"
       id="path10" />
    <path
       d="m 96.0436,25.7074 c 1.5647,0 3.1571,-0.953 3.1571,-2.7623 0,-1.1879 -0.7476,-2.0028 -2.2704,-2.5 l -1.0392,-0.3453 c -0.7057,-0.2348 -1.0383,-0.5663 -1.0383,-1.0221 0,-0.5249 0.4709,-0.884 1.1355,-0.884 0.637,0 1.2044,0.4144 1.5647,1.1326 l 1.537,-0.8287 c -0.5674,-1.1602 -1.7448,-1.8785 -3.1017,-1.8785 -1.7172,0 -2.9626,1.105 -2.9626,2.6105 0,1.2016 0.7199,2.0028 2.2008,2.4724 l 1.0668,0.3453 c 0.7476,0.2348 1.0661,0.5386 1.0661,1.0221 0,0.732 -0.6788,0.9944 -1.2604,0.9944 -0.7753,0 -1.4675,-0.4972 -1.7995,-1.3121 l -1.5646,0.8287 c 0.5121,1.3122 1.7717,2.127 3.3087,2.127 z"
       fill="#8a8a8a"
       id="path11" />
    <path
       d="m 44.0529,25.6259 c 0.6092,0 1.1492,-0.0553 1.4538,-0.0968 v -1.6574 c -0.2492,0.0276 -0.6923,0.0552 -0.9553,0.0552 -0.7754,0 -1.3708,-0.1381 -1.3708,-1.8094 v -3.5496 c 0,-0.0967 0.0692,-0.1658 0.1661,-0.1658 h 1.8693 v -1.5607 h -1.8693 c -0.0969,0 -0.1661,-0.0691 -0.1661,-0.1658 v -2.4861 h -1.9108 v 2.4999 c 0,0.0967 -0.0692,0.1658 -0.1661,0.1658 h -1.3293 v 1.5607 h 1.3293 c 0.0969,0 0.1661,0.0691 0.1661,0.1658 v 4.0193 c 0,3.0249 2.0215,3.0249 2.7831,3.0249 z"
       fill="#8a8a8a"
       id="path12" />
  </g>
  <defs
     id="defs12">
    <clipPath
       id="clip0_3567_2918">
      <rect
         width="98.679497"
         height="40"
         fill="#ffffff"
         transform="translate(0.520996)"
         id="rect12"
         x="0"
         y="0" />
    </clipPath>
  </defs>
</svg>
