<svg width="63" height="40" viewBox="0 0 63 40" fill="none" xmlns="http://www.w3.org/2000/svg">
<g clip-path="url(#clip0_3558_4866)">
<path d="M23.7845 26.3984H21.2251V28.9578H23.7845V26.3984Z" fill="#8A8A8A"/>
<path d="M54.4952 26.3987V23.8393V21.2799V18.7212H57.0546H59.614V16.1618H57.0546H54.4952V13.6024V11.043H51.9365V13.6024V16.1618V18.7212V21.2799V23.8393V26.3987V28.9581H54.4952H57.0546H59.614V26.3987H57.0546H54.4952Z" fill="#8A8A8A"/>
<path d="M3.3099 21.2813V18.7227H0.750488V21.2813V23.8407V26.4001H3.3099V23.8407V21.2813Z" fill="#8A8A8A"/>
<path d="M41.6986 21.2802V18.7215V16.1621H39.1392V18.7215V21.2802V23.8396V26.399H41.6986V23.8396V21.2802Z" fill="#8A8A8A"/>
<path d="M59.6138 18.7227V21.2813V23.8407V26.4001H62.1732V23.8407V21.2813V18.7227H59.6138Z" fill="#8A8A8A"/>
<path d="M46.8176 18.7215V21.2802V23.8396V26.399H44.2581H41.6987V28.9584H44.2581H46.8176H49.377V26.399V23.8396V21.2802V18.7215V16.1621H46.8176V18.7215Z" fill="#8A8A8A"/>
<path d="M21.2249 13.6024V11.043H18.6655V13.6024V16.1618V18.7212V21.2799V23.8393V26.3987H21.2249V23.8393V21.2799V18.7212H23.7836V16.1618H21.2249V13.6024Z" fill="#8A8A8A"/>
<path d="M8.42814 13.6024V16.1618H5.86947H3.31006V18.7212H5.86947H8.42814V21.2799V23.8393V26.3987H5.86947H3.31006V28.9581H5.86947H8.42814H10.9875V26.3987V23.8393V21.2799V18.7212V16.1618V13.6024V11.043H8.42814V13.6024Z" fill="#8A8A8A"/>
<path d="M13.5469 13.6024V16.1618V18.7212V21.2799V23.8393V26.3987V28.9581H16.1063V26.3987V23.8393V21.2799V18.7212V16.1618V13.6024V11.043H13.5469V13.6024Z" fill="#8A8A8A"/>
<path d="M34.0215 13.6024V16.1618V18.7212H31.4621H28.9027V16.1618V13.6024V11.043H26.3433V13.6024V16.1618V18.7212V21.2799V23.8393V26.3987V28.9581H28.9027V26.3987V23.8393V21.2799H31.4621H34.0215V23.8393V26.3987V28.9581H36.5809V26.3987V23.8393V21.2799V18.7212V16.1618V13.6024V11.043H34.0215V13.6024Z" fill="#8A8A8A"/>
</g>
<defs>
<clipPath id="clip0_3558_4866">
<rect width="61.4228" height="40" fill="white" transform="translate(0.750488)"/>
</clipPath>
</defs>
</svg>
