<svg width="112" height="40" viewBox="0 0 112 40" fill="none" xmlns="http://www.w3.org/2000/svg">
<g clip-path="url(#clip0_3567_2831)">
<path d="M28.6378 15.4475C31.2323 15.4475 32.5904 17.2109 32.5904 19.5622V19.9878H25.9217C25.8001 23.0891 27.3609 24.8525 29.4081 24.8525C30.8269 24.8525 31.7188 24.2242 32.4485 23.1296L32.712 23.2715C32.2255 25.1566 30.7864 26.4741 28.577 26.4741C25.6582 26.4741 23.8745 24.2242 23.8745 21.2446C23.8745 17.8596 25.942 15.4475 28.6378 15.4475ZM28.4554 16.1367C26.996 16.1367 26.1447 17.515 25.9825 19.3392H30.4824C30.4824 17.4744 29.9148 16.1367 28.4554 16.1367ZM45.2538 15.6502V16.238C44.5038 16.4204 44.4024 16.5623 44.22 16.988L40.308 26.4538H39.7202L35.4433 16.988C35.2609 16.5623 35.1393 16.4204 34.4096 16.238V15.6502H39.3756V16.238C38.3419 16.3596 37.977 16.4407 37.977 16.9069C37.977 17.069 38.0176 17.2312 38.0986 17.4744L40.6729 23.6364L43.1255 17.4542C43.2268 17.1907 43.2674 17.069 43.2674 16.9069C43.2674 16.4407 42.8822 16.3799 41.8485 16.238V15.6502H45.2538ZM50.8059 15.4475V24.7309C50.8059 25.4809 51.1302 25.6228 52.1437 25.6836V26.2714H47.198V25.6836C48.2114 25.6228 48.5357 25.4809 48.5357 24.7309V17.4947L47.2588 16.7853V16.5015L50.4816 15.4475H50.8059ZM49.61 14.0084C48.779 14.0084 48.1709 13.3597 48.1709 12.5895C48.1709 11.799 48.779 11.1504 49.61 11.1504C50.4411 11.1504 51.0694 11.799 51.0694 12.5895C51.0694 13.3597 50.4411 14.0084 49.61 14.0084ZM59.5272 16.1569C57.6827 16.1569 56.5273 17.9204 56.5273 20.5757C56.5273 23.0485 57.6016 24.9539 59.6083 24.9539C60.4596 24.9539 61.1488 24.6701 61.6758 24.1228V18.9338C61.6758 17.1907 60.8245 16.1569 59.5272 16.1569ZM61.6758 12.3868L60.3988 11.6976V11.3936L63.6216 10.4004H63.946V24.2242C63.946 24.9133 63.9865 25.0958 64.8378 25.1768L65.3648 25.2174V25.7444L62.0001 26.4741H61.5947L61.6758 24.589C60.865 25.7038 59.8515 26.4741 58.4124 26.4741C55.9395 26.4741 54.3382 24.4269 54.3382 21.4675C54.3382 17.7177 56.5273 15.4678 59.3853 15.4678C60.3785 15.4678 61.169 15.7515 61.6758 16.2177V12.3868ZM72.2591 15.4475C74.8536 15.4475 76.2117 17.2109 76.2117 19.5622V19.9878H69.543C69.4214 23.0891 70.9822 24.8525 73.0294 24.8525C74.4482 24.8525 75.3401 24.2242 76.0698 23.1296L76.3333 23.2715C75.8468 25.1566 74.4077 26.4741 72.1983 26.4741C69.2795 26.4741 67.4958 24.2242 67.4958 21.2446C67.4958 17.8596 69.5633 15.4475 72.2591 15.4475ZM72.0767 16.1367C70.6173 16.1367 69.766 17.515 69.6038 19.3392H74.1037C74.1037 17.4744 73.5361 16.1367 72.0767 16.1367ZM86.3779 24.7309V18.8122C86.3779 17.4542 85.8307 16.8461 84.6753 16.8461C83.7226 16.8461 82.8308 17.3325 82.1214 17.9001V24.7309C82.1214 25.4809 82.4457 25.6228 83.4389 25.6836V26.2714H78.5134V25.6836C79.5269 25.6228 79.8512 25.4809 79.8512 24.7309V17.4947L78.5742 16.7853V16.5015L81.8579 15.4475H82.2024L82.1214 17.3934C83.0335 16.3596 84.2091 15.4475 85.8307 15.4475C87.7157 15.4475 88.6481 16.5218 88.6481 18.7109V24.7309C88.6481 25.4809 88.9724 25.6228 89.9859 25.6836V26.2714H85.0402V25.6836C86.0536 25.6228 86.3779 25.4809 86.3779 24.7309ZM94.0939 20.3122C94.0939 22.9877 95.3506 24.7917 97.4181 24.7917C98.7356 24.7917 99.6477 24.2039 100.317 23.1904L100.621 23.3323C99.9923 25.3795 98.5937 26.4741 96.6478 26.4741C93.9722 26.4741 92.0872 24.4269 92.0872 21.3256C92.0872 17.9609 94.0533 15.4475 97.1546 15.4475C99.0802 15.4475 100.337 16.2583 100.337 17.6771C100.337 18.2649 100.033 18.7514 99.6274 18.9744H98.2896C98.3302 18.7109 98.3707 18.4271 98.3707 18.0623C98.3707 17.0488 98.0261 16.1367 96.7897 16.1367C95.1073 16.1367 94.0939 17.9609 94.0939 20.3122ZM107.514 15.4475C110.108 15.4475 111.466 17.2109 111.466 19.5622V19.9878H104.797C104.676 23.0891 106.237 24.8525 108.284 24.8525C109.703 24.8525 110.595 24.2242 111.324 23.1296L111.588 23.2715C111.101 25.1566 109.662 26.4741 107.453 26.4741C104.534 26.4741 102.75 24.2242 102.75 21.2446C102.75 17.8596 104.818 15.4475 107.514 15.4475ZM107.331 16.1367C105.872 16.1367 105.02 17.515 104.858 19.3392H109.358C109.358 17.4744 108.791 16.1367 107.331 16.1367Z" fill="#8A8A8A"/>
<path d="M16.4536 17.4119C13.4748 17.4119 11.1179 17.0876 8.63694 18.4075C6.156 19.7273 3.74306 19.4031 0.820312 19.4031V15.9897C3.74306 15.9897 6.16961 16.3068 8.63694 14.9941C11.1043 13.6813 13.4748 13.9985 16.4536 13.9985V17.4119Z" fill="#8A8A8A"/>
<path d="M16.4536 27.5721C13.4748 27.5721 11.1179 27.2478 8.63694 28.5676C6.156 29.8875 3.74306 29.5632 0.820312 29.5632V26.1498C3.74306 26.1498 6.16961 26.467 8.63694 25.1543C11.1043 23.8415 13.4748 24.1587 16.4536 24.1587V27.5721Z" fill="#8A8A8A"/>
<path d="M13.1624 19.0488C11.5854 19.0812 10.1289 19.279 8.63694 20.0728C6.58112 21.1666 4.5536 21.1289 2.24377 21.0859C1.78142 21.0772 1.30777 21.0684 0.820312 21.0684V24.4818C1.31361 24.4818 1.79239 24.4911 2.25942 24.5001C4.55951 24.5445 6.57477 24.5833 8.63694 23.4863C10.1359 22.6888 11.5895 22.4916 13.1624 22.4603V19.0488Z" fill="#8A8A8A"/>
</g>
<defs>
<clipPath id="clip0_3567_2831">
<rect width="110.767" height="40" fill="white" transform="translate(0.820312)"/>
</clipPath>
</defs>
</svg>
