<svg width="83" height="40" viewBox="0 0 83 40" fill="none" xmlns="http://www.w3.org/2000/svg">
<g clip-path="url(#clip0_3567_2734)">
<mask id="mask0_3567_2734" style="mask-type:luminance" maskUnits="userSpaceOnUse" x="0" y="8" width="83" height="24">
<path d="M82.0913 8.55664H0.347168V31.4449H82.0913V8.55664Z" fill="white"/>
</mask>
<g mask="url(#mask0_3567_2734)">
<path d="M30.4042 14.25V16.3767H24.6771V18.6908H29.948V20.8326H24.6771V25.2952H21.9268V14.25H30.4042Z" fill="#8A8A8A"/>
<path d="M32.1484 14.2363H34.525V16.1103H32.1484V14.2363ZM32.1484 17.1155H34.525V25.2967H32.1484V17.1155Z" fill="#8A8A8A"/>
<path d="M35.6968 17.1306H38.2324C39.2347 20.7593 39.4069 21.5023 39.6719 23.064C39.9994 21.2496 40.0467 21.047 40.5342 19.1229L41.0339 17.1211H43.5058L40.8616 25.2872H38.3421L35.6968 17.1306Z" fill="#8A8A8A"/>
<path d="M52.2739 23.2129C51.9967 23.6587 51.6653 24.0695 51.2868 24.4339C50.4436 25.1968 49.3417 25.6113 48.2051 25.5923C45.7785 25.5923 44.0737 24.0307 44.0737 21.3673C44.0737 19.3968 45.0448 16.8613 48.2676 16.8613C49.3683 16.8272 50.4338 17.2521 51.2092 18.0358C52.2739 19.1792 52.3364 20.7739 52.3675 21.6958H46.5347C46.5195 22.7142 47.0966 23.7288 48.4086 23.7288C49.7202 23.7288 50.1755 22.8665 50.4727 22.2892L52.2739 23.2129ZM49.8783 20.1937C49.8587 19.7688 49.6993 19.3618 49.4259 19.0353C49.1071 18.739 48.6869 18.5772 48.2516 18.5829C47.7878 18.581 47.3455 18.774 47.0304 19.1138C46.77 19.4214 46.6029 19.7953 46.5469 20.1947H49.8783V20.1937Z" fill="#8A8A8A"/>
<path d="M54.3462 14.7656H56.7417V17.3163H58.3214V18.7871H56.7257V22.4623C56.7257 22.962 56.7257 23.3993 57.3503 23.3993L58.2127 23.368V25.242C57.7941 25.3187 57.3703 25.3603 56.9453 25.3669C56.1143 25.3669 55.2094 25.3206 54.6936 24.5672C54.3662 24.0836 54.3503 23.5024 54.3503 22.7216V18.771H53.1597V17.2983H54.3491L54.3462 14.7656Z" fill="#8A8A8A"/>
<path d="M62.3074 17.9721C62.8384 17.5197 63.4196 17.1601 64.6678 17.0352V19.1714L63.8716 19.2962C62.7133 19.4988 62.3696 19.671 62.3696 20.7046V25.2949H59.9741V17.1137H62.3197L62.3074 17.9721Z" fill="#8A8A8A"/>
<path d="M65.9304 19.4448C65.9202 18.7387 66.239 18.0687 66.7928 17.6304C67.5424 17.037 68.5135 16.9121 69.4683 16.9121C70.4704 16.9121 72.903 17.1459 72.903 19.2574V24.0133C72.903 24.8908 72.9495 25.0157 73.1369 25.2968H70.7762V24.5444C70.1516 24.9968 69.4777 25.5154 68.2785 25.5154C66.4045 25.5154 65.603 24.1696 65.603 23.0177C65.603 21.7031 66.6526 20.9535 67.3237 20.6724C67.9949 20.3913 69.5279 20.1102 70.5465 19.9228V19.4855C70.515 19.1107 70.484 18.4832 69.6093 18.4832C68.5446 18.4832 68.4036 19.1391 68.3418 19.4391L65.9304 19.4448ZM68.9811 21.9028C68.5748 22.0589 67.9474 22.2927 67.9474 22.9211C67.9727 23.402 68.3819 23.772 68.8625 23.7483C69.1589 23.7399 69.4466 23.6481 69.6935 23.4833C70.4897 22.9837 70.5207 22.234 70.5395 21.3879L68.9811 21.9028Z" fill="#8A8A8A"/>
<path d="M77.2546 17.8649C77.4749 17.5933 77.7531 17.3747 78.07 17.2251C78.5399 17.0264 79.0456 16.9203 79.5556 16.9128C80.0598 16.9024 80.5598 17.015 81.0097 17.2402C81.8723 17.6926 82.0912 18.4299 82.0912 19.6982V25.2975H79.6994V20.6976C79.6994 19.9642 79.6843 19.6953 79.5906 19.4768C79.3954 19.0641 78.9648 18.8151 78.5092 18.852C77.2424 18.852 77.2424 19.8704 77.2424 20.885V25.2975H74.8413V17.1465H77.2675L77.2546 17.8649Z" fill="#8A8A8A"/>
<path d="M11.6378 19.9151H13.9188C14.1005 19.9189 14.2519 19.7741 14.2557 19.5924C14.2567 19.546 14.2481 19.4996 14.2302 19.4571L10.3052 8.77433C10.2579 8.64372 10.1339 8.5557 9.99478 8.55665H7.70531C7.52356 8.5557 7.37496 8.7024 7.37402 8.88507C7.37402 8.92482 7.38065 8.96363 7.39487 9.00054L11.3189 19.6974C11.3672 19.8309 11.4959 19.9189 11.6378 19.9151Z" fill="#8A8A8A"/>
<path d="M11.2258 31.2717H13.5067C13.6885 31.2726 13.837 31.1259 13.838 30.9433C13.838 30.9035 13.8314 30.8647 13.8172 30.8278L5.72401 8.77433C5.67668 8.64372 5.55271 8.55665 5.4126 8.55665H3.13449C2.95277 8.5557 2.80417 8.7024 2.80322 8.88507C2.80322 8.92482 2.80985 8.96362 2.82405 9.00053L10.9153 31.0559C10.9636 31.1856 11.0876 31.2717 11.2258 31.2717Z" fill="#8A8A8A"/>
<path d="M6.73535 31.2725H9.01634C9.19802 31.281 9.3523 31.14 9.36081 30.9582C9.36275 30.9138 9.35609 30.8703 9.34093 30.8286L5.40272 20.1317C5.35539 20.0011 5.23143 19.9131 5.0923 19.9141H2.79997C2.61825 19.9188 2.47438 20.0702 2.47912 20.252C2.48006 20.2889 2.48764 20.3258 2.50088 20.3608L6.42493 31.0577C6.4732 31.1863 6.59717 31.2725 6.73535 31.2725Z" fill="#8A8A8A"/>
<path d="M11.9129 9.00338L13.7528 14.0073C13.8001 14.1379 13.9241 14.226 14.0633 14.225H16.3442C16.5259 14.226 16.6746 14.0793 16.6755 13.8966C16.6755 13.8568 16.6689 13.818 16.6547 13.7811L14.8147 8.77433C14.7675 8.64372 14.6434 8.5557 14.5043 8.55665H12.2234C12.0416 8.5557 11.8921 8.70146 11.8911 8.88412C11.8911 8.92482 11.8978 8.96552 11.9129 9.00338Z" fill="#8A8A8A"/>
<path d="M2.52686 31.2706H4.80785C4.98957 31.2715 5.13814 31.1248 5.13912 30.9422C5.13912 30.9024 5.13246 30.8636 5.11828 30.8267L3.26795 25.8095C3.22062 25.6789 3.09664 25.5909 2.95751 25.5918H0.679376C0.497655 25.5909 0.348114 25.7366 0.347168 25.9193C0.347168 25.96 0.353793 26.0007 0.368937 26.0386L2.20886 31.0557C2.25713 31.1874 2.38584 31.2744 2.52686 31.2706Z" fill="#8A8A8A"/>
</g>
</g>
<defs>
<clipPath id="clip0_3567_2734">
<rect width="81.7441" height="40" fill="white" transform="translate(0.347168)"/>
</clipPath>
</defs>
</svg>
