<svg width="36" height="40" viewBox="0 0 36 40" fill="none" xmlns="http://www.w3.org/2000/svg">
<g clip-path="url(#clip0_3567_2901)">
<path fill-rule="evenodd" clip-rule="evenodd" d="M6.89742 12.7676V17.577H5.692V12.7676H0.867676V17.5803V17.5938V22.4063V27.2326H5.692V19.9835H6.89742V27.2326H11.7234V12.7676H6.89742ZM12.9221 12.7676V27.2326H23.7778V21.2H18.9514V24.7921H17.7459V19.9835H23.7778V12.7676H12.9221ZM17.7459 17.577V15.1784H18.9514V17.577H17.7459ZM31.006 17.577V12.7676H35.832V16.3838L33.4212 18.7968L35.832 21.2098V27.2326H31.006V19.9835H29.8006V27.2326H24.9763V21.2098L27.3898 18.7968L24.9763 16.3838V12.7676H29.8006V17.577H31.006Z" fill="#8A8A8A"/>
</g>
<defs>
<clipPath id="clip0_3567_2901">
<rect width="34.9644" height="40" fill="white" transform="translate(0.867676)"/>
</clipPath>
</defs>
</svg>
