<svg width="126" height="40" viewBox="0 0 126 40" fill="none" xmlns="http://www.w3.org/2000/svg">
<g clip-path="url(#clip0_3567_2871)">
<path d="M35.3096 25.0519V15.1641H37.9591V18.8379H40.9581V15.1641H43.6076V25.0519H40.9581V21.1341H37.9591V25.0519H35.3096Z" fill="#8A8A8A"/>
<path d="M47.9607 25.2379C47.1163 25.2379 46.5049 24.9652 46.1264 24.4056C45.7479 23.8315 45.5586 23.0853 45.5586 22.1381V17.4453H48.2082V21.7937C48.2082 22.2816 48.2664 22.5973 48.3974 22.7695C48.5284 22.9274 48.7322 23.0135 48.9797 23.0135C49.2272 23.0135 49.431 22.9561 49.5912 22.8556C49.7513 22.7552 49.926 22.583 50.0861 22.339V17.4453H52.7357V25.0513H50.5811L50.3919 24.0468H50.3336C50.0279 24.4056 49.6785 24.7069 49.3 24.9078C48.9215 25.1231 48.4848 25.2379 47.9607 25.2379Z" fill="#8A8A8A"/>
<path d="M57.3358 28.1789C56.7535 28.1789 56.2148 28.1072 55.7199 27.978C55.2249 27.8632 54.8318 27.6623 54.5261 27.3896C54.2349 27.117 54.0894 26.7582 54.0894 26.299C54.0894 25.6962 54.4533 25.2083 55.1666 24.8351V24.7777C54.9774 24.6342 54.8027 24.462 54.6571 24.2611C54.5261 24.0458 54.4533 23.7875 54.4533 23.4718C54.4533 23.2135 54.5261 22.9552 54.6862 22.6968C54.8464 22.4385 55.0647 22.2233 55.3122 22.0367V21.9793C55.0356 21.7927 54.7881 21.5344 54.5698 21.2043C54.366 20.8599 54.2641 20.4724 54.2641 20.0276C54.2641 19.3961 54.4242 18.8795 54.7299 18.4776C55.0502 18.0615 55.4578 17.7601 55.9673 17.5592C56.4769 17.3583 57.001 17.2578 57.5687 17.2578C58.02 17.2578 58.4276 17.3152 58.8062 17.4444H61.6741V19.3244H60.5677C60.5968 19.4105 60.6259 19.5253 60.6405 19.6688C60.6696 19.8123 60.6841 19.9558 60.6841 20.1137C60.6841 20.7164 60.5386 21.2043 60.262 21.5775C59.9854 21.9362 59.6069 22.2089 59.141 22.3811C58.6751 22.5533 58.1365 22.6394 57.5687 22.6394C57.3067 22.6394 57.0301 22.6107 56.7098 22.539C56.5933 22.6538 56.5205 22.7973 56.5205 22.9839C56.5205 23.1417 56.6079 23.2565 56.768 23.3283C56.9427 23.4 57.2193 23.4287 57.5978 23.4287H58.7479C59.7088 23.4287 60.4658 23.5866 60.9899 23.9023C61.5285 24.2037 61.7906 24.706 61.7906 25.4092C61.7906 25.9545 61.6013 26.4425 61.2374 26.8586C60.8734 27.2748 60.3639 27.6049 59.6942 27.8345C59.0391 28.0641 58.253 28.1789 57.3358 28.1789ZM57.5833 21.1039C57.8308 21.1039 58.0346 21.0178 58.1802 20.8456C58.3403 20.6734 58.4131 20.4007 58.4131 20.0419C58.4131 19.6831 58.3403 19.4248 58.1802 19.267C58.02 19.0947 57.8308 19.0086 57.5833 19.0086C57.3358 19.0086 57.132 19.0947 56.9864 19.267C56.8263 19.4248 56.7535 19.6831 56.7535 20.0419C56.7535 20.4007 56.8263 20.6734 56.9864 20.8456C57.132 21.0178 57.3358 21.1039 57.5833 21.1039ZM57.7725 26.5716C58.2093 26.5716 58.5587 26.4999 58.8498 26.3707C59.141 26.2559 59.2866 26.0837 59.2866 25.8684C59.2866 25.6675 59.1992 25.5383 59.01 25.4953C58.8353 25.4379 58.5878 25.4235 58.253 25.4235H57.6561C57.3504 25.4235 57.1174 25.4092 56.9427 25.3948C56.7826 25.3805 56.6516 25.3661 56.5351 25.3374C56.3459 25.524 56.2585 25.6962 56.2585 25.8828C56.2585 26.1267 56.4041 26.299 56.6807 26.4138C56.9573 26.5142 57.3212 26.5716 57.7725 26.5716Z" fill="#8A8A8A"/>
<path d="M65.7503 28.1789C65.168 28.1789 64.6294 28.1072 64.1344 27.978C63.6394 27.8632 63.2464 27.6623 62.9406 27.3896C62.6495 27.117 62.5039 26.7582 62.5039 26.299C62.5039 25.6962 62.8679 25.2083 63.5812 24.8351V24.7777C63.3919 24.6342 63.2172 24.462 63.0717 24.2611C62.9406 24.0458 62.8679 23.7875 62.8679 23.4718C62.8679 23.2135 62.9406 22.9552 63.1008 22.6968C63.2609 22.4385 63.4793 22.2233 63.7268 22.0367V21.9793C63.4502 21.7927 63.2027 21.5344 62.9843 21.2043C62.7805 20.8599 62.6786 20.4724 62.6786 20.0276C62.6786 19.3961 62.8387 18.8795 63.1445 18.4776C63.4647 18.0615 63.8724 17.7601 64.3819 17.5592C64.8914 17.3583 65.4155 17.2578 65.9833 17.2578C66.4346 17.2578 66.8422 17.3152 67.2207 17.4444H70.0886V19.3244H68.9822C69.0113 19.4105 69.0405 19.5253 69.055 19.6688C69.0841 19.8123 69.0987 19.9558 69.0987 20.1137C69.0987 20.7164 68.9531 21.2043 68.6765 21.5775C68.3999 21.9362 68.0214 22.2089 67.5555 22.3811C67.0897 22.5533 66.551 22.6394 65.9833 22.6394C65.7212 22.6394 65.4446 22.6107 65.1244 22.539C65.0079 22.6538 64.9351 22.7973 64.9351 22.9839C64.9351 23.1417 65.0224 23.2565 65.1826 23.3283C65.3573 23.4 65.6339 23.4287 66.0124 23.4287H67.1625C68.1233 23.4287 68.8803 23.5866 69.4044 23.9023C69.9431 24.2037 70.2051 24.706 70.2051 25.4092C70.2051 25.9545 70.0158 26.4425 69.6519 26.8586C69.2879 27.2748 68.7784 27.6049 68.1087 27.8345C67.4536 28.0641 66.6675 28.1789 65.7503 28.1789ZM65.9978 21.1039C66.2453 21.1039 66.4491 21.0178 66.5947 20.8456C66.7548 20.6734 66.8276 20.4007 66.8276 20.0419C66.8276 19.6831 66.7548 19.4248 66.5947 19.267C66.4346 19.0947 66.2453 19.0086 65.9978 19.0086C65.7503 19.0086 65.5465 19.0947 65.401 19.267C65.2408 19.4248 65.168 19.6831 65.168 20.0419C65.168 20.4007 65.2408 20.6734 65.401 20.8456C65.5465 21.0178 65.7503 21.1039 65.9978 21.1039ZM66.1871 26.5716C66.6238 26.5716 66.9732 26.4999 67.2644 26.3707C67.5555 26.2559 67.7011 26.0837 67.7011 25.8684C67.7011 25.6675 67.6138 25.5383 67.4245 25.4953C67.2498 25.4379 67.0023 25.4235 66.6675 25.4235H66.0706C65.7649 25.4235 65.532 25.4092 65.3573 25.3948C65.1971 25.3805 65.0661 25.3661 64.9497 25.3374C64.7604 25.524 64.6731 25.6962 64.6731 25.8828C64.6731 26.1267 64.8186 26.299 65.0952 26.4138C65.3718 26.5142 65.7358 26.5716 66.1871 26.5716Z" fill="#8A8A8A"/>
<path d="M71.3703 25.0511V17.4451H74.0198V25.0511H71.3703ZM72.6951 16.5123C72.2583 16.5123 71.9089 16.3975 71.6469 16.1679C71.3848 15.9239 71.2393 15.6082 71.2393 15.2063C71.2393 14.8045 71.3703 14.5031 71.6469 14.2592C71.9089 14.0152 72.2583 13.9004 72.6951 13.9004C73.1318 13.9004 73.4812 14.0152 73.7432 14.2592C74.0053 14.4888 74.1509 14.8045 74.1509 15.2063C74.1509 15.6082 74.0198 15.9239 73.7432 16.1679C73.4666 16.3975 73.1172 16.5123 72.6951 16.5123Z" fill="#8A8A8A"/>
<path d="M75.8101 25.0517V17.4457H77.9647L78.1539 18.3641H78.2121C78.5179 18.0771 78.8672 17.8188 79.2603 17.6035C79.6679 17.3739 80.1192 17.2734 80.6433 17.2734C81.5023 17.2734 82.1137 17.5605 82.4776 18.1201C82.8562 18.6798 83.0454 19.4261 83.0454 20.3733V25.0517H80.3958V20.7033C80.3958 20.2154 80.3376 19.8997 80.2066 19.7275C80.0901 19.5696 79.8863 19.4835 79.6243 19.4835C79.3768 19.4835 79.173 19.5409 79.0128 19.6414C78.8527 19.7418 78.6634 19.8853 78.4596 20.0719V25.0517H75.8101Z" fill="#8A8A8A"/>
<path d="M87.5877 28.1789C87.0054 28.1789 86.4668 28.1072 85.9718 27.978C85.4768 27.8632 85.0838 27.6623 84.778 27.3896C84.4869 27.117 84.3413 26.7582 84.3413 26.299C84.3413 25.6962 84.7053 25.2083 85.4186 24.8351V24.7777C85.2293 24.6342 85.0546 24.462 84.9091 24.2611C84.778 24.0458 84.7053 23.7875 84.7053 23.4718C84.7053 23.2135 84.778 22.9552 84.9382 22.6968C85.0983 22.4385 85.3167 22.2233 85.5642 22.0367V21.9793C85.2876 21.7927 85.0401 21.5344 84.8217 21.2043C84.6179 20.8599 84.516 20.4724 84.516 20.0276C84.516 19.3961 84.6761 18.8795 84.9819 18.4776C85.3021 18.0615 85.7098 17.7601 86.2193 17.5592C86.7288 17.3583 87.2529 17.2578 87.8207 17.2578C88.272 17.2578 88.6796 17.3152 89.0581 17.4444H91.926V19.3244H90.8196C90.8487 19.4105 90.8779 19.5253 90.8924 19.6688C90.9215 19.8123 90.9361 19.9558 90.9361 20.1137C90.9361 20.7164 90.7905 21.2043 90.5139 21.5775C90.2373 21.9362 89.8588 22.2089 89.3929 22.3811C88.9271 22.5533 88.403 22.6394 87.8207 22.6394C87.5586 22.6394 87.282 22.6107 86.9618 22.539C86.8453 22.6538 86.7725 22.7973 86.7725 22.9839C86.7725 23.1417 86.8598 23.2565 87.02 23.3283C87.1947 23.4 87.4713 23.4287 87.8498 23.4287H88.9999C89.9607 23.4287 90.7177 23.5866 91.2418 23.9023C91.7805 24.2037 92.0425 24.706 92.0425 25.4092C92.0425 25.9545 91.8532 26.4425 91.4893 26.8586C91.1253 27.2748 90.6158 27.6049 89.9462 27.8345C89.291 28.0641 88.5049 28.1789 87.5877 28.1789ZM87.8352 21.1039C88.0827 21.1039 88.2865 21.0178 88.4321 20.8456C88.5923 20.6734 88.665 20.4007 88.665 20.0419C88.665 19.6831 88.5923 19.4248 88.4321 19.267C88.272 19.0947 88.0827 19.0086 87.8352 19.0086C87.5877 19.0086 87.3839 19.0947 87.2384 19.267C87.0782 19.4248 87.0054 19.6831 87.0054 20.0419C87.0054 20.4007 87.0782 20.6734 87.2384 20.8456C87.3839 21.0178 87.5877 21.1039 87.8352 21.1039ZM88.0245 26.5716C88.4612 26.5716 88.8106 26.4999 89.1018 26.3707C89.3929 26.2559 89.5385 26.0837 89.5385 25.8684C89.5385 25.6675 89.4512 25.5383 89.2619 25.4953C89.0872 25.4379 88.8397 25.4235 88.5049 25.4235H87.908C87.6023 25.4235 87.3694 25.4092 87.1947 25.3948C87.0345 25.3805 86.9035 25.3661 86.7871 25.3374C86.5978 25.524 86.5105 25.6962 86.5105 25.8828C86.5105 26.1267 86.656 26.299 86.9326 26.4138C87.2092 26.5142 87.5732 26.5716 88.0245 26.5716Z" fill="#8A8A8A"/>
<path d="M96.4966 25.0519V15.1641H103.033V17.3598H99.1461V19.2398H102.494V21.4355H99.1607V25.0519H96.4966Z" fill="#8A8A8A"/>
<path d="M105.945 25.2382C105.464 25.2382 105.042 25.1378 104.693 24.9225C104.358 24.6929 104.096 24.4059 103.906 24.0615C103.717 23.7027 103.63 23.3152 103.63 22.899C103.63 22.1097 103.965 21.4926 104.62 21.0478C105.275 20.5885 106.352 20.2872 107.823 20.1293C107.764 19.5983 107.4 19.34 106.745 19.34C106.469 19.34 106.178 19.3974 105.872 19.5122C105.566 19.6127 105.202 19.7705 104.809 19.9858L103.877 18.278C104.416 17.9479 104.969 17.704 105.522 17.5318C106.09 17.3595 106.673 17.2734 107.269 17.2734C108.274 17.2734 109.06 17.5605 109.628 18.1201C110.196 18.6798 110.472 19.584 110.472 20.8325V25.0517H108.318L108.128 24.3198H108.07C107.764 24.5925 107.43 24.8221 107.08 24.9943C106.745 25.1521 106.367 25.2382 105.945 25.2382ZM106.862 23.2291C107.08 23.2291 107.255 23.1861 107.4 23.0856C107.546 22.9851 107.677 22.856 107.823 22.7125V21.6792C107.197 21.7653 106.76 21.9088 106.512 22.0954C106.279 22.2819 106.163 22.4685 106.163 22.6838C106.163 23.0425 106.396 23.2291 106.862 23.2291Z" fill="#8A8A8A"/>
<path d="M115.699 25.2376C114.971 25.2376 114.316 25.0797 113.719 24.764C113.137 24.4483 112.671 24.0034 112.322 23.415C111.987 22.8123 111.812 22.0947 111.812 21.2623C111.812 20.4156 112.001 19.7124 112.38 19.124C112.773 18.5213 113.282 18.0764 113.908 17.7607C114.534 17.445 115.219 17.2871 115.946 17.2871C116.412 17.2871 116.82 17.3589 117.198 17.5024C117.577 17.6459 117.912 17.8324 118.203 18.0764L116.966 19.7555C116.805 19.612 116.645 19.5115 116.514 19.4685C116.383 19.4111 116.238 19.3967 116.092 19.3967C115.597 19.3967 115.219 19.5689 114.942 19.9133C114.665 20.2434 114.52 20.7027 114.52 21.2767C114.52 21.8507 114.665 22.31 114.957 22.6544C115.248 22.9845 115.597 23.1567 116.005 23.1567C116.223 23.1567 116.427 23.1136 116.631 23.0132C116.849 22.9127 117.053 22.7979 117.228 22.6687L118.247 24.3765C117.868 24.7066 117.446 24.9506 116.98 25.0797C116.529 25.1658 116.092 25.2376 115.699 25.2376Z" fill="#8A8A8A"/>
<path d="M122.585 25.2376C121.828 25.2376 121.159 25.0797 120.547 24.764C119.95 24.4483 119.484 24.0034 119.135 23.415C118.786 22.8123 118.611 22.0947 118.611 21.2623C118.611 20.4443 118.786 19.7411 119.135 19.1527C119.499 18.55 119.95 18.0908 120.518 17.775C121.086 17.445 121.683 17.2871 122.309 17.2871C123.066 17.2871 123.692 17.4593 124.187 17.7894C124.696 18.1195 125.06 18.55 125.293 19.1097C125.54 19.6694 125.657 20.2865 125.657 20.961C125.657 21.1906 125.642 21.4059 125.613 21.6211C125.599 21.822 125.57 21.9655 125.555 22.066H121.158C121.275 22.5252 121.508 22.841 121.828 23.0275C122.148 23.1997 122.527 23.2858 122.949 23.2858C123.444 23.2858 123.968 23.128 124.521 22.8266L125.38 24.3765C124.973 24.6635 124.507 24.8788 123.997 25.0367C123.502 25.1515 123.022 25.2376 122.585 25.2376ZM121.144 20.3439H123.43C123.43 20.0569 123.357 19.7985 123.197 19.5833C123.051 19.3537 122.774 19.2532 122.381 19.2532C122.09 19.2532 121.843 19.3393 121.61 19.5115C121.377 19.6694 121.231 19.9564 121.144 20.3439Z" fill="#8A8A8A"/>
<path d="M28.3071 28.0941C28.4527 27.8789 28.5546 27.6349 28.5983 27.3766C28.642 27.1183 28.6274 26.8599 28.5692 26.6016C28.4673 26.2428 28.278 25.9415 28.0014 25.7262C28.1324 25.5109 28.2198 25.2813 28.2489 25.0374C28.3217 24.5064 28.147 23.9754 27.7394 23.5449C27.4191 23.2004 26.9823 23.0282 26.4874 23.0282C26.4291 23.0282 26.3709 23.0282 26.3127 23.0426C26.6912 21.8658 26.8804 20.646 26.8804 19.4118C26.8804 12.7098 21.3775 7.28516 14.5789 7.28516C7.7803 7.28516 2.27737 12.7098 2.27737 19.4118C2.27737 20.646 2.46662 21.8658 2.83057 23.0282H2.81601C2.32104 23.0282 1.8843 23.2148 1.56402 23.5449C1.1564 23.9754 0.981701 24.5064 1.05449 25.0374C1.08361 25.2813 1.17096 25.5109 1.30198 25.7262C1.02538 25.9415 0.836121 26.2428 0.734215 26.6016C0.661425 26.8456 0.661425 27.1183 0.705099 27.3766C0.748773 27.6349 0.850679 27.8789 0.996259 28.0941C0.967143 28.1372 0.952585 28.1802 0.923469 28.2233C0.675983 28.6825 0.661425 29.1992 0.879795 29.6727C1.20007 30.4046 2.01532 30.9643 3.58759 31.5814C4.56298 31.9689 5.45102 32.2129 5.46558 32.2129C6.76124 32.5429 7.92588 32.7152 8.93039 32.7152C10.59 32.7152 11.8274 32.2703 12.6281 31.3805C13.9675 31.5958 15.3359 31.5814 16.6607 31.3518C17.4468 32.2559 18.6988 32.7008 20.373 32.7008C21.3775 32.7008 22.5567 32.5286 23.8378 32.1985C23.8524 32.1985 24.7404 31.9546 25.7158 31.5671C27.2881 30.95 28.0888 30.3759 28.4236 29.6584C28.642 29.1848 28.6274 28.6682 28.3799 28.2089C28.3654 28.1802 28.3362 28.1372 28.3071 28.0941ZM12.0604 29.9885C12.0021 30.1033 11.9293 30.2181 11.842 30.3329C11.6382 30.6343 11.3616 30.8495 11.0559 31.0217C10.459 31.3375 9.70196 31.4523 8.93039 31.4523C7.72207 31.4523 6.47008 31.1796 5.77129 30.993C5.74218 30.9787 1.50579 29.8019 2.04444 28.7973C2.13179 28.6251 2.27737 28.5677 2.46662 28.5677C3.22364 28.5677 4.59209 29.6727 5.18897 29.6727C5.31999 29.6727 5.40734 29.6153 5.45102 29.4862C5.6985 28.5964 1.62225 28.2233 1.97165 26.9317C2.02988 26.7021 2.19002 26.616 2.42295 26.616C3.42745 26.616 5.65483 28.3524 6.13524 28.3524C6.16436 28.3524 6.19348 28.3381 6.20803 28.3237C6.20803 28.3237 6.20803 28.3237 6.20803 28.3094C6.42641 27.9506 6.29538 27.6923 4.79591 26.7882C4.75223 26.7595 4.694 26.7308 4.65033 26.7021C2.99071 25.7119 1.82607 25.1235 2.49574 24.4059C2.56853 24.3198 2.68499 24.2911 2.81601 24.2911C2.97615 24.2911 3.16541 24.3485 3.36922 24.4346C4.2427 24.7934 5.46558 25.798 5.96055 26.2285C6.10613 26.3577 6.19348 26.4294 6.19348 26.4294C6.19348 26.4294 6.83403 27.0896 7.2271 27.0896C7.31445 27.0896 7.38724 27.0609 7.44547 26.9748C7.72207 26.5155 4.88325 24.4059 4.72312 23.5305C4.62121 22.9421 4.79591 22.6407 5.1453 22.6407C5.30544 22.6407 5.50925 22.7125 5.72762 22.8417C6.41185 23.2722 7.70751 25.4822 8.18793 26.3433C8.34807 26.6303 8.62467 26.7595 8.87216 26.7595C9.36713 26.7595 9.74564 26.2859 8.91583 25.6688C7.6784 24.7503 8.11514 23.2578 8.69746 23.1574C8.72657 23.1574 8.74113 23.1574 8.77025 23.1574C9.3089 23.1574 9.54182 24.0758 9.54182 24.0758C9.54182 24.0758 10.2406 25.798 11.4344 26.9891C12.5408 28.008 12.6864 28.8834 12.0604 29.9885ZM15.9328 30.1894L15.8746 30.2037C15.8455 30.2037 15.8018 30.2181 15.7727 30.2181C15.7144 30.2181 15.6562 30.2324 15.598 30.2324H15.5397H15.4961H15.4233C15.3942 30.2324 15.365 30.2324 15.3505 30.2324H15.2777H15.2631C15.2486 30.2324 15.2195 30.2324 15.2049 30.2324H15.1758C15.1467 30.2324 15.1321 30.2324 15.103 30.2324H15.0156H14.9429H14.8846H14.8555C14.8409 30.2324 14.8264 30.2324 14.8118 30.2324C14.7973 30.2324 14.7973 30.2324 14.7827 30.2324C14.7682 30.2324 14.7536 30.2324 14.739 30.2324H14.6808C14.6517 30.2324 14.6226 30.2324 14.5935 30.2324C14.5207 30.2324 14.4479 30.2324 14.3751 30.2324H14.3169C14.3023 30.2324 14.2877 30.2324 14.2732 30.2324H14.215H14.1422H14.0694H14.0548H13.9966C13.982 30.2324 13.9675 30.2324 13.9383 30.2324H13.8947C13.8364 30.2324 13.7928 30.2324 13.7345 30.2181H13.6763C13.6472 30.2181 13.6326 30.2181 13.6035 30.2181C13.5744 30.2181 13.5453 30.2181 13.5162 30.2037C13.4725 30.2037 13.4288 30.1894 13.3851 30.1894C14.0548 28.7256 13.72 27.3622 12.3661 26.0419C11.478 25.1809 10.8957 23.8893 10.7793 23.6166C10.5318 22.7843 9.87666 21.8514 8.79937 21.8514C8.71202 21.8514 8.61011 21.8658 8.52276 21.8658C8.04235 21.9375 7.63472 22.2102 7.34356 22.612C7.02328 22.2246 6.71757 21.9088 6.42641 21.7366C6.00422 21.4783 5.58204 21.3348 5.17441 21.3348C4.66488 21.3348 4.19903 21.5357 3.87875 21.9232L3.86419 21.9375C3.86419 21.9088 3.84963 21.8945 3.84963 21.8658C3.83508 21.794 3.82052 21.7079 3.7914 21.6362C3.76229 21.507 3.73317 21.3779 3.71861 21.2487C3.70405 21.1913 3.70405 21.1482 3.6895 21.0908C3.6895 21.0765 3.6895 21.0478 3.67494 21.0334C3.67494 21.0191 3.67494 21.0047 3.67494 21.0047C3.67494 20.9904 3.67494 20.9617 3.66038 20.9473C3.66038 20.9186 3.64582 20.8899 3.64582 20.8612C3.64582 20.8325 3.64582 20.8038 3.63126 20.7751C3.63126 20.7464 3.63126 20.7177 3.61671 20.689C3.61671 20.6603 3.6167 20.6316 3.60215 20.6173C3.60215 20.5598 3.58759 20.5168 3.58759 20.4594C3.58759 20.402 3.57303 20.3589 3.57303 20.3015C3.57303 20.2872 3.57303 20.2728 3.57303 20.2585C3.57303 20.2298 3.57303 20.2154 3.57303 20.1867C3.57303 20.1724 3.57303 20.1437 3.57303 20.1293V20.115C3.57303 20.0863 3.57303 20.0719 3.57303 20.0432C3.57303 20.0145 3.57303 19.9858 3.57303 19.9571C3.57303 19.9284 3.57303 19.8997 3.57303 19.871C3.57303 19.8423 3.57303 19.8279 3.57303 19.7992V19.7705C3.57303 19.7418 3.57303 19.7275 3.57303 19.6988V19.6414C3.57303 19.6127 3.57303 19.5983 3.57303 19.5696C3.57303 19.5409 3.57303 19.5266 3.57303 19.4979C3.57303 19.4692 3.57303 19.4548 3.57303 19.4261C3.57303 19.3974 3.57303 19.3831 3.57303 19.3544C3.57303 13.3413 8.5082 8.47629 14.608 8.47629C20.7078 8.47629 25.643 13.3413 25.643 19.3544C25.643 19.3831 25.643 19.3974 25.643 19.4261C25.643 19.4548 25.643 19.4692 25.643 19.4979C25.643 19.5266 25.643 19.5409 25.643 19.5696C25.643 19.584 25.643 19.6127 25.643 19.627C25.643 19.6414 25.643 19.6557 25.643 19.6844C25.643 19.7131 25.643 19.7275 25.643 19.7562C25.643 19.7849 25.643 19.8136 25.643 19.8279C25.643 19.8566 25.643 19.871 25.643 19.8997V19.9141C25.643 19.9428 25.643 19.9571 25.643 19.9858C25.643 20.0002 25.643 20.0289 25.643 20.0432C25.643 20.158 25.6284 20.2728 25.6139 20.3876C25.6139 20.402 25.6139 20.4307 25.6139 20.445C25.6139 20.4737 25.6139 20.4881 25.5993 20.5168C25.5993 20.5311 25.5993 20.5598 25.5993 20.5742C25.5993 20.6173 25.5848 20.646 25.5848 20.689L25.5702 20.7464C25.5702 20.7751 25.5702 20.7895 25.5557 20.8182C25.5557 20.8469 25.5557 20.8612 25.5411 20.8899C25.5411 20.9186 25.5265 20.9473 25.5265 20.976L25.512 21.0478C25.512 21.0765 25.4974 21.0908 25.4974 21.1195C25.4974 21.1482 25.4829 21.1626 25.4829 21.1913C25.4829 21.22 25.4683 21.2343 25.4683 21.263C25.4538 21.3061 25.4538 21.3635 25.4392 21.4066C25.4246 21.4496 25.4246 21.507 25.4101 21.5501C25.4101 21.5788 25.3955 21.6075 25.3955 21.6362C25.3955 21.6649 25.381 21.6792 25.381 21.7079C25.381 21.7366 25.3664 21.751 25.3664 21.7797C25.0607 21.4783 24.6385 21.3205 24.1872 21.3205C23.7796 21.3205 23.3574 21.4496 22.9352 21.7223C22.6586 21.8945 22.3383 22.2102 22.0181 22.5977C21.7269 22.1959 21.3047 21.9232 20.8389 21.8514C20.7515 21.8371 20.6642 21.8371 20.5623 21.8371C19.485 21.8371 18.8298 22.7699 18.5824 23.6023C18.4659 23.8893 17.869 25.1665 16.9955 26.0419C15.6271 27.3766 15.2777 28.7256 15.9328 30.1894ZM27.3317 27.2618C27.3172 27.2761 27.3172 27.2905 27.3172 27.3048C27.3172 27.3192 27.3026 27.3335 27.3026 27.3479C27.3026 27.3622 27.2881 27.3622 27.2881 27.3766C27.2735 27.3909 27.2589 27.4196 27.2589 27.434C27.2444 27.4627 27.2298 27.477 27.2007 27.5057C27.1862 27.5201 27.1862 27.5344 27.1716 27.5344C27.1716 27.5488 27.157 27.5488 27.157 27.5631C27.1425 27.5775 27.1425 27.5918 27.1279 27.5918C26.9387 27.7784 26.633 27.9506 26.2981 28.1085C26.2544 28.1228 26.2253 28.1372 26.1817 28.1659L26.138 28.1802C26.1089 28.1946 26.0797 28.2089 26.0652 28.2089C26.0361 28.2233 26.007 28.2376 25.9778 28.2376L25.8905 28.2663C25.7012 28.3381 25.512 28.4099 25.3227 28.496L25.2354 28.5247L25.148 28.5534C25.0898 28.5677 25.0461 28.5964 24.9879 28.6108L24.9151 28.6395L24.8423 28.6682L24.7986 28.6825C24.7695 28.6969 24.755 28.6969 24.7259 28.7112C24.1726 28.9408 23.765 29.1848 23.8524 29.4862C23.8524 29.5005 23.8524 29.5005 23.8669 29.5149C23.8815 29.5436 23.8815 29.5579 23.896 29.5723C23.9106 29.5866 23.9106 29.601 23.9252 29.601C24.0271 29.7014 24.2018 29.6871 24.4347 29.601C24.4492 29.601 24.4784 29.5866 24.4929 29.5866C24.5075 29.5866 24.522 29.5723 24.5366 29.5723L24.5512 29.5579C24.6094 29.5292 24.6531 29.5149 24.7113 29.4862C24.7259 29.4862 24.7404 29.4718 24.755 29.4718C25.0316 29.3427 25.3518 29.1561 25.6576 28.9982C25.7012 28.9695 25.7595 28.9552 25.8031 28.9265C25.8759 28.8834 25.9633 28.8404 26.0361 28.8117C26.3272 28.6682 26.6184 28.5821 26.8368 28.5821C26.9387 28.5821 27.0406 28.5964 27.1134 28.6538L27.1279 28.6682C27.1425 28.6682 27.1425 28.6825 27.157 28.6825C27.1862 28.7112 27.2153 28.7399 27.2298 28.7686C27.2298 28.783 27.2444 28.783 27.2444 28.7973C27.2444 28.8117 27.2589 28.8117 27.2589 28.826C27.3754 29.0269 27.2735 29.2422 27.0551 29.4575C26.8513 29.6584 26.5165 29.8593 26.1525 30.0459C26.1234 30.0602 26.0943 30.0746 26.0652 30.0889C24.9733 30.6199 23.5321 31.0217 23.5175 31.0217C23.139 31.1222 22.5858 31.2514 21.9744 31.3375L21.887 31.3518H21.8725C21.8434 31.3518 21.7997 31.3662 21.7706 31.3662C21.7415 31.3662 21.6978 31.3805 21.6687 31.3805C21.5959 31.3949 21.5231 31.3949 21.4503 31.4092H21.4357C21.1737 31.4379 20.9116 31.4523 20.6496 31.4666C20.5623 31.4666 20.4603 31.4666 20.373 31.4666C20.3584 31.4666 20.3439 31.4666 20.3293 31.4666H20.3148C20.3002 31.4666 20.2857 31.4666 20.2711 31.4666C20.2129 31.4666 20.1546 31.4666 20.111 31.4666C20.0236 31.4666 19.9363 31.4523 19.8489 31.4523C19.8489 31.4523 19.8489 31.4523 19.8344 31.4523C19.8052 31.4523 19.7616 31.4523 19.7324 31.4379C19.7179 31.4379 19.7033 31.4379 19.6742 31.4379C19.616 31.4379 19.5723 31.4236 19.5141 31.4236C19.485 31.4236 19.4413 31.4092 19.4122 31.4092C19.3831 31.4092 19.3394 31.3949 19.3103 31.3949C19.2957 31.3949 19.2811 31.3949 19.2666 31.3805C19.2229 31.3662 19.1647 31.3662 19.121 31.3518C19.0919 31.3518 19.0628 31.3375 19.0337 31.3375H19.0191C19.0045 31.3375 18.99 31.3231 18.9754 31.3231H18.9609L18.9172 31.3088C18.9026 31.3088 18.8881 31.2944 18.8735 31.2944L18.8298 31.2801C18.8153 31.2801 18.8007 31.2657 18.7862 31.2657C18.7716 31.2657 18.7571 31.2514 18.7425 31.2514L18.7134 31.237C18.6843 31.2227 18.6552 31.2227 18.626 31.2083L18.5969 31.1939L18.5824 31.1796C18.5387 31.1652 18.495 31.1509 18.4659 31.1222L18.4368 31.1078C18.4222 31.1078 18.4222 31.0935 18.4077 31.0935C18.3931 31.0791 18.364 31.0791 18.3494 31.0648L18.3203 31.0504C18.2912 31.0361 18.2621 31.0217 18.233 31.0074C18.2184 30.993 18.2039 30.993 18.1893 30.9787L18.1602 30.9643C18.1456 30.95 18.1311 30.95 18.1165 30.9356L18.0874 30.9213C18.0728 30.9069 18.0583 30.9069 18.0583 30.8926L18.0437 30.8782C18.0146 30.8639 18 30.8495 17.9855 30.8352C17.9709 30.8208 17.9564 30.8208 17.9564 30.8065C17.9418 30.7921 17.9272 30.7778 17.9127 30.7778C17.8981 30.7634 17.8836 30.7634 17.8836 30.7491C17.869 30.7347 17.8545 30.7347 17.8545 30.7204C17.8399 30.706 17.8253 30.706 17.8253 30.6917C17.8108 30.6773 17.7962 30.663 17.7962 30.663C17.7817 30.6486 17.7671 30.6343 17.7671 30.6343C17.7526 30.6199 17.738 30.6056 17.738 30.6056C17.7234 30.5912 17.7234 30.5769 17.7089 30.5769C17.6943 30.5625 17.6943 30.5482 17.6798 30.5482C17.6652 30.5195 17.6361 30.5051 17.6215 30.4764C17.607 30.4477 17.5779 30.419 17.5633 30.3903C17.5633 30.3759 17.5487 30.3759 17.5487 30.3616C17.5342 30.3472 17.5196 30.3329 17.5196 30.3042C17.5051 30.2898 17.4905 30.2755 17.4905 30.2468C17.476 30.2324 17.4614 30.2181 17.4614 30.1894C17.4614 30.175 17.4468 30.175 17.4468 30.1607C17.4323 30.1463 17.4323 30.132 17.4177 30.1176C17.4032 30.1033 17.4032 30.0889 17.3886 30.0746C17.3886 30.0602 17.374 30.0602 17.374 30.0459C17.374 30.0315 17.3595 30.0315 17.3595 30.0172C17.3595 30.0172 17.3595 30.0028 17.3449 30.0028C17.3304 30.0028 17.3449 30.0028 17.3449 29.9885C17.3304 29.9741 17.3304 29.9598 17.3158 29.9311C17.3158 29.9167 17.3013 29.9167 17.3013 29.9024L17.2867 29.8737L17.2721 29.845C17.2576 29.8306 17.2576 29.8163 17.243 29.8019C17.243 29.7875 17.2285 29.7875 17.2285 29.7732C17.2139 29.7588 17.2139 29.7445 17.1993 29.7158C17.1993 29.7158 17.1993 29.7014 17.1848 29.7014C17.1702 29.6871 17.1702 29.6727 17.1702 29.6584C17.1702 29.644 17.1702 29.644 17.1557 29.6297C17.1557 29.6153 17.1411 29.601 17.1411 29.5866C17.1411 29.5723 17.1411 29.5723 17.1266 29.5579C17.112 29.5292 17.0974 29.5005 17.0974 29.4575C17.0974 29.4431 17.0974 29.4431 17.0829 29.4288C17.0829 29.4144 17.0683 29.4001 17.0683 29.3857C17.0538 29.357 17.0538 29.3427 17.0392 29.314C17.0392 29.2996 17.0392 29.2996 17.0392 29.2853C17.0392 29.2566 17.0247 29.2422 17.0247 29.2135C17.0247 29.1992 17.0247 29.1848 17.0101 29.1705C17.0101 29.1561 17.0101 29.1561 17.0101 29.1418C17.0101 29.1274 17.0101 29.1131 16.9955 29.0987C16.9955 29.07 16.981 29.0556 16.981 29.0269C16.981 29.0126 16.981 29.0126 16.981 28.9982C16.981 28.9839 16.981 28.9839 16.981 28.9695C16.981 28.9408 16.981 28.9121 16.9664 28.8834C16.9664 28.8691 16.9664 28.8691 16.9664 28.8547C16.9664 28.8404 16.9664 28.826 16.9664 28.8117C16.9519 28.1946 17.2721 27.6062 17.9418 26.946C19.1356 25.7693 19.8344 24.0328 19.8344 24.0328C19.8344 24.0328 19.8489 23.961 19.8926 23.8606C19.8926 23.8462 19.9071 23.8319 19.9071 23.8175C19.9217 23.8032 19.9217 23.7745 19.9363 23.7601C19.9508 23.7314 19.9654 23.7027 19.9799 23.674C19.9799 23.6597 19.9945 23.6597 19.9945 23.6453V23.631C19.9945 23.631 19.9945 23.6166 20.009 23.6166C20.0236 23.5736 20.0527 23.5305 20.0818 23.5018C20.0818 23.4875 20.0964 23.4875 20.0964 23.4731C20.111 23.4588 20.1255 23.43 20.1401 23.4157C20.1546 23.4013 20.1546 23.4013 20.1692 23.387C20.1837 23.3726 20.1983 23.3583 20.2129 23.3439L20.2274 23.3296C20.3002 23.2578 20.373 23.2004 20.4603 23.1717H20.4749C20.4895 23.1717 20.4895 23.1717 20.504 23.1717C20.5186 23.1717 20.5186 23.1717 20.5331 23.1717C20.5477 23.1717 20.5768 23.1717 20.5914 23.1574C20.6059 23.1574 20.6059 23.1574 20.6205 23.1574C20.635 23.1574 20.6496 23.1574 20.6642 23.1574C20.6787 23.1574 20.6933 23.1574 20.7078 23.1574C20.8097 23.1717 20.9116 23.2435 21.0136 23.3296L21.0281 23.3439C21.0427 23.3726 21.0718 23.387 21.0863 23.4157C21.1009 23.43 21.1009 23.43 21.1009 23.4444C21.1155 23.4731 21.13 23.5018 21.1446 23.5305C21.1446 23.5449 21.1591 23.5592 21.1591 23.5736C21.1591 23.5736 21.1591 23.5879 21.1737 23.5879C21.1737 23.6023 21.1882 23.6166 21.1882 23.631C21.1882 23.6453 21.2028 23.6597 21.2028 23.674C21.2319 23.7314 21.2465 23.8032 21.261 23.8749C21.261 23.8893 21.261 23.9036 21.2756 23.918C21.2902 23.9754 21.2902 24.0328 21.2902 24.0902C21.2902 24.1045 21.2902 24.1189 21.2902 24.1332C21.2902 24.1763 21.2902 24.205 21.2902 24.2481C21.2902 24.2624 21.2902 24.2768 21.2902 24.2911C21.2756 24.4346 21.2465 24.5781 21.2028 24.7216C21.1882 24.7503 21.1882 24.7647 21.1737 24.7934C21.1737 24.8077 21.1591 24.8221 21.1591 24.8364C21.1446 24.8652 21.13 24.8939 21.1155 24.9369C21.1009 24.9656 21.0863 24.98 21.0718 25.0087C21.0572 25.023 21.0572 25.0374 21.0427 25.0517C21.0136 25.0948 20.999 25.1235 20.9699 25.1665L20.9553 25.1952C20.9262 25.2239 20.9116 25.2526 20.8825 25.2813C20.8389 25.3387 20.7952 25.3818 20.737 25.4392C20.6642 25.5109 20.5768 25.5827 20.4895 25.6545C20.4167 25.7119 20.3293 25.7693 20.2711 25.841C20.2565 25.8554 20.2565 25.8554 20.242 25.8697C20.0236 26.0993 19.9654 26.3003 20.0236 26.4438C20.0236 26.4438 20.0236 26.4581 20.0382 26.4581C20.0382 26.4725 20.0527 26.4725 20.0527 26.4868C20.0527 26.4868 20.0527 26.5012 20.0673 26.5012C20.0818 26.5299 20.0964 26.5442 20.1255 26.5729C20.1255 26.5729 20.1255 26.5729 20.1401 26.5873L20.1546 26.6016C20.1692 26.616 20.1692 26.616 20.1837 26.6303H20.1983L20.2129 26.6447C20.2274 26.659 20.242 26.659 20.2565 26.6734L20.2711 26.6877C20.3002 26.7021 20.3293 26.7164 20.3439 26.7164C20.3584 26.7164 20.3584 26.7164 20.373 26.7164H20.3876H20.4021H20.4167H20.4312H20.4458H20.4603C20.4749 26.7164 20.4749 26.7164 20.4895 26.7164H20.504H20.5186H20.5331H20.5477H20.5623H20.5768H20.5914H20.6059H20.6205H20.635H20.6496H20.6642H20.6787C20.6933 26.7164 20.6933 26.7164 20.7078 26.7164C20.737 26.7164 20.7515 26.7021 20.7806 26.7021C20.8097 26.7021 20.8243 26.6877 20.8534 26.6734C20.868 26.6734 20.868 26.6734 20.8825 26.659C20.8971 26.659 20.9116 26.6447 20.9262 26.6447C20.9408 26.6447 20.9408 26.6303 20.9553 26.6303C20.9699 26.616 20.9844 26.616 20.999 26.6016C21.0281 26.5873 21.0572 26.5586 21.0863 26.5299L21.1009 26.5155C21.1009 26.5155 21.1009 26.5155 21.1155 26.5012L21.13 26.4868C21.1446 26.4725 21.1591 26.4581 21.1737 26.4438C21.2028 26.4007 21.2319 26.3577 21.261 26.3146C21.4503 25.9702 21.7851 25.3961 22.1636 24.8077C22.1782 24.779 22.1928 24.7647 22.2073 24.736C22.2219 24.7073 22.2364 24.6929 22.251 24.6642C22.2655 24.6355 22.2947 24.5925 22.3092 24.5638L22.3383 24.5351C22.3529 24.5064 22.3675 24.492 22.382 24.4633C22.4402 24.3772 22.4985 24.2911 22.5567 24.1907L22.6004 24.1189C22.6877 23.9897 22.7751 23.8606 22.8624 23.7458L22.9061 23.6884C22.9643 23.6023 23.0371 23.5162 23.0954 23.43C23.1245 23.387 23.1681 23.3439 23.1973 23.3009L23.2409 23.2578C23.2409 23.2435 23.2555 23.2435 23.2555 23.2291C23.27 23.2148 23.2846 23.2004 23.2992 23.1861C23.2992 23.1717 23.3137 23.1717 23.3137 23.1574C23.3283 23.143 23.3428 23.1287 23.3574 23.1143L23.372 23.1C23.3865 23.0856 23.4156 23.0569 23.4302 23.0426C23.4447 23.0282 23.4593 23.0139 23.4739 22.9995C23.5467 22.9278 23.634 22.856 23.7213 22.7986L23.7359 22.7843L23.7505 22.7699C23.765 22.7556 23.7796 22.7556 23.7941 22.7412C24.1435 22.5546 24.4201 22.5403 24.5803 22.6981C24.6822 22.7986 24.7404 22.9565 24.7259 23.1861C24.7259 23.2004 24.7259 23.2004 24.7259 23.2148V23.2291C24.7259 23.2435 24.7259 23.2435 24.7259 23.2578C24.7259 23.2722 24.7259 23.2865 24.7259 23.3009C24.7259 23.3152 24.7259 23.3296 24.7259 23.3296C24.7259 23.3296 24.7259 23.3296 24.7259 23.3439C24.7259 23.3583 24.7259 23.3583 24.7259 23.3726C24.7259 23.3726 24.7259 23.3726 24.7259 23.387C24.7259 23.4013 24.7259 23.4013 24.7259 23.4157C24.7259 23.4157 24.7259 23.4157 24.7259 23.43C24.7259 23.4444 24.7259 23.4588 24.7259 23.4731C24.7259 23.4875 24.7259 23.4875 24.7259 23.4875C24.7259 23.5018 24.7113 23.5305 24.7113 23.5449C24.7113 23.5592 24.6967 23.5879 24.6822 23.6023C24.6822 23.6166 24.6676 23.631 24.6676 23.6453C24.6676 23.6597 24.6531 23.674 24.6385 23.6884C24.6239 23.7171 24.6094 23.7458 24.5803 23.7888C24.5657 23.8032 24.5657 23.8175 24.5512 23.8319C24.5512 23.8462 24.5366 23.8462 24.5366 23.8606C24.522 23.8893 24.5075 23.918 24.4784 23.9323C24.4638 23.961 24.4347 23.9897 24.4201 24.0184C24.391 24.0615 24.3619 24.0902 24.3328 24.1332L24.3037 24.162C24.26 24.205 24.2309 24.2624 24.1872 24.3055C24.1581 24.3342 24.1435 24.3629 24.1144 24.3916C24.0999 24.4059 24.0853 24.4346 24.0562 24.449L24.0271 24.4777C23.9834 24.5207 23.9543 24.5638 23.9106 24.5925L23.8815 24.6212C23.8669 24.6355 23.8378 24.6642 23.8233 24.6786C23.8087 24.6929 23.7796 24.7216 23.765 24.736L23.7068 24.7934C23.6922 24.8077 23.6631 24.8364 23.6486 24.8508C23.634 24.8652 23.6049 24.8939 23.5903 24.9082C23.5466 24.9513 23.503 24.9943 23.4739 25.0374C22.877 25.6401 22.2655 26.2285 22.0472 26.6016C22.0326 26.6303 22.0181 26.6447 22.0035 26.6734C21.9744 26.7451 21.9598 26.8025 21.9744 26.8456C21.9744 26.8599 21.9889 26.8743 21.9889 26.8886C21.9889 26.903 22.0035 26.903 22.0035 26.9173C22.0035 26.9317 22.0181 26.9317 22.0326 26.946C22.0472 26.9604 22.0472 26.9604 22.0617 26.9604C22.1054 26.9891 22.1636 27.0035 22.2073 27.0035H22.2219H22.2364H22.251H22.2655H22.2801H22.2947H22.3092H22.3238C22.3383 27.0035 22.3529 26.9891 22.3529 26.9891C22.3674 26.9891 22.382 26.9748 22.3966 26.9748C22.4111 26.9748 22.4257 26.9604 22.4402 26.9604C22.4402 26.9604 22.4548 26.9604 22.4548 26.946L22.4694 26.9317C22.4985 26.9173 22.513 26.903 22.5421 26.8886C22.5567 26.8743 22.5858 26.8599 22.6004 26.8456L22.6149 26.8312L22.6295 26.8169L22.6441 26.8025H22.6586C22.6732 26.8025 22.6732 26.7882 22.6877 26.7882C22.7168 26.7738 22.7314 26.7451 22.7605 26.7308C22.7751 26.7164 22.7896 26.7164 22.8042 26.7021C22.8624 26.659 22.9061 26.616 22.9498 26.5729L22.9789 26.5442L22.9934 26.5299C23.0371 26.5012 23.0662 26.4725 23.0954 26.4438L23.1099 26.4294C23.1245 26.4151 23.1245 26.4151 23.139 26.4007L23.1536 26.3864L23.1681 26.372L23.1827 26.3577L23.2118 26.329L23.2264 26.3146C23.2409 26.3146 23.2409 26.3003 23.2555 26.2859L23.27 26.2715C23.27 26.2715 23.27 26.2716 23.2846 26.2572L23.2992 26.2428L23.3283 26.2141L23.3428 26.1998C23.4011 26.1424 23.4884 26.085 23.5758 25.9989L23.6049 25.9702L23.6631 25.9271C23.6777 25.9128 23.7068 25.8984 23.7213 25.8697C23.8087 25.798 23.8815 25.7406 23.9834 25.6688L24.0416 25.6258C24.0853 25.5827 24.1435 25.5397 24.2018 25.5109C24.2163 25.4966 24.2454 25.4822 24.26 25.4679C24.2891 25.4392 24.3182 25.4248 24.3619 25.3961C24.3765 25.3818 24.4056 25.3674 24.4201 25.3531C24.5512 25.267 24.6676 25.1665 24.7986 25.0804L24.8569 25.0374C24.9005 25.0087 24.9297 24.98 24.9733 24.9513L25.0025 24.9226C25.0461 24.8939 25.0752 24.8795 25.1189 24.8508C25.148 24.8221 25.1917 24.8077 25.2208 24.7934L25.2499 24.7647L25.2791 24.7503C25.3082 24.736 25.3518 24.7073 25.381 24.6929L25.4101 24.6786L25.4829 24.6355C25.512 24.6212 25.5265 24.6068 25.5557 24.5925L25.5702 24.5781C25.5848 24.5638 25.5993 24.5638 25.6284 24.5494C25.6576 24.5351 25.6721 24.5207 25.7012 24.5207L25.7304 24.5064L25.7595 24.492C25.774 24.492 25.7886 24.4777 25.7886 24.4777C25.8468 24.449 25.9196 24.4203 25.9778 24.3916C25.9924 24.3916 25.9924 24.3772 26.007 24.3772C26.0215 24.3629 26.0506 24.3629 26.0652 24.3485C26.0797 24.3485 26.1089 24.3342 26.1234 24.3342C26.138 24.3342 26.1525 24.3198 26.1817 24.3198C26.1962 24.3198 26.1962 24.3198 26.2108 24.3055C26.2253 24.3055 26.2544 24.2911 26.269 24.2911C26.2981 24.2911 26.3272 24.2768 26.3418 24.2768C26.3564 24.2768 26.3564 24.2768 26.3709 24.2768C26.3855 24.2768 26.4 24.2768 26.4291 24.2768C26.4437 24.2768 26.4437 24.2768 26.4583 24.2768C26.4728 24.2768 26.4874 24.2768 26.5019 24.2768H26.5165C26.531 24.2768 26.5456 24.2768 26.5602 24.2768H26.5747H26.5893H26.6038H26.6184H26.633C26.6621 24.2911 26.6766 24.2911 26.7057 24.3055C26.7057 24.3055 26.7203 24.3055 26.7203 24.3198L26.7349 24.3342C26.7494 24.3485 26.7494 24.3485 26.764 24.3629C26.764 24.3629 26.764 24.3629 26.7785 24.3772L26.7931 24.3916C26.8513 24.449 26.895 24.5207 26.9387 24.5925V24.6068C26.9387 24.6212 26.9387 24.6212 26.9532 24.6355C26.9678 24.6499 26.9678 24.6786 26.9678 24.6929C26.9823 24.779 26.9823 24.8652 26.9532 24.9513C26.9532 24.9656 26.9532 24.9656 26.9387 24.98C26.9241 25.0087 26.9096 25.0374 26.895 25.0661L26.8804 25.0804C26.8368 25.1522 26.7785 25.2239 26.7203 25.2957L26.7057 25.31C26.6912 25.3244 26.6621 25.3531 26.6475 25.3674C26.633 25.3818 26.633 25.3818 26.6184 25.3961C26.6038 25.4105 26.6038 25.4105 26.5893 25.4248L26.5747 25.4392C26.5602 25.4535 26.5602 25.4535 26.5456 25.4679C26.531 25.4822 26.5019 25.5109 26.4728 25.5253L26.4583 25.5396C26.4291 25.554 26.4146 25.5827 26.3855 25.5971C26.3418 25.6258 26.2981 25.6688 26.2544 25.6975C26.2108 25.7262 26.1671 25.7549 26.1234 25.7836C26.0652 25.8123 26.0215 25.8554 25.9633 25.8841C25.8614 25.9415 25.7595 26.0132 25.643 26.085C25.6139 26.0993 25.5848 26.128 25.5557 26.1424C25.2645 26.3146 24.9588 26.5012 24.6094 26.7021L24.522 26.7595C24.4201 26.8169 24.3328 26.8743 24.2454 26.9317L24.2018 26.9604L24.1144 27.0178C24.0853 27.0322 24.0562 27.0609 24.0271 27.0752C23.9979 27.0896 23.9834 27.1039 23.9543 27.1183L23.9106 27.147C23.896 27.1613 23.8669 27.1757 23.8524 27.19L23.8378 27.2044C23.8233 27.2187 23.7941 27.2331 23.7796 27.2474L23.7505 27.2761L23.7068 27.3048L23.6777 27.3335C23.6194 27.3766 23.5612 27.4196 23.503 27.4483L23.4884 27.4627C23.4593 27.477 23.4447 27.4914 23.4302 27.5057C23.4156 27.5201 23.4156 27.5201 23.4011 27.5201C23.3574 27.5488 23.3137 27.5918 23.2846 27.6205L23.27 27.6349C23.2555 27.6492 23.2555 27.6492 23.2409 27.6636L23.2264 27.6779L23.2118 27.6923L23.1973 27.7067C23.1827 27.721 23.1681 27.7354 23.1536 27.7497L23.139 27.7641C23.1245 27.7928 23.0954 27.8071 23.0808 27.8358V27.8502C23.0662 27.8645 23.0517 27.8932 23.0517 27.9076C23.0517 27.9076 23.0517 27.9219 23.0371 27.9219V27.9363C23.0371 27.9363 23.0371 27.9363 23.0371 27.9506V27.965C23.0371 27.965 23.0371 27.965 23.0371 27.9793V27.9937C23.0371 28.008 23.0226 28.0224 23.0226 28.0367C23.0226 28.0367 23.0226 28.0367 23.0226 28.0511C23.0226 28.0511 23.0226 28.0511 23.0226 28.0654C23.0226 28.0654 23.0226 28.0654 23.0226 28.0798V28.0941C23.0226 28.0941 23.0226 28.0941 23.0226 28.1085V28.1228V28.1372V28.1515V28.1659V28.1802V28.1946V28.2089C23.0226 28.2233 23.0226 28.2233 23.0371 28.2376V28.252V28.2663C23.0371 28.2663 23.0371 28.2807 23.0517 28.2807C23.0517 28.295 23.0662 28.295 23.0662 28.3094C23.0662 28.3094 23.0662 28.3237 23.0808 28.3237L23.0954 28.3381C23.0954 28.3381 23.0954 28.3524 23.1099 28.3524C23.1099 28.3524 23.1099 28.3524 23.1099 28.3668C23.1099 28.3668 23.1099 28.3668 23.1245 28.3668C23.1245 28.3668 23.1245 28.3668 23.139 28.3668C23.139 28.3668 23.139 28.3668 23.1536 28.3668C23.2409 28.3811 23.4156 28.3237 23.634 28.1946C23.6486 28.1946 23.6631 28.1802 23.6777 28.1802L23.7505 28.1372L23.7796 28.1228C23.8087 28.1085 23.8233 28.0941 23.8524 28.0798C23.8669 28.0654 23.8815 28.0654 23.896 28.0511C24.2018 27.8789 24.5657 27.6636 24.9297 27.4483C24.9588 27.434 25.0025 27.4053 25.0316 27.3909L25.1044 27.3479C25.1335 27.3335 25.1771 27.3048 25.2063 27.2905C25.2499 27.2618 25.2936 27.2331 25.3518 27.2187C25.4538 27.1613 25.5702 27.1039 25.6721 27.0465L25.7449 27.0178C25.7886 26.9891 25.8323 26.9748 25.8759 26.946C25.9196 26.9317 25.9633 26.903 26.007 26.8886C26.0506 26.8743 26.0943 26.8456 26.138 26.8312L26.1817 26.8169C26.4437 26.7164 26.6766 26.659 26.8659 26.659C26.9096 26.659 26.9532 26.659 26.9823 26.6734C26.9969 26.6734 27.0115 26.6734 27.026 26.6877C27.0406 26.6877 27.0406 26.6877 27.0551 26.7021C27.0697 26.7021 27.0697 26.7021 27.0843 26.7164H27.0988C27.1134 26.7164 27.1134 26.7164 27.1134 26.7308C27.1279 26.7308 27.1279 26.7451 27.1425 26.7451C27.1716 26.7595 27.2007 26.7882 27.2298 26.8169C27.2444 26.8312 27.2444 26.8456 27.2589 26.8599C27.2589 26.8599 27.2589 26.8743 27.2735 26.8743C27.2735 26.8886 27.2881 26.8886 27.2881 26.903C27.2881 26.9173 27.3026 26.9317 27.3026 26.9317C27.3026 26.946 27.3172 26.9604 27.3172 26.9748C27.3172 26.9891 27.3317 27.0035 27.3317 27.0178C27.3609 27.0322 27.3609 27.147 27.3317 27.2618Z" fill="#8A8A8A"/>
<path d="M18.1605 16.4412C18.3352 16.4986 18.4662 16.6851 18.5827 16.8573C18.7428 17.087 18.9029 17.3166 19.1359 17.1874C19.4125 17.0439 19.6454 16.8143 19.791 16.5416C19.9366 16.2689 20.0093 15.9532 19.9657 15.6519C19.9366 15.3505 19.8201 15.0491 19.6163 14.8051C19.4125 14.5612 19.1504 14.389 18.8447 14.3029C18.539 14.2168 18.2187 14.2168 17.9275 14.3029C17.6218 14.389 17.3598 14.5612 17.156 14.8051C16.9522 15.0491 16.8357 15.3361 16.8066 15.6375C16.7775 15.9389 16.8357 16.2546 16.9813 16.5273C17.0832 16.7282 17.3307 16.6277 17.5927 16.5273C17.7965 16.4555 18.0003 16.3838 18.1605 16.4412ZM10.6776 16.4412C10.5029 16.4986 10.3719 16.6851 10.2555 16.8573C10.0953 17.087 9.93519 17.3166 9.70226 17.1874C9.42566 17.0439 9.19273 16.8143 9.04715 16.5416C8.90157 16.2689 8.82878 15.9532 8.87245 15.6519C8.90157 15.3505 9.01803 15.0491 9.22184 14.8051C9.42566 14.5612 9.6877 14.389 9.99342 14.3029C10.2991 14.2168 10.6194 14.2168 10.9106 14.3029C11.2163 14.389 11.4783 14.5612 11.6822 14.8051C11.886 15.0491 12.0024 15.3361 12.0315 15.6375C12.0607 15.9389 12.0024 16.2546 11.8568 16.5273C11.7404 16.7282 11.5075 16.6277 11.2454 16.5273C11.0562 16.4555 10.8378 16.3838 10.6776 16.4412ZM17.0104 23.1431C18.1896 22.2246 18.6263 20.7178 18.6263 19.7993C18.6263 19.0674 18.1314 19.297 17.3307 19.6845C17.3161 19.6988 17.3016 19.6988 17.287 19.7132C16.5591 20.072 15.5691 20.5456 14.5064 20.5456C13.4291 20.5456 12.4537 20.072 11.7258 19.7132C10.896 19.3114 10.3865 19.053 10.3865 19.7993C10.3865 20.7608 10.8523 22.3251 12.1189 23.2292C12.2936 22.8991 12.5265 22.5977 12.8177 22.3538C13.1088 22.1098 13.4437 21.9376 13.8076 21.8228C13.9386 21.7797 14.0697 21.995 14.2007 22.2246C14.3317 22.4399 14.4627 22.6552 14.5938 22.6552C14.7393 22.6552 14.8704 22.4399 15.0159 22.2246C15.1615 22.0094 15.2925 21.7941 15.4381 21.8371C15.4818 21.8515 15.5109 21.8658 15.5546 21.8802C16.166 22.1098 16.6901 22.5547 17.0104 23.1431Z" fill="#8A8A8A"/>
<path d="M7.85343 17.7334C7.67873 17.8482 7.48948 17.9056 7.28566 17.9056C7.15464 17.9056 7.00906 17.8769 6.8926 17.8339C6.76157 17.7765 6.65967 17.7047 6.55776 17.6186C6.45586 17.5182 6.38307 17.4177 6.33939 17.2886C6.29572 17.1594 6.2666 17.0302 6.2666 16.9011C6.2666 16.7002 6.32483 16.4992 6.4413 16.3414C6.55776 16.1692 6.7179 16.04 6.90715 15.9683C7.09641 15.8965 7.30022 15.8678 7.50403 15.9109C7.70785 15.9539 7.88254 16.04 8.02812 16.1835C8.1737 16.327 8.27561 16.5136 8.30473 16.7002C8.3484 16.9011 8.31928 17.102 8.24649 17.2886C8.14459 17.4608 8.01356 17.633 7.85343 17.7334ZM22.6153 17.7334C22.4406 17.8482 22.2513 17.9056 22.0475 17.9056C21.9165 17.9056 21.7709 17.8769 21.6544 17.8339C21.5234 17.7765 21.4215 17.7047 21.3196 17.6186C21.2177 17.5182 21.1449 17.4177 21.1012 17.2886C21.0576 17.1594 21.0284 17.0302 21.0284 16.9011C21.0284 16.7002 21.0867 16.4992 21.2031 16.3414C21.3196 16.1692 21.4797 16.04 21.669 15.9683C21.8583 15.8965 22.0621 15.8678 22.2659 15.9109C22.4697 15.9539 22.6444 16.04 22.79 16.1835C22.9355 16.327 23.0375 16.5136 23.0666 16.7002C23.1102 16.9011 23.0811 17.102 23.0083 17.2886C22.9064 17.4608 22.7754 17.633 22.6153 17.7334Z" fill="#8A8A8A"/>
</g>
<defs>
<clipPath id="clip0_3567_2871">
<rect width="124.982" height="40" fill="white" transform="translate(0.675293)"/>
</clipPath>
</defs>
</svg>
