<svg width="93" height="40" viewBox="0 0 93 40" fill="none" xmlns="http://www.w3.org/2000/svg">
<g clip-path="url(#clip0_3567_2932)">
<path d="M26.62 8.78906H19.8961V15.7161C19.8961 17.6702 18.3832 19.2811 16.4711 19.4422C16.9124 18.3006 17.1505 17.0609 17.1645 15.7721V15.0157H10.4406V15.7091C10.4406 17.6982 8.87871 19.3302 6.92458 19.4492V8.78906H0.200684V31.2091H6.92458V26.1872H16.1629C17.4797 26.1872 18.7404 25.942 19.9101 25.4937V31.2091H26.634V15.7161V15.0227V8.78906H26.62ZM6.69345 24.7933H5.53077V29.8153H1.58749V10.1759H5.53077V20.8501H6.69345C9.29195 20.8501 11.4422 18.9169 11.7784 16.4095H15.7427C15.3855 21.0882 11.4492 24.7933 6.69345 24.7933ZM25.2262 29.8153H21.2829V24.8284C22.9219 23.9038 24.2876 22.545 25.2262 20.9131V29.8153ZM25.2262 15.7161V15.7721C25.1982 20.745 21.1218 24.7933 16.1489 24.7933H11.8905C13.5224 23.8548 14.8742 22.489 15.8057 20.8501H16.1489C18.9786 20.8501 21.2829 18.5457 21.2829 15.7161V10.1759H25.2262V15.7161Z" fill="#8A8A8A"/>
<path d="M52.2059 19.9663L49.4463 15.5117H47.3101L51.2604 21.6543V24.4769H53.1024V21.6543L57.0527 15.5117H54.9165L52.2059 19.9663Z" fill="#8A8A8A"/>
<path d="M63.7834 15.5117H58.6494V24.4769H63.7834C67.6426 24.4769 69.0364 22.3407 69.0364 19.9663C69.0364 17.5919 67.8247 15.5117 63.7834 15.5117ZM63.7414 22.88H60.4985V17.1156H63.7414C66.3959 17.1156 67.1593 18.4534 67.1593 19.9733C67.1664 21.4862 66.3959 22.88 63.7414 22.88Z" fill="#8A8A8A"/>
<path d="M80.6422 18.2293C80.6422 16.3452 79.2764 15.5117 77.2032 15.5117H71.1167V24.4769H72.9658V21.087L76.3557 21.094C77.8126 21.094 78.604 21.3671 78.604 22.3897L78.611 24.4699H80.4531V22.3337C80.4531 21.0659 79.7807 20.6807 78.3869 20.5687C79.6687 20.3655 80.6422 19.7422 80.6422 18.2293ZM77.2032 19.7142H72.9658V17.1086H77.2032C78.1488 17.1086 78.8072 17.5149 78.8002 18.3344C78.7931 19.1959 78.1418 19.7142 77.2032 19.7142Z" fill="#8A8A8A"/>
<path d="M88.2347 15.5117H86.2316L82.0151 24.4769H84.0043L84.9288 22.4387H89.5375L90.469 24.4769H92.4792L88.2347 15.5117ZM85.5592 21.0659L87.2332 17.3748L88.9141 21.0659H85.5592Z" fill="#8A8A8A"/>
<path d="M43.864 19.3079H37.2802V15.5117H35.4312V24.4769H37.2802V20.6807H43.864V24.4769H45.7131V15.5117H43.864V19.3079Z" fill="#8A8A8A"/>
</g>
<defs>
<clipPath id="clip0_3567_2932">
<rect width="92.2784" height="40" fill="white" transform="translate(0.200684)"/>
</clipPath>
</defs>
</svg>
