<svg width="113" height="40" viewBox="0 0 113 40" fill="none" xmlns="http://www.w3.org/2000/svg">
<g clip-path="url(#clip0_3567_2753)">
<path d="M2.42024 25.7874C2.00638 25.7883 1.59969 25.6821 1.24173 25.4796C0.88377 25.2771 0.587363 24.9857 0.382792 24.635C0.181352 24.2868 0.0808885 23.8917 0.0921632 23.492C0.103438 23.0924 0.226026 22.7033 0.446796 22.3664L4.6426 15.9438C4.85735 15.5986 5.16224 15.3151 5.52613 15.1224C5.89003 14.9297 6.29988 14.8346 6.71383 14.8467C7.12747 14.8564 7.53104 14.973 7.88326 15.1847C8.23547 15.3963 8.52368 15.6953 8.71839 16.0512C9.10953 16.7722 9.06064 17.6395 8.59216 18.3163L4.39903 24.739C4.18639 25.0619 3.89355 25.3274 3.54764 25.5107C3.20173 25.694 2.81395 25.7892 2.42024 25.7874Z" fill="#8A8A8A"/>
<path d="M9.61718 25.7872C8.77091 25.7872 7.99219 25.3461 7.58328 24.6373C7.38229 24.29 7.28206 23.896 7.29334 23.4974C7.30461 23.0988 7.42697 22.7108 7.64729 22.3748L11.8351 15.9669C12.0467 15.6168 12.3505 15.3284 12.715 15.1313C13.0795 14.9343 13.4914 14.836 13.9081 14.8465C14.7615 14.8647 15.5349 15.33 15.926 16.0579C16.3145 16.7857 16.2576 17.6583 15.7749 18.3333L11.588 24.7413C11.376 25.0629 11.0843 25.3273 10.7399 25.5101C10.3955 25.6929 10.0093 25.7882 9.61718 25.7872Z" fill="#8A8A8A"/>
<path d="M16.6533 25.8417C17.8463 25.8417 18.8134 24.9187 18.8134 23.7802C18.8134 22.6417 17.8463 21.7188 16.6533 21.7188C15.4603 21.7188 14.4932 22.6417 14.4932 23.7802C14.4932 24.9187 15.4603 25.8417 16.6533 25.8417Z" fill="#8A8A8A"/>
<path d="M110.496 21.8394C111.148 21.8394 111.538 22.2917 111.538 23.0326V25.5715H112.425V22.9745C112.425 21.7146 111.816 20.9841 110.671 20.9841C110.223 20.9841 109.512 21.1037 109.088 21.907C108.989 21.6701 108.826 21.4636 108.617 21.3095C108.408 21.1554 108.16 21.0594 107.899 21.0318C107.735 21.0025 107.568 20.9929 107.401 21.0032C107.037 21.0318 106.388 21.2528 106.145 21.7536V21.0803H105.258V25.5715H106.145V23.1478C106.145 22.2051 106.778 21.8394 107.412 21.8394C108.006 21.8394 108.396 22.2822 108.396 23.0231V25.5715H109.278V23.1478C109.278 22.3974 109.74 21.8307 110.496 21.8394ZM102.002 24.8211C102.407 24.8298 102.798 24.6721 103.082 24.3861C103.366 24.1002 103.517 23.7111 103.502 23.3116C103.502 22.407 102.82 21.8394 102.002 21.8394C101.183 21.8394 100.501 22.407 100.501 23.3116C100.485 23.7102 100.636 24.0984 100.919 24.3835C101.202 24.6695 101.591 24.828 101.995 24.8211H102.002ZM102.002 25.6634C100.706 25.6634 99.6238 24.7301 99.6238 23.3064C99.6238 21.8827 100.706 20.9789 102.002 20.9789C103.298 20.9789 104.389 21.8827 104.389 23.3064C104.389 24.7301 103.292 25.6677 101.996 25.6677L102.002 25.6634ZM95.0591 23.3064L95.0502 23.3116C95.0502 21.8879 96.1605 20.9841 97.4655 20.9789C97.7933 20.9728 98.1188 21.0337 98.421 21.1579C98.7231 21.2821 98.9951 21.4668 99.2194 21.6999L98.5473 22.2579C98.4046 22.1213 98.2355 22.0136 98.0498 21.941C97.8641 21.8684 97.6655 21.8324 97.4655 21.8351C96.6477 21.8351 95.9365 22.4026 95.9365 23.3064C95.9365 23.9173 96.309 24.4676 96.8806 24.7015C97.4522 24.9355 98.11 24.8055 98.5473 24.374L99.2292 24.932C99.0041 25.1676 98.7309 25.3544 98.427 25.4804C98.1232 25.6063 97.7956 25.6687 97.4655 25.6634C96.1703 25.6634 95.0591 24.7301 95.0591 23.3064ZM92.2207 24.7093C92.2198 24.6308 92.2347 24.5529 92.2647 24.48C92.2947 24.4071 92.3391 24.3407 92.3954 24.2845C92.4517 24.2283 92.5187 24.1835 92.5928 24.1526C92.6669 24.1218 92.7465 24.1054 92.827 24.1045C92.9076 24.1054 92.9871 24.1218 93.0612 24.1526C93.1353 24.1835 93.2024 24.2283 93.2586 24.2845C93.3149 24.3407 93.3593 24.4071 93.3893 24.48C93.4193 24.5529 93.4342 24.6308 93.4333 24.7093C93.4253 24.8614 93.3582 25.0048 93.2456 25.1103C93.1329 25.2157 92.9832 25.2753 92.827 25.2769C92.6708 25.2753 92.5211 25.2157 92.4085 25.1103C92.2958 25.0048 92.2287 24.8614 92.2207 24.7093Z" fill="#8A8A8A"/>
<path fill-rule="evenodd" clip-rule="evenodd" d="M94.6456 15.3695H91.4889L89.2764 20.9299L87.0753 15.3695H83.9187L87.7563 24.156L85.3695 29.9652H88.503L94.6456 15.3695ZM75.448 20.2566C75.448 21.6604 76.7067 22.5841 77.9432 22.5841C79.1584 22.5841 80.3523 21.7245 80.3523 20.2558C80.3523 18.787 79.1584 17.9266 77.9432 17.9266C76.7067 17.9266 75.448 18.852 75.448 20.2566ZM80.3523 25.1629V24.0511C79.7122 24.9957 78.2188 25.3527 77.4525 25.3527C74.9155 25.3527 72.3776 23.403 72.3776 20.2558C72.3776 17.1094 74.9146 15.1598 77.4525 15.1598C78.0917 15.1598 79.5851 15.3677 80.3523 16.4595V15.3729H83.2947V25.1646L80.3523 25.1629ZM71.5402 25.1629H68.5978V23.9463C68.1062 24.8475 66.9141 25.3726 65.6767 25.3726C63.1175 25.3726 60.8569 23.3805 60.8569 20.2956C60.8569 17.1528 63.1175 15.158 65.6767 15.158C66.9124 15.158 68.108 15.6606 68.5978 16.5627V10.0352H71.5402V25.1629ZM68.5338 20.2341C68.5338 18.7662 67.4466 17.9058 66.2314 17.9058C64.9727 17.9058 63.9273 18.8286 63.9273 20.2341C63.9273 21.6847 64.9727 22.6032 66.2306 22.6032C67.4688 22.6049 68.5338 21.6396 68.5338 20.2341ZM53.5818 19.9811C53.5818 18.4924 54.3712 17.989 55.4157 17.989C56.4175 17.989 57.1429 18.6389 57.1429 19.9386V25.1612H60.1066V19.3104C60.1066 16.5219 58.6986 15.158 56.4593 15.158C55.2868 15.158 54.1143 15.8079 53.5809 16.794V15.3695H50.619V25.1612H53.5818V19.9811ZM44.6008 25.3293C41.7865 25.3293 39.4388 23.3163 39.4388 20.2333C39.4388 17.1484 41.7838 15.1554 44.6008 15.1554C47.4179 15.1554 49.7834 17.1484 49.7834 20.2333C49.7834 23.3181 47.4152 25.3293 44.6008 25.3293ZM44.6008 22.4784C45.8365 22.4784 46.8614 21.5963 46.8614 20.2341C46.8614 18.9127 45.8374 18.0106 44.6008 18.0106C44.3031 18.0061 44.0075 18.0607 43.7321 18.1711C43.4568 18.2814 43.2073 18.4453 42.999 18.6527C42.7894 18.8612 42.625 19.1087 42.5155 19.3803C42.406 19.652 42.3537 19.9423 42.3616 20.2341C42.3625 21.598 43.3857 22.4784 44.6008 22.4784ZM34.1256 17.9898C34.9994 17.9898 35.7674 18.6614 35.7674 19.9395V25.1629H38.7098V19.6016C38.7098 16.645 37.2351 15.1563 34.8714 15.1563C34.1691 15.1563 32.8464 15.3643 31.8863 16.8963C31.3316 15.7637 30.2658 15.1762 28.6906 15.1762C28.1437 15.1735 27.6075 15.3244 27.1463 15.6108C26.685 15.8973 26.3182 16.3071 26.0895 16.7914V15.3703H23.124V25.162H26.0869V19.9811C26.0869 18.4924 26.9189 17.989 27.8141 17.989C28.6675 17.989 29.4337 18.6389 29.456 19.8762V25.162H32.4197V19.9811C32.4197 18.5574 33.1877 17.9898 34.1256 17.9898Z" fill="#8A8A8A"/>
</g>
<defs>
<clipPath id="clip0_3567_2753">
<rect width="112.333" height="40" fill="white" transform="translate(0.0913086)"/>
</clipPath>
</defs>
</svg>
