<svg width="131" height="40" viewBox="0 0 131 40" fill="none" xmlns="http://www.w3.org/2000/svg">
<g clip-path="url(#clip0_3567_2794)">
<path d="M1.41143 24.5582C1.41143 24.5582 10.3039 30.9153 10.8445 31.2322C11.3665 31.5492 12.1308 31.6237 12.8019 31.3627C13.4731 31.1017 13.9764 30.5052 14.1256 29.9086C14.2933 29.3121 16.3254 18.574 16.3254 18.574C16.344 18.4249 16.3999 17.9961 16.1762 17.586C15.8593 17.0267 15.1509 16.7284 14.517 16.9149C14.0137 17.064 13.7527 17.4368 13.6781 17.5673C13.5663 17.7724 13.3612 18.108 12.9884 18.4063C12.7087 18.63 12.4291 18.7605 12.2986 18.8164C11.1614 19.2824 9.89373 18.891 9.16667 17.9588C8.71925 17.3809 7.91763 17.1572 7.20922 17.4368C6.50081 17.7165 6.09067 18.4435 6.1466 19.1706C6.2771 20.3264 5.62461 21.4823 4.46878 21.9483C3.85358 22.1907 3.2011 22.1907 2.62318 22.0042C2.49269 21.967 2.02663 21.8551 1.56056 22.1161C0.98265 22.4144 0.684371 23.1228 0.833511 23.7566C0.945365 24.1854 1.28093 24.465 1.41143 24.5582Z" fill="#8A8A8A"/>
<path d="M16.2296 10.6307C16.2296 10.6307 19.3988 21.1077 19.6225 21.667C19.8462 22.2449 20.4055 22.7669 21.0953 22.9719C21.785 23.1584 22.5494 23.0092 23.0341 22.6364C23.5188 22.2635 31.7028 15.0116 31.7028 15.0116C31.8146 14.9184 32.1129 14.6015 32.1875 14.1354C32.2807 13.5016 31.8892 12.8305 31.2927 12.5881C30.808 12.4017 30.3605 12.5322 30.23 12.5881C30.025 12.6813 29.6521 12.8118 29.1861 12.8305C28.8132 12.8491 28.5336 12.7745 28.3844 12.7372C27.21 12.4017 26.427 11.3204 26.427 10.146C26.4083 9.4189 25.9236 8.74777 25.1966 8.5427C24.4509 8.33764 23.6866 8.65456 23.2951 9.26976C22.6799 10.2764 21.4681 10.7798 20.275 10.4442C19.6412 10.2578 19.1192 9.86631 18.7836 9.36297C18.6904 9.25111 18.3921 8.87827 17.8701 8.78505C17.2363 8.6732 16.5465 9.04605 16.2855 9.62396C16.0805 10.0714 16.1923 10.4815 16.2296 10.6307Z" fill="#8A8A8A"/>
<path d="M72.2905 17.5474C71.8431 17.2864 71.3025 17.1373 70.6873 17.1373C70.0162 17.1373 69.4569 17.2864 69.0095 17.5847C68.5621 17.883 68.2451 18.2931 68.0401 18.8151H67.9282V14.3223H65.542V26.1043H67.9841V20.9962C67.9841 20.6234 68.0587 20.2878 68.2079 20.0268C68.357 19.7472 68.5621 19.5421 68.8044 19.4116C69.0654 19.2625 69.3637 19.2066 69.6993 19.2066C70.2026 19.2066 70.5941 19.3557 70.8551 19.654C71.1347 19.9523 71.2652 20.3811 71.2652 20.9217V26.1043H73.7074V20.4743C73.7074 19.7845 73.5769 19.1879 73.3345 18.7032C73.1108 18.1999 72.7566 17.827 72.2905 17.5474Z" fill="#8A8A8A"/>
<path d="M56.0533 17.7322C55.4008 17.3407 54.6365 17.1543 53.7416 17.1543C52.8468 17.1543 52.0825 17.3407 51.43 17.7322C50.7775 18.1051 50.2741 18.6457 49.9199 19.3355C49.5657 20.0252 49.3979 20.8082 49.3979 21.7217C49.3979 22.6352 49.5657 23.4181 49.9199 24.1079C50.2741 24.7977 50.7775 25.3197 51.43 25.7112C52.0825 26.084 52.8468 26.2891 53.7416 26.2891C54.6365 26.2891 55.4008 26.1027 56.0533 25.7112C56.7058 25.3197 57.2091 24.7977 57.5633 24.1079C57.9175 23.4181 58.0853 22.6352 58.0853 21.7217C58.0853 20.8082 57.9175 20.0066 57.5633 19.3355C57.2091 18.6457 56.7058 18.1051 56.0533 17.7322ZM55.4008 23.0826C55.2703 23.4927 55.0652 23.8096 54.7856 24.0333C54.506 24.2571 54.1704 24.3876 53.7603 24.3876C53.3501 24.3876 52.9959 24.2757 52.7163 24.0333C52.4367 23.791 52.2316 23.4741 52.0825 23.0826C51.952 22.6725 51.8774 22.225 51.8774 21.703C51.8774 21.1811 51.952 20.7336 52.0825 20.3235C52.2316 19.9134 52.4367 19.5965 52.7163 19.3727C52.9959 19.1304 53.3501 19.0185 53.7603 19.0185C54.1704 19.0185 54.506 19.1304 54.7856 19.3727C55.0652 19.6151 55.2703 19.932 55.4008 20.3235C55.5499 20.7336 55.6059 21.1811 55.6059 21.703C55.6059 22.225 55.5313 22.6725 55.4008 23.0826Z" fill="#8A8A8A"/>
<path d="M82.0751 18.2728C81.7022 17.9 81.2548 17.6204 80.7514 17.4339C80.2481 17.2475 79.7075 17.1543 79.1296 17.1543C78.272 17.1543 77.5077 17.3407 76.8552 17.7322C76.2213 18.1237 75.718 18.6457 75.3638 19.3355C75.0096 20.0252 74.8418 20.8269 74.8418 21.7217C74.8418 22.6538 75.0096 23.4554 75.3638 24.1452C75.718 24.8163 76.2213 25.357 76.8738 25.7298C77.5263 26.1027 78.3093 26.2891 79.2228 26.2891C79.9498 26.2891 80.6023 26.1772 81.1429 25.9535C81.7022 25.7298 82.1496 25.4129 82.5038 25.0028C82.858 24.5926 83.1004 23.9774 83.2122 23.4181H80.9379C80.8447 23.6419 80.7328 23.8283 80.565 23.9774C80.3972 24.1266 80.2108 24.2384 79.9871 24.3316C79.7634 24.4062 79.521 24.4435 79.2414 24.4435C78.8313 24.4435 78.4771 24.3503 78.1788 24.1825C77.8805 24.0147 77.6568 23.7724 77.489 23.4554C77.3212 23.1385 77.2467 22.7657 77.2467 22.3182H83.2682V21.6285C83.2682 20.8828 83.1563 20.2303 82.9512 19.6524C82.7462 19.1118 82.4479 18.6457 82.0751 18.2728ZM77.2653 20.7709C77.284 20.454 77.3585 20.1744 77.5077 19.9134C77.6754 19.6337 77.8992 19.3914 78.1788 19.2236C78.4584 19.0558 78.794 18.9626 79.1668 18.9626C79.521 18.9626 79.838 19.0372 80.099 19.205C80.3786 19.3541 80.5837 19.5778 80.7328 19.8388C80.8819 20.1184 80.9565 20.4167 80.9565 20.7709H77.2653Z" fill="#8A8A8A"/>
<path d="M41.8643 22.2453H41.7338L38.4901 14.3223H35.4141V26.1043H37.8376V18.405H37.9308L40.9695 26.0483H42.6287L45.6674 18.4422H45.7606V26.1043H48.1841V14.3223H45.1081L41.8643 22.2453Z" fill="#8A8A8A"/>
<path d="M126.706 21.0895L129.987 17.2678H127.172L124.339 20.6234H124.208V14.3223H121.766V26.1043H124.208V23.2893L124.879 22.5436L127.284 26.1043H130.155L126.706 21.0895Z" fill="#8A8A8A"/>
<path d="M108.66 22.3383C108.66 22.7298 108.586 23.0654 108.418 23.3264C108.269 23.5874 108.045 23.7924 107.803 23.9416C107.542 24.0721 107.262 24.1466 106.983 24.1466C106.517 24.1466 106.144 23.9975 105.864 23.6992C105.584 23.4009 105.454 22.9908 105.435 22.4688V17.2676H102.993V22.8976C102.993 23.5874 103.124 24.1839 103.366 24.6686C103.627 25.172 103.963 25.5448 104.41 25.8058C104.857 26.0668 105.379 26.2159 105.976 26.2159C106.647 26.2159 107.206 26.0668 107.654 25.7499C108.12 25.433 108.455 25.0228 108.642 24.5008H108.735V26.1041H111.084V17.2676H108.66V22.3383Z" fill="#8A8A8A"/>
<path d="M115.613 19.3738C115.892 19.1687 116.228 19.0569 116.601 19.0569C117.048 19.0569 117.402 19.1874 117.682 19.467C117.962 19.728 118.129 20.0822 118.204 20.5296H120.516C120.478 19.8399 120.292 19.262 119.956 18.74C119.621 18.218 119.155 17.8451 118.577 17.5655C117.999 17.2859 117.328 17.1367 116.545 17.1367C115.65 17.1367 114.886 17.3231 114.233 17.7146C113.581 18.1061 113.077 18.6281 112.723 19.3179C112.369 20.0077 112.201 20.7906 112.201 21.7041C112.201 22.5989 112.369 23.3819 112.723 24.0717C113.077 24.7615 113.562 25.3021 114.215 25.6749C114.867 26.0664 115.65 26.2529 116.545 26.2529C117.328 26.2529 118.018 26.1037 118.596 25.8241C119.173 25.5445 119.621 25.1343 119.938 24.631C120.273 24.109 120.46 23.5311 120.497 22.8413H118.185C118.148 23.1582 118.036 23.4192 117.887 23.6429C117.738 23.8666 117.552 24.0344 117.328 24.1463C117.104 24.2581 116.862 24.314 116.582 24.314C116.209 24.314 115.874 24.2022 115.594 23.9971C115.314 23.7921 115.091 23.4938 114.942 23.1023C114.792 22.7108 114.718 22.2261 114.718 21.6668C114.718 21.1076 114.792 20.6415 114.96 20.25C115.109 19.8772 115.333 19.5789 115.613 19.3738Z" fill="#8A8A8A"/>
<path d="M99.0425 15.0307C98.185 14.5646 97.1596 14.3223 95.9852 14.3223H91.772V26.1043H95.9479C97.141 26.1043 98.1663 25.8619 99.0239 25.3959C99.8814 24.9298 100.553 24.24 101 23.3638C101.466 22.4876 101.69 21.425 101.69 20.1946C101.69 18.9642 101.466 17.9203 101 17.0441C100.553 16.1679 99.9001 15.4967 99.0425 15.0307ZM98.8375 22.3571C98.5765 22.9164 98.2036 23.3266 97.7003 23.5875C97.1969 23.8485 96.5817 23.979 95.836 23.979H94.2514V16.4661H95.836C96.5631 16.4661 97.1969 16.5966 97.7003 16.8576C98.2036 17.1186 98.5765 17.5288 98.8375 18.0694C99.0984 18.6287 99.2289 19.3371 99.2289 20.1946C99.2289 21.0708 99.0984 21.7979 98.8375 22.3571Z" fill="#8A8A8A"/>
<path d="M63.4896 24.0918H63.154C62.7439 24.0918 62.4083 23.7563 62.4083 23.3461V19.1143H64.0675V17.2687H62.4083V15.1621H59.9662V17.2873H58.7544V19.1329H59.9662V23.8122C59.9662 25.0799 60.9915 26.1052 62.2592 26.1052H64.198V24.0732H63.4896C63.4896 24.0918 63.4896 24.0918 63.4896 24.0918Z" fill="#8A8A8A"/>
<path d="M89.0885 17.1543C88.5851 17.1543 88.1564 17.3034 87.7835 17.5831C87.4107 17.8627 87.131 18.2728 86.9819 18.8321H86.8887V17.2848H84.5024V26.1213H86.9446V21.1251C86.9446 20.7709 87.0192 20.454 87.187 20.1744C87.3547 19.8947 87.5784 19.6897 87.8581 19.5219C88.1377 19.3727 88.4546 19.2982 88.8275 19.2982C88.9953 19.2982 89.1817 19.3168 89.3868 19.3355C89.5918 19.3541 89.741 19.3914 89.8715 19.4287V17.2289C89.7596 17.2102 89.6477 17.1729 89.4986 17.1729C89.3495 17.1543 89.219 17.1543 89.0885 17.1543Z" fill="#8A8A8A"/>
</g>
<defs>
<clipPath id="clip0_3567_2794">
<rect width="129.36" height="40" fill="white" transform="translate(0.79541)"/>
</clipPath>
</defs>
</svg>
