<svg width="75" height="40" viewBox="0 0 75 40" fill="none" xmlns="http://www.w3.org/2000/svg">
<g clip-path="url(#clip0_3567_2762)">
<path d="M24.4242 14.9328H27.3113V15.4718C27.8527 14.9751 28.8292 14.7109 29.6253 14.7109C32.7779 14.7109 34.7309 16.8771 34.7309 19.9308C34.7309 23.0691 32.693 25.4149 29.5404 25.4149C28.5427 25.4149 27.6298 25.2564 27.3113 24.8971V29.2294H24.4136V14.9328H24.4242ZM27.3113 18.5678V21.8645C27.6298 22.34 28.3304 22.7415 29.1477 22.7415C30.7611 22.7415 31.7376 21.7272 31.7376 20.1633C31.7376 18.3353 30.8248 17.4054 29.3069 17.4054C28.4683 17.3737 27.6935 17.8281 27.3113 18.5678Z" fill="#8A8A8A"/>
<path d="M41.3125 14.7207C44.6242 14.7207 46.9594 16.9607 46.9594 20.0779C46.9594 23.1739 44.6242 25.414 41.3125 25.414C38.0963 25.414 35.708 23.1739 35.708 20.0674C35.708 16.9607 38.0007 14.7207 41.3125 14.7207ZM41.3125 22.7406C42.8834 22.7406 43.9661 21.7475 43.9661 20.0779C43.9661 18.3661 42.7666 17.394 41.3125 17.394C39.8583 17.394 38.7013 18.3661 38.7013 20.0779C38.7013 21.589 39.7521 22.7406 41.3125 22.7406Z" fill="#8A8A8A"/>
<path d="M48.0524 17.9126C48.0524 15.9261 49.7082 14.7109 52.5211 14.7109C54.4954 14.7109 56.1725 15.6303 56.8306 16.5812L54.8563 18.4621C54.177 17.7647 53.2429 17.3843 51.9479 17.3843C51.4066 17.3843 51.0457 17.5005 51.0457 17.8809C51.0457 18.779 56.9262 18.4938 56.9262 22.1498C56.9262 24.4111 54.8882 25.4043 52.5423 25.4043C50.0055 25.4043 48.3178 24.2526 47.5747 22.9L49.8674 21.3468C50.43 22.0653 51.587 22.7204 52.8608 22.7204C53.5614 22.7204 53.9329 22.5408 53.9329 22.1604C53.9329 21.1671 48.0524 21.4313 48.0524 17.9126Z" fill="#8A8A8A"/>
<path d="M59.9092 10.7695C60.8433 10.7695 61.5224 11.3824 61.5224 12.196C61.5224 13.0519 60.8433 13.6648 59.9092 13.6648C58.8901 13.6648 58.2744 13.0519 58.2744 12.196C58.2744 11.3824 58.9538 10.7695 59.9092 10.7695ZM58.4549 14.9327H61.3418V25.2563H58.4549V14.9327Z" fill="#8A8A8A"/>
<path d="M62.4559 14.9318H64.4198V12.5332H67.3072V14.9318H70.4806V17.6157H67.3072V20.9759C67.3072 22.2228 67.5826 22.6983 68.3679 22.6983C69.048 22.6983 69.589 22.4552 70.1406 22.022L71.3403 24.0614C70.6187 24.8116 69.504 25.3716 68.0926 25.3716C65.9162 25.3716 64.4198 24.1987 64.4198 21.8213V17.6157H62.4453L62.4559 14.9318Z" fill="#8A8A8A"/>
<path d="M71.9238 14.9551H73.1661V15.251H72.6986V16.3816H72.3807V15.251H71.9238V14.9551Z" fill="#8A8A8A"/>
<path d="M73.3257 14.9551H73.6223L74.0792 15.6419L74.5139 14.9551H74.8008V16.3816H74.4821V15.5257L74.1111 16.0963H74.0261L73.6436 15.5257V16.3816H73.3257V14.9551Z" fill="#8A8A8A"/>
<path d="M4.23522 18.0815L5.1056 17.7011L9.00113 15.9893L9.85026 15.6089L19.276 11.4668V16.4648L15.4654 18.0815L14.6056 17.7011L18.5861 16.0105V12.5235L10.6995 15.9893L9.85026 16.3591L5.96535 18.0709L5.1056 18.4513L2.35643 19.6559V20.554L5.06319 21.748L5.92294 22.1285L9.91401 23.8825L10.7631 24.2524L18.5861 27.6971V24.1678L14.648 22.4983L15.5079 22.1179L19.276 23.7134V28.7431L9.91401 24.6328L9.07541 24.2629L5.06319 22.4983L4.19272 22.1179L1.6665 20.9978V19.2121L4.23522 18.0815Z" fill="#8A8A8A"/>
<path d="M10.7317 20.0886L14.5954 18.4507L13.7356 18.0703L8.96973 20.0886L13.7781 22.1279L14.6379 21.7475L10.7317 20.0886Z" fill="#8A8A8A"/>
<path d="M5.06299 21.7488L5.92283 22.1293L9.85015 20.4597L8.97977 20.0898L5.06299 21.7488Z" fill="#8A8A8A"/>
<path d="M5.96571 18.0703L5.10596 18.4507L8.98024 20.0886L9.85061 19.7187L5.96571 18.0703Z" fill="#8A8A8A"/>
<path d="M15.4656 18.0815L14.6058 17.7011L10.6997 15.9893L9.85055 15.6089L0.424805 11.4668V16.4648L4.23542 18.0815L5.1058 17.7011L1.11473 16.0105V12.5235L9.00133 15.9893L9.85055 16.3591L13.7355 18.0709L14.5952 18.4513L17.355 19.6559V20.554L14.6482 21.748L13.7779 22.1285L9.79742 23.8825L8.94829 24.2524L1.11473 27.6971V24.1678L5.06339 22.4983L4.19292 22.1179L0.424805 23.7134V28.7431L9.78679 24.6328L10.636 24.2629L14.6482 22.4983L15.5081 22.1179L18.0343 20.9978V19.2121L15.4656 18.0815Z" fill="#8A8A8A"/>
</g>
<defs>
<clipPath id="clip0_3567_2762">
<rect width="74.376" height="40" fill="white" transform="translate(0.424805)"/>
</clipPath>
</defs>
</svg>
