<svg width="48" height="40" viewBox="0 0 48 40" fill="none" xmlns="http://www.w3.org/2000/svg">
<g clip-path="url(#clip0_3567_2837)">
<path fill-rule="evenodd" clip-rule="evenodd" d="M13.1294 16.8574V29.4277L9.99323 27.8573V16.8574H13.1294ZM3.72353 16.8574V24.7141L0.587402 23.1438V16.8574H3.72353Z" fill="#8A8A8A"/>
<path fill-rule="evenodd" clip-rule="evenodd" d="M14.6984 15.2858L17.8345 16.8561V23.1399H14.6984V15.2858ZM5.29004 10.5723L8.42616 12.1426V23.1425H5.29004V10.5723Z" fill="#8A8A8A"/>
<path fill-rule="evenodd" clip-rule="evenodd" d="M28.117 12.1406C31.0952 12.1406 33.5103 14.5612 33.5103 17.5461V17.7351C33.5103 19.696 32.4683 21.4119 30.9092 22.3592C30.9525 22.4358 30.9933 22.515 31.034 22.5941L31.057 22.6426L33.5103 27.8515H30.0608L28.2265 23.9959C27.9794 23.4801 27.4648 23.1482 26.8941 23.138H26.8687H25.6713V26.2812L22.5352 27.8515V12.1406H28.117ZM38.2132 19.9973V27.8541H35.0771V21.5677L38.2132 19.9973ZM39.7826 12.1406L42.9187 13.7109V27.8515H39.7826V12.1406ZM44.4855 14.4974L47.6216 16.0677V27.8515H44.4855V14.4974ZM28.0227 15.2838H25.6713V19.9973H28.0227C29.322 19.9973 30.3742 18.9428 30.3742 17.6406C30.3742 16.3384 29.322 15.2838 28.0227 15.2838ZM36.6464 15.2838C37.5126 15.2838 38.2132 15.9886 38.2132 16.8541C38.2132 17.7197 37.5101 18.4245 36.6464 18.4245C35.7803 18.4245 35.0797 17.7197 35.0797 16.8541C35.0797 15.9886 35.7803 15.2838 36.6464 15.2838Z" fill="#8A8A8A"/>
</g>
<defs>
<clipPath id="clip0_3567_2837">
<rect width="47.034" height="40" fill="white" transform="translate(0.587402)"/>
</clipPath>
</defs>
</svg>
