<svg width="88" height="40" viewBox="0 0 88 40" fill="none" xmlns="http://www.w3.org/2000/svg">
<g clip-path="url(#clip0_3567_2846)">
<mask id="mask0_3567_2846" style="mask-type:luminance" maskUnits="userSpaceOnUse" x="0" y="11" width="88" height="18">
<path d="M87.9395 11.0449H0.621582V28.9563H87.9395V11.0449Z" fill="white"/>
</mask>
<g mask="url(#mask0_3567_2846)">
<path fill-rule="evenodd" clip-rule="evenodd" d="M26.8917 18.6178L29.086 19.0794C31.5192 19.5814 32.7016 20.8309 32.7016 22.8995C32.7016 24.0083 32.2869 24.9524 31.5016 25.6303C30.6337 26.3803 29.3816 26.7606 27.7818 26.7606C22.9994 26.7606 22.2832 24.0259 22.2832 22.3981V21.9078H24.6506V22.2829C24.6506 23.7042 25.1754 24.5279 27.8587 24.5279C29.8881 24.5279 30.2964 23.9341 30.2964 22.9763C30.2964 21.7711 29.7918 21.4859 28.0572 21.1324L25.8617 20.6896C23.4806 20.2338 22.3216 19.0221 22.3216 16.9861C22.3216 15.2144 23.6258 13.1445 27.3 13.1445C29.0157 13.1445 30.3426 13.5938 31.2444 14.4793C32.0342 15.2567 32.4516 16.3369 32.4516 17.6046V17.9953H30.0842V17.6209C30.0842 16.2731 29.601 15.3759 27.242 15.3759C25.0263 15.3759 24.7274 16.1409 24.7274 16.8891C24.7274 17.9237 25.1116 18.2271 26.8917 18.6178ZM36.1108 17.9145C36.6844 16.9828 37.7776 16.4756 39.242 16.4756C41.9636 16.4756 43.5842 18.4016 43.5836 21.6245C43.5836 24.8385 42.0105 26.7566 39.3761 26.7566C38.0218 26.7566 36.9032 26.2618 36.284 25.4108V29.5063H33.897V16.6683H36.1108V17.9145ZM38.7413 24.662C40.5181 24.662 41.1784 23.841 41.1784 21.6272C41.1784 20.4656 40.9974 19.7051 40.6093 19.2337C40.2388 18.7831 39.6437 18.5735 38.7413 18.5735C37.0881 18.5735 36.2846 19.2884 36.2846 20.7605V22.4749C36.2846 23.9458 37.0881 24.662 38.7413 24.662ZM47.1863 16.6111H44.7804V26.5673H47.1863V16.6111ZM47.1673 15.2265H44.7823L44.7622 13.5388C44.7622 13.4868 44.78 13.4363 44.8127 13.3958C44.8454 13.3553 44.891 13.3272 44.9419 13.3162H47.1673V15.2265ZM56.3903 17.5846C55.5875 16.8593 54.4865 16.4778 53.2064 16.4778C51.7043 16.4778 50.4509 16.9713 49.5817 17.9044C48.7352 18.8159 48.286 20.1025 48.286 21.6294C48.286 23.1562 48.7228 24.437 49.5491 25.3452C50.4034 26.2841 51.6412 26.7777 53.1302 26.7777C55.7776 26.7777 57.6268 25.1264 57.6268 22.7623V22.4263H55.2398V22.705C55.2398 24.0072 54.5887 24.5646 53.0716 24.5646C51.3904 24.5646 50.6729 23.6856 50.6729 21.6261C50.6729 19.553 51.3892 18.6687 53.0716 18.6687C54.5913 18.6687 55.2398 19.2306 55.2398 20.5472V20.8259H57.6262V20.4899C57.6262 19.3199 57.1997 18.3139 56.3903 17.5846ZM65.4479 23.0244H67.8351V23.3624C67.8351 24.3775 67.4047 25.2369 66.5897 25.8477C65.7932 26.4434 64.6788 26.7592 63.3769 26.7592C60.323 26.7592 58.5716 24.8814 58.5716 21.6076C58.5716 18.4901 60.4501 16.4756 63.3573 16.4756C66.1241 16.4756 67.9118 18.1724 67.9118 20.7989C67.9118 21.4741 67.8116 22.124 67.7601 22.2718H60.8525C60.9667 23.9555 61.6658 24.5845 63.3954 24.5845C65.4479 24.5845 65.4479 23.6489 65.4479 23.3415V23.0244ZM63.3187 18.5539C61.7755 18.5539 61.0395 19.1556 60.8783 20.5593L65.6063 20.5607C65.6119 19.9258 65.4596 19.4537 65.1417 19.1282C64.774 18.7493 64.1605 18.5539 63.3187 18.5539ZM76.2289 13.3162L71.0681 26.5663H73.5388L74.857 23.1929H80.705L82.0232 26.5663H84.5711L79.4098 13.3162H76.2289ZM75.6954 21.052L76.9839 17.7964L77.7911 15.5176L78.5814 17.7964L79.8682 21.052H75.6954ZM85.4946 13.3173H87.8488V26.5674H85.4946V13.3173Z" fill="#8A8A8A"/>
<path d="M17.5246 15.3955H15.8692C15.6115 15.3956 15.3563 15.3445 15.1182 15.245C14.8801 15.1455 14.6637 14.9996 14.4815 14.8157C14.2993 14.6318 14.1548 14.4134 14.0562 14.1732C13.9577 13.9329 13.907 13.6754 13.907 13.4153V11.7442C13.907 11.6523 13.8891 11.5613 13.8542 11.4764C13.8193 11.3916 13.7682 11.3144 13.7038 11.2495C13.6394 11.1846 13.563 11.1331 13.4788 11.098C13.3947 11.0629 13.3045 11.0448 13.2135 11.0449H10.756C10.6671 11.0448 10.5791 11.0624 10.497 11.0967C10.415 11.131 10.3404 11.1813 10.2775 11.2447C10.2147 11.3081 10.1649 11.3834 10.1309 11.4662C10.0969 11.5491 10.0795 11.6379 10.0796 11.7275V14.2174C10.0795 14.308 10.0971 14.3977 10.1314 14.4814C10.1657 14.5651 10.216 14.6412 10.2795 14.7052C10.3429 14.7693 10.4182 14.8202 10.5012 14.8548C10.5841 14.8895 10.673 14.9074 10.7627 14.9074H12.4285C12.9489 14.9074 13.448 15.1159 13.8161 15.4872C14.184 15.8587 14.3907 16.3624 14.3907 16.8876V18.5637C14.3907 18.7479 14.4632 18.9247 14.5924 19.055C14.7215 19.1854 14.8967 19.2586 15.0793 19.2586H17.5325C17.7144 19.2584 17.8888 19.1854 18.0173 19.0556C18.1459 18.9257 18.2181 18.7497 18.2181 18.5661V16.0978C18.2183 16.0057 18.2005 15.9145 18.1658 15.8293C18.1311 15.7442 18.08 15.6668 18.0156 15.6015C17.9512 15.5363 17.8747 15.4845 17.7904 15.4492C17.7061 15.4138 17.6158 15.3956 17.5246 15.3955Z" fill="#8A8A8A"/>
<path d="M17.5404 20.5898H15.0733C14.8919 20.5898 14.718 20.6625 14.5898 20.7919C14.4615 20.9213 14.3895 21.0968 14.3895 21.2798V22.9609C14.3894 23.486 14.1827 23.9896 13.8149 24.3612C13.4468 24.7325 12.9477 24.941 12.4273 24.941H10.7701C10.5876 24.941 10.4126 25.0142 10.2836 25.1444C10.1545 25.2746 10.082 25.4512 10.082 25.6353V28.1116C10.082 28.2951 10.1543 28.4711 10.2829 28.6008C10.4114 28.7306 10.5858 28.8035 10.7676 28.8035H13.2099C13.301 28.8035 13.3913 28.7854 13.4754 28.7501C13.5597 28.7149 13.6362 28.6633 13.7007 28.5983C13.7651 28.5332 13.8163 28.4561 13.8511 28.371C13.886 28.2861 13.904 28.195 13.904 28.103V26.4325C13.9041 25.9073 14.1107 25.4036 14.4785 25.0321C14.8466 24.6608 15.3457 24.4523 15.8662 24.4523H17.5221C17.7059 24.4523 17.8821 24.3786 18.0121 24.2475C18.142 24.1164 18.2151 23.9385 18.2151 23.753V21.2724C18.2151 21.0917 18.144 20.9183 18.0175 20.7904C17.8911 20.6624 17.7195 20.5903 17.5404 20.5898Z" fill="#8A8A8A"/>
<path d="M8.07696 24.9391H6.4112C5.89094 24.9391 5.39202 24.7305 5.02417 24.3593C4.84186 24.1754 4.69723 23.9571 4.59854 23.7168C4.49984 23.4766 4.44903 23.2191 4.44898 22.959V21.2822C4.44898 21.0981 4.3765 20.9215 4.24747 20.7913C4.11844 20.661 3.94344 20.5879 3.76097 20.5879H1.30716C1.21713 20.5879 1.12798 20.6058 1.0448 20.6406C0.96162 20.6754 0.886044 20.7263 0.822383 20.7906C0.758721 20.8548 0.708222 20.9311 0.673768 21.015C0.639315 21.099 0.621582 21.1889 0.621582 21.2798V23.7499C0.621582 23.8419 0.639533 23.933 0.674416 24.018C0.709299 24.1029 0.76043 24.1802 0.824884 24.2452C0.889339 24.3103 0.965856 24.3619 1.05007 24.3971C1.13428 24.4323 1.22455 24.4504 1.3157 24.4504H2.97109C3.49149 24.4505 3.99056 24.659 4.35871 25.0302C4.72651 25.4017 4.93316 25.9054 4.93328 26.4305V28.0999C4.93344 28.2853 5.0065 28.463 5.13641 28.5942C5.26632 28.7252 5.44246 28.799 5.62618 28.7991H8.0867C8.26604 28.799 8.43799 28.727 8.56482 28.599C8.69166 28.471 8.76297 28.2975 8.76313 28.1165V25.6261C8.76229 25.4432 8.68959 25.2681 8.5609 25.1393C8.43228 25.0104 8.25815 24.9384 8.07696 24.9391Z" fill="#8A8A8A"/>
<path d="M1.29813 19.2586H3.76597C3.85573 19.2586 3.94461 19.2407 4.02754 19.2061C4.11046 19.1714 4.18579 19.1205 4.24923 19.0564C4.31268 18.9924 4.36299 18.9163 4.39728 18.8326C4.43158 18.7489 4.44919 18.6592 4.44911 18.5686V16.8876C4.44908 16.6274 4.49987 16.3699 4.59856 16.1296C4.69726 15.8893 4.84193 15.671 5.02429 15.4872C5.39214 15.116 5.89106 14.9074 6.41128 14.9074H8.07278C8.25525 14.9074 8.43028 14.8342 8.5593 14.704C8.68832 14.5738 8.7608 14.3972 8.7608 14.2131V11.7368C8.7608 11.5533 8.6886 11.3773 8.56003 11.2476C8.43146 11.1178 8.25705 11.0449 8.07525 11.0449H5.62752C5.5364 11.0448 5.44615 11.0629 5.36194 11.098C5.27773 11.1331 5.20121 11.1847 5.13675 11.2497C5.07228 11.3147 5.02115 11.3919 4.98625 11.4768C4.95136 11.5618 4.93341 11.6528 4.93341 11.7448V13.4153C4.93344 13.6754 4.88272 13.9329 4.78413 14.1732C4.68555 14.4134 4.54103 14.6318 4.35883 14.8157C4.17662 14.9996 3.96028 15.1454 3.72219 15.2449C3.48409 15.3444 3.22891 15.3956 2.97121 15.3955H1.31643C1.13261 15.3957 0.956369 15.4695 0.826443 15.6007C0.696517 15.7319 0.623535 15.9098 0.623535 16.0954V18.5754C0.623534 18.7561 0.694528 18.9295 0.820971 19.0576C0.947412 19.1856 1.11899 19.2579 1.29813 19.2586Z" fill="#8A8A8A"/>
<path d="M11.0787 17.2031H7.91408C7.25634 17.2031 6.72314 17.7412 6.72314 18.405V21.5986C6.72314 22.2624 7.25634 22.8004 7.91408 22.8004H11.0787C11.7364 22.8004 12.2696 22.2624 12.2696 21.5986V18.405C12.2696 17.7412 11.7364 17.2031 11.0787 17.2031Z" fill="#8A8A8A"/>
</g>
</g>
<defs>
<clipPath id="clip0_3567_2846">
<rect width="87.3179" height="40" fill="white" transform="translate(0.621582)"/>
</clipPath>
</defs>
</svg>
