<svg width="67" height="40" viewBox="0 0 67 40" fill="none" xmlns="http://www.w3.org/2000/svg">
<g clip-path="url(#clip0_3567_2808)">
<path d="M24.1549 12.7168C21.5705 12.7168 19.9624 14.4878 19.9624 17.0081C19.9624 18.166 20.2495 19.1197 20.8239 19.8008C21.3408 20.4138 22.1448 20.8225 23.1211 20.9588L24.5569 21.1631C25.1313 21.2993 25.361 21.3675 25.5907 21.708C25.8205 21.9805 25.9353 22.3892 25.9353 22.866C25.9353 24.024 25.1887 24.637 23.8103 24.637C22.7766 24.637 21.6853 24.3645 20.9387 23.479L19.5029 25.25C20.709 26.6805 22.0299 27.0892 23.8678 27.0892C26.3373 27.0892 28.3475 25.5225 28.3475 22.7979C28.3475 21.5718 28.0603 20.482 27.4285 19.8008C26.9117 19.1878 26.2225 18.8472 25.1313 18.711L23.6955 18.5066C23.1786 18.3704 22.834 18.2342 22.6043 17.8936C22.3745 17.6211 22.2597 17.2124 22.2597 16.8718C22.2597 15.9182 22.8914 15.1008 24.0975 15.1008C24.8441 15.1008 25.763 15.169 26.5096 16.0545L28.0029 14.3516C26.9691 13.1936 25.763 12.7168 24.1549 12.7168Z" fill="#8A8A8A"/>
<path d="M38.8498 12.7168H36.1019H33.8587H31.1108V15.4807H33.8587V27.0892H36.1019V15.4807H38.8498V12.7168Z" fill="#8A8A8A"/>
<path d="M48.7 14.2761C47.8386 13.3269 46.8623 12.7168 45.484 12.7168C44.1057 12.7168 43.072 13.2592 42.2679 14.2761C41.0045 15.7675 41.0619 17.5302 41.0619 19.903C41.0619 22.4114 41.0619 24.174 42.2679 25.5299C43.072 26.479 44.1057 27.0892 45.484 27.0892C46.8623 27.0892 47.896 26.5468 48.7 25.5299C49.9061 24.0384 49.9061 22.2758 49.9061 19.903C49.9061 17.3946 49.9061 15.6319 48.7 14.2761ZM46.9772 23.9028C46.69 24.3096 46.1157 24.6486 45.484 24.6486C44.8523 24.6486 44.278 24.3774 43.9908 23.9028C43.5314 23.2927 43.4165 22.6825 43.4165 19.9708C43.4165 17.259 43.5314 16.5811 43.9908 16.0387C44.278 15.4964 44.8523 15.2252 45.484 15.2252C46.1157 15.2252 46.69 15.4964 46.9772 15.9709C47.4366 16.5811 47.5515 17.1912 47.5515 19.903C47.5515 22.6147 47.3792 23.2927 46.9772 23.9028Z" fill="#8A8A8A"/>
<path d="M55.4338 12.7168H53.2227V27.0892H55.4338V12.7168Z" fill="#8A8A8A"/>
<path d="M64.7434 24.2627C64.4525 24.6851 63.8707 25.0371 63.2306 25.0371C62.5906 25.0371 62.0087 24.7555 61.7178 24.2627C61.2523 23.6291 61.136 22.9954 61.136 20.1794C61.136 17.3633 61.2523 16.6593 61.7178 16.0961C62.0087 15.6737 62.5906 15.3217 63.2306 15.3217C63.8707 15.3217 64.4525 15.6033 64.7434 16.0961L66.489 14.336C65.6162 13.3504 64.6271 12.7168 63.2306 12.7168C61.8342 12.7168 60.7869 13.28 59.9723 14.336C58.6922 15.8849 58.7504 17.7153 58.7504 20.1794C58.7504 22.7842 58.7504 24.6147 59.9723 26.0227C60.7869 27.0083 61.8342 27.6419 63.2306 27.6419C64.6271 27.6419 65.6744 27.0787 66.489 26.0227" fill="#8A8A8A"/>
<path d="M7.6021 25.6631L2.67574 22.5214L0.155273 24.1606L7.6021 28.9414L15.0489 24.0923L12.5285 22.4531L7.6021 25.6631Z" fill="#8A8A8A"/>
<path d="M15.0489 20.1313L12.5285 18.4922L7.6021 21.7022L2.67574 18.4922L0.155273 20.1313L7.6021 24.9805L15.0489 20.1313Z" fill="#8A8A8A"/>
<path d="M7.61785 21.0087L0.155273 16.0689L7.61785 11.0586L15.0804 16.0689L7.61785 21.0087ZM5.14946 16.0689L7.61785 17.692L10.0288 16.0689L7.61785 14.4459L5.14946 16.0689Z" fill="#8A8A8A"/>
</g>
<defs>
<clipPath id="clip0_3567_2808">
<rect width="66.3339" height="40" fill="white" transform="translate(0.155273)"/>
</clipPath>
</defs>
</svg>
