<svg width="78" height="40" viewBox="0 0 78 40" fill="none" xmlns="http://www.w3.org/2000/svg">
<g clip-path="url(#clip0_3567_2821)">
<path fill-rule="evenodd" clip-rule="evenodd" d="M27.3787 19.0134C27.3195 19.3217 27.2958 19.63 27.2958 19.962C27.2958 22.6417 29.2968 24.6929 31.9254 24.6929C33.7133 24.6929 35.1578 23.7562 35.8919 22.3689L37.8337 23.5191C36.7326 25.6059 34.4947 26.9932 31.9254 26.9932C27.9589 26.9932 25.0106 23.9222 25.0106 19.962C25.0106 19.6418 25.0343 19.3217 25.0698 19.0134H27.3787ZM21.0796 22.7484L23.0333 23.8985C21.8729 25.76 19.8719 26.9932 17.2434 26.9932V24.7403C17.2552 24.7403 17.267 24.7403 17.2789 24.7403C19.1023 24.7403 20.4166 23.8629 21.0796 22.7484ZM71.3893 13.002C74.8348 13.002 77.6528 15.8121 77.6528 19.2624V26.9932L75.2611 26.9932V19.3573C75.2611 17.4483 73.781 15.3733 71.3893 15.3733C68.9975 15.3733 67.5175 17.4365 67.5175 19.3573V26.9932H65.1257V19.2624C65.1257 15.8121 67.9319 13.002 71.3893 13.002ZM56.1744 13.002C58.1163 13.002 59.7739 13.6778 61.1237 15.0176C62.4853 16.3693 63.1602 18.0174 63.1602 19.9976C63.1602 21.9777 62.4853 23.6258 61.1237 24.9775C59.7621 26.3292 58.1163 26.9932 56.1744 26.9932C54.2326 26.9932 52.5868 26.3173 51.237 24.9775C49.8872 23.6258 49.2123 21.9777 49.2123 19.9976C49.2123 18.0174 49.8872 16.3693 51.237 15.0176C52.575 13.6778 54.2326 13.002 56.1744 13.002ZM9.07351 13.002V15.3259H5.49773L5.49773 22.8432C5.49773 24.9538 6.68176 24.8115 9.07351 24.7048V26.8627C5.03595 27.42 3.15334 26.3055 3.15334 22.8432L3.15334 15.3259H0.489258L0.489258 13.002L9.07351 13.002ZM47.6494 13.002V15.3259H44.0736V22.8432C44.0736 24.9538 45.2576 24.8115 47.6494 24.7048V26.8627C43.6118 27.42 41.7292 26.3055 41.7292 22.8432V15.3259L39.0651 15.3259V13.002L47.6494 13.002ZM56.1152 15.2429C54.801 15.2429 53.6998 15.6935 52.7881 16.6065C51.8882 17.5195 51.4383 18.6459 51.4383 19.9976C51.4383 21.3492 51.8882 22.4875 52.7881 23.3886C53.688 24.3016 54.801 24.7522 56.1152 24.7522C57.4414 24.7522 58.5662 24.3016 59.4661 23.3886C60.3659 22.4757 60.8158 21.3492 60.8158 19.9976C60.8158 18.6459 60.3659 17.5076 59.4661 16.6065C58.5662 15.7053 57.4414 15.2429 56.1152 15.2429ZM17.0065 13.002C20.9849 13.002 23.5543 16.2626 23.5543 19.9501C23.5543 20.294 23.5306 20.6378 23.4714 20.9698L12.448 20.9698C12.448 20.9698 12.448 20.9698 12.448 20.9817H10.1865C10.1391 20.6378 10.1036 20.2821 10.1036 19.9264C10.1036 16.0255 12.8979 13.002 17.0065 13.002ZM17.0065 15.1599C14.5319 15.1599 12.8269 16.6895 12.4599 18.9779L21.2454 18.9779C20.8428 16.3693 18.972 15.1599 17.0065 15.1599ZM31.9372 13.002C34.5776 13.002 36.8155 14.4604 37.8219 16.6895L35.8801 17.8752C35.217 16.3812 33.7251 15.3971 31.9372 15.3971C31.7241 15.3971 31.511 15.4208 31.3097 15.4445V13.0375C31.511 13.0138 31.7241 13.002 31.9372 13.002Z" fill="#8A8A8A"/>
</g>
<defs>
<clipPath id="clip0_3567_2821">
<rect width="77.1636" height="40" fill="white" transform="translate(0.489258)"/>
</clipPath>
</defs>
</svg>
