<svg width="81" height="40" viewBox="0 0 81 40" fill="none" xmlns="http://www.w3.org/2000/svg">
<g clip-path="url(#clip0_3567_2887)">
<path fill-rule="evenodd" clip-rule="evenodd" d="M7.77617 11.1562H0.656738V18.2757C0.656738 22.2077 3.84426 25.3952 7.77617 25.3952H15.6076L14.8957 23.7221V18.2757C14.8957 14.3438 11.7081 11.1562 7.77617 11.1562ZM4.92731 17.0646C5.71369 17.0646 6.35118 16.4271 6.35118 15.6407C6.35118 14.8543 5.71369 14.2168 4.92731 14.2168C4.21261 14.2168 3.6209 14.7434 3.51894 15.4297H2.19532C1.75854 16.2841 1.51221 17.252 1.51221 18.2775C1.51221 21.7376 4.3172 24.5426 7.77733 24.5426C9.42817 24.5426 10.9299 23.9041 12.049 22.8606V18.9894C12.049 17.0565 10.5084 15.4834 8.58816 15.431C9.6637 15.9271 10.4102 17.0149 10.4102 18.2771C10.4102 20.0072 9.00765 21.4097 7.27757 21.4097C5.54752 21.4097 4.14502 20.0072 4.14502 18.2771C4.14502 17.8123 4.24624 17.3712 4.42784 16.9745C4.58326 17.0328 4.75157 17.0646 4.92731 17.0646Z" fill="#8A8A8A"/>
<path d="M30.3805 16.1368C31.1669 16.1368 31.8043 15.4994 31.8043 14.713C31.8043 13.9265 31.1669 13.2891 30.3805 13.2891C29.5941 13.2891 28.9565 13.9265 28.9565 14.713C28.9565 15.4994 29.5941 16.1368 30.3805 16.1368Z" fill="#8A8A8A"/>
<path d="M17.4575 18.1702L17.6915 14.4102H27.5362L27.7702 18.1702H27.2086C26.1476 15.7831 25.742 15.003 24.6187 15.003H23.9478V23.7555C23.9478 24.598 24.2442 24.6448 25.2896 24.7696V25.3624H19.9381V24.7696C20.9835 24.6448 21.2955 24.598 21.2955 23.7555V15.003H20.609C19.4857 15.003 19.0801 15.7831 18.0192 18.1702H17.4575Z" fill="#8A8A8A"/>
<path d="M31.2084 16.875H31.6296V24.161C31.6296 24.6758 31.8793 24.7539 32.5501 24.8006V25.3623H28.1973V24.8006C28.8681 24.7539 29.1178 24.6758 29.1178 24.161V18.6536L28.2129 18.1075V17.7487L31.2084 16.875Z" fill="#8A8A8A"/>
<path fill-rule="evenodd" clip-rule="evenodd" d="M36.5673 22.4136C38.5955 22.4136 40.0777 21.4307 40.0777 19.7457C40.0777 18.9656 39.6564 18.326 39.0948 17.9516L40.1244 17.9983H40.7954V17.031L38.0807 17.0934C37.6907 16.9686 37.2538 16.875 36.6609 16.875C34.6016 16.875 33.0881 17.9516 33.0881 19.7769C33.0881 20.9002 33.7122 21.6179 34.5703 22.008C33.7902 22.4604 33.0725 23.0845 33.0725 24.0518C33.0725 24.7071 33.4314 25.2843 34.0711 25.5339C33.3534 25.7056 32.6201 26.1112 32.6201 26.9069C32.6201 28.155 34.0867 28.8415 36.4581 28.8415C39.1572 28.8415 41.1074 27.7338 41.1074 25.7523C41.1074 24.3482 40.1869 23.5213 38.2367 23.5213H34.9448C34.6171 23.5213 34.4299 23.3185 34.4299 23.022C34.4299 22.71 34.6639 22.4136 34.9292 22.164C35.444 22.3356 36.0057 22.4136 36.5673 22.4136ZM38.2835 25.8147C38.97 25.8147 39.3444 26.0331 39.3444 26.626C39.3444 27.7338 38.0183 28.1706 36.5361 28.1706C35.0696 28.1706 34.1334 27.5621 34.1334 26.5636C34.1334 26.2515 34.1959 25.9864 34.3518 25.8147H38.2835ZM36.6609 21.8519C35.8496 21.8519 35.4596 20.791 35.4596 19.5273C35.4596 18.2792 35.756 17.4679 36.5517 17.4679C37.363 17.4679 37.7374 18.5288 37.7374 19.7457C37.7374 21.0563 37.4566 21.8519 36.6609 21.8519Z" fill="#8A8A8A"/>
<path fill-rule="evenodd" clip-rule="evenodd" d="M41.0962 21.3995C41.0962 18.6692 42.906 16.875 45.1058 16.875C47.2744 16.875 48.3978 18.2792 48.3978 20.2138V20.5726H43.3585C43.3116 22.6164 44.3882 23.8334 45.8547 23.8334C46.9 23.8334 47.6177 23.4277 48.1949 22.6321L48.4602 22.788C48.0546 24.4262 46.8844 25.5183 44.9966 25.5183C42.7188 25.5183 41.0962 23.9113 41.0962 21.3995ZM46.1979 19.9329C46.1979 18.4508 45.8547 17.4835 44.9342 17.4835C43.9825 17.4835 43.4833 18.4975 43.3897 19.9329H46.1979Z" fill="#8A8A8A"/>
<path d="M52.3255 19.7613C53.0744 19.0904 53.8856 19.0436 54.8685 19.0436H55.1962V17.1402C55.0557 16.9842 54.8061 16.875 54.4629 16.875C53.5112 16.875 53.0119 17.4679 52.3255 19.2308L52.3879 16.875H51.9198L48.9087 17.7487V18.1075L49.8136 18.6536V24.161C49.8136 24.6758 49.564 24.7539 48.8931 24.8006V25.3623H53.6048V24.8006C52.6687 24.7071 52.3255 24.629 52.3255 23.9738V19.7613Z" fill="#8A8A8A"/>
<path d="M64.4423 25.3624H55.5649V24.7696C56.6258 24.6448 56.7503 24.5356 56.7503 23.6931V16.0795C56.7503 15.237 56.6258 15.1278 55.5649 15.003V14.4102H64.3172L64.3951 17.3276H63.865C63.0846 15.5958 62.6477 15.081 61.3218 15.081H59.4027V19.3247H61.166C61.8838 19.3247 62.0863 18.919 62.2268 17.8893H62.8354V21.5245H62.2268C62.0863 20.4947 61.8838 20.1047 61.166 20.1047H59.4027V23.6307C59.4027 24.4732 59.8242 24.6916 60.7445 24.6916H61.509C62.8354 24.6916 63.2251 24.052 64.3172 22.1017H64.9258L64.4423 25.3624Z" fill="#8A8A8A"/>
<path d="M70.368 22.8643L68.6053 18.5583C68.5421 18.3711 68.512 18.2618 68.512 18.1215C68.512 17.7782 68.7452 17.6846 69.5569 17.591V17.0293H64.9541V17.591C65.5002 17.747 65.594 17.8562 65.7504 18.1995L69.198 25.7038L68.9483 26.3123C68.6365 27.0768 68.1525 27.3108 67.2942 27.3108C66.8266 27.3108 66.5149 27.2484 66.1554 27.1704V28.1221C66.3579 28.5433 66.8425 28.7929 67.4199 28.7929C68.4648 28.7929 69.0267 28.0909 69.5569 26.7803L73.0516 18.1995C73.1921 17.8562 73.3008 17.747 73.8474 17.591V17.0293H71.1012V17.591C71.8969 17.6846 72.1461 17.7782 72.1461 18.1215C72.1461 18.2509 72.1071 18.3538 72.0396 18.5281C72.0336 18.5428 72.0281 18.5581 72.0215 18.5739L70.368 22.8643Z" fill="#8A8A8A"/>
<path fill-rule="evenodd" clip-rule="evenodd" d="M73.5029 21.3995C73.5029 18.6692 75.3129 16.875 77.513 16.875C79.6813 16.875 80.8047 18.2792 80.8047 20.2138V20.5726H75.7656C75.719 22.6164 76.7952 23.8334 78.2616 23.8334C79.307 23.8334 80.0248 23.4277 80.6022 22.6321L80.8672 22.788C80.4617 24.4262 79.2911 25.5183 77.4038 25.5183C75.1257 25.5183 73.5029 23.9113 73.5029 21.3995ZM78.6051 19.9329C78.6051 18.4508 78.2616 17.4835 77.3412 17.4835C76.3896 17.4835 75.8902 18.4975 75.7969 19.9329H78.6051Z" fill="#8A8A8A"/>
</g>
<defs>
<clipPath id="clip0_3567_2887">
<rect width="80.2107" height="40" fill="white" transform="translate(0.656738)"/>
</clipPath>
</defs>
</svg>
