<svg width="156" height="40" viewBox="0 0 156 40" fill="none" xmlns="http://www.w3.org/2000/svg">
<g clip-path="url(#clip0_3567_2779)">
<path d="M11.4637 9.32812H0.29541L11.7271 30.6718L17.2698 20.2571L11.4637 9.32812ZM11.7252 29.1171L5.36671 17.2477L9.16559 10.1085H11.0494L16.4392 20.2571L11.7252 29.1171Z" fill="#8A8A8A"/>
<path d="M21.8988 10.0785L16.4077 10.0865L15.8589 9.32812H23.1141L19.4975 16.1232L19.0795 15.4009L21.8988 10.0785Z" fill="#8A8A8A"/>
<path d="M34.4416 14.6349C34.3753 14.4908 34.4195 14.3847 34.5521 14.3847H35.4986C35.5772 14.373 35.6571 14.3916 35.7244 14.4373C35.7918 14.483 35.8422 14.5529 35.8668 14.6349L38.3325 20.1274H38.3546L40.8222 14.6349C40.8462 14.5524 40.8965 14.482 40.964 14.4362C41.0314 14.3904 41.1117 14.3721 41.1905 14.3847H42.137C42.2695 14.3847 42.3211 14.4908 42.2475 14.6349L38.5388 22.7366C38.4946 22.8426 38.4504 22.8786 38.3731 22.8786H38.3068C38.2294 22.8786 38.1852 22.8426 38.1429 22.7366L34.4416 14.6349Z" fill="#8A8A8A"/>
<path d="M50.0573 14.2227C51.1024 14.247 52.0972 14.7153 52.8285 15.5271C53.5598 16.3389 53.9692 17.4297 53.9692 18.5656C53.9692 19.7015 53.5598 20.7923 52.8285 21.6042C52.0972 22.4159 51.1024 22.8842 50.0573 22.9086C47.8328 22.9086 46.1147 21.0077 46.1147 18.5666C46.1147 16.1255 47.8328 14.2227 50.0573 14.2227ZM50.0573 21.652C51.6648 21.652 52.744 20.2053 52.744 18.5666C52.744 16.9279 51.6648 15.4792 50.0573 15.4792C48.4497 15.4792 47.3817 16.9139 47.3817 18.5666C47.3817 20.2194 48.4607 21.658 50.0573 21.658V21.652Z" fill="#8A8A8A"/>
<path d="M63.5254 21.54C63.7095 21.54 63.7464 21.588 63.7464 21.7781V22.5084C63.7464 22.7085 63.7022 22.7606 63.5254 22.7606H59.0102C58.8445 22.7606 58.791 22.7005 58.791 22.5084V14.6349C58.791 14.4448 58.8445 14.3848 59.0102 14.3848H59.8259C59.9898 14.3848 60.045 14.4448 60.045 14.6349V21.54H63.5254Z" fill="#8A8A8A"/>
<path d="M72.5335 14.3848C72.7177 14.3848 72.7638 14.4448 72.7638 14.6349V15.4012C72.7638 15.6013 72.7085 15.6533 72.5335 15.6533H70.3091V22.5084C70.3091 22.7085 70.2649 22.7606 70.0881 22.7606H69.2743C69.1085 22.7606 69.0533 22.7005 69.0533 22.5084V15.6533H66.8178C66.6539 15.6533 66.5986 15.5933 66.5986 15.4012V14.6349C66.5986 14.4448 66.6539 14.3848 66.8178 14.3848H72.5335Z" fill="#8A8A8A"/>
<path d="M78.4798 22.5084C78.4798 22.7085 78.4246 22.7606 78.2606 22.7606H77.4486C77.2829 22.7606 77.2295 22.7005 77.2295 22.5084V14.6349C77.2295 14.4448 77.2829 14.3848 77.4486 14.3848H80.3231C81.6121 14.3848 83.0317 15.0771 83.0317 17.016C83.0317 18.5487 82.1405 19.301 81.1259 19.5411L82.9671 22.4484C83.089 22.6485 83.0113 22.7606 82.8018 22.7606H81.9215C81.8425 22.7593 81.7652 22.7354 81.6976 22.6911C81.63 22.6467 81.5744 22.5838 81.5366 22.5084L79.7081 19.6371H78.4743L78.4798 22.5084ZM80.1979 18.3806C81.3874 18.3806 81.7612 17.7803 81.7612 16.9919C81.7612 16.2036 81.393 15.6293 80.1979 15.6293H78.4798V18.3806H80.1979Z" fill="#8A8A8A"/>
<path d="M91.3534 14.2227C92.3985 14.247 93.3929 14.7153 94.1246 15.5271C94.8555 16.3389 95.2647 17.4297 95.2647 18.5656C95.2647 19.7015 94.8555 20.7923 94.1246 21.6042C93.3929 22.4159 92.3985 22.8842 91.3534 22.9086C89.1289 22.9086 87.4102 21.0077 87.4102 18.5666C87.4102 16.1255 89.1289 14.2227 91.3534 14.2227ZM91.3534 21.652C92.9608 21.652 94.0395 20.2053 94.0395 18.5666C94.0395 16.9279 92.9608 15.4792 91.3534 15.4792C89.7452 15.4792 88.6812 16.9199 88.6812 18.5726C88.6812 20.2254 89.7566 21.658 91.3534 21.658V21.652Z" fill="#8A8A8A"/>
<path d="M101.363 17.3031H101.341V22.5054C101.341 22.7055 101.286 22.7575 101.121 22.7575H100.317C100.133 22.7575 100.087 22.6975 100.087 22.5054V14.3818C100.087 14.2977 100.118 14.2617 100.206 14.2617H100.262C100.298 14.2614 100.334 14.2712 100.367 14.2901C100.399 14.309 100.426 14.3364 100.446 14.3698L105.357 19.8383H105.379V14.6359C105.379 14.4458 105.423 14.3858 105.598 14.3858H106.403C106.587 14.3858 106.635 14.4458 106.635 14.6359V22.7495C106.635 22.8436 106.602 22.8797 106.513 22.8797H106.458C106.422 22.8799 106.386 22.8704 106.354 22.8519C106.322 22.8334 106.294 22.8065 106.274 22.7736L101.363 17.3031Z" fill="#8A8A8A"/>
<path d="M120.381 14.3848C122.606 14.3848 124.269 16.1315 124.269 18.5727C124.269 21.0138 122.611 22.7606 120.381 22.7606H117.62C117.454 22.7606 117.4 22.7005 117.4 22.5084V14.6349C117.4 14.4448 117.454 14.3848 117.62 14.3848H120.381ZM118.663 15.6293V21.516H120.381C121.978 21.516 123.002 20.2114 123.002 18.5727C123.002 16.9339 121.978 15.6233 120.381 15.6233L118.663 15.6293Z" fill="#8A8A8A"/>
<path d="M135.942 22.5093C136.008 22.6534 135.964 22.7615 135.831 22.7615H134.885C134.807 22.7712 134.727 22.7515 134.66 22.7057C134.593 22.6598 134.543 22.5906 134.517 22.5093L133.811 20.9306H130.265L129.561 22.5093C129.538 22.5926 129.488 22.664 129.42 22.7103C129.353 22.7567 129.272 22.7748 129.193 22.7615H128.247C128.114 22.7615 128.063 22.6534 128.136 22.5093L131.836 14.4097C131.88 14.3016 131.924 14.2656 132.001 14.2656H132.067C132.145 14.2656 132.189 14.3016 132.233 14.4097L135.942 22.5093ZM132.043 16.8608L130.768 19.6741H133.322L132.055 16.8608H132.043Z" fill="#8A8A8A"/>
<path d="M144.806 14.3848C144.99 14.3848 145.039 14.4448 145.039 14.6349V15.4012C145.039 15.6013 144.983 15.6533 144.806 15.6533H142.582V22.5084C142.582 22.7085 142.538 22.7606 142.363 22.7606H141.547C141.383 22.7606 141.328 22.7005 141.328 22.5084V15.6533H139.093C138.926 15.6533 138.872 15.5933 138.872 15.4012V14.6349C138.872 14.4448 138.926 14.3848 139.093 14.3848H144.806Z" fill="#8A8A8A"/>
<path d="M155.765 22.5093C155.831 22.6534 155.787 22.7615 155.655 22.7615H154.708C154.629 22.7708 154.551 22.751 154.483 22.7053C154.416 22.6595 154.366 22.5904 154.339 22.5093L153.636 20.9306H150.093L149.388 22.5093C149.366 22.593 149.316 22.665 149.248 22.7114C149.18 22.7579 149.099 22.7757 149.02 22.7615H148.073C147.941 22.7615 147.889 22.6534 147.963 22.5093L151.662 14.4097C151.706 14.3016 151.751 14.2656 151.828 14.2656H151.894C151.972 14.2656 152.016 14.3016 152.058 14.4097L155.765 22.5093ZM151.867 16.8608L150.588 19.6741H153.143L151.878 16.8608H151.867Z" fill="#8A8A8A"/>
</g>
<defs>
<clipPath id="clip0_3567_2779">
<rect width="155.5" height="40" fill="white" transform="translate(0.29541)"/>
</clipPath>
</defs>
</svg>
