<svg width="367" height="206" viewBox="0 0 367 206" fill="none" xmlns="http://www.w3.org/2000/svg">
<g clip-path="url(#clip0_3567_3206)">
<rect width="367" height="206" fill="black"/>
<path d="M183.5 120.5C164.967 120.5 150 105.533 150 86.9999C150 68.4668 164.967 53.5 183.5 53.5C202.033 53.5 217 68.4668 217 86.9999C217 105.533 202.033 120.5 183.5 120.5Z" fill="#FF6900"/>
<path d="M201.413 82.0312H194.841V91.949H201.413C204.137 91.949 206.401 89.6849 206.401 86.9601C206.401 84.2152 204.137 82.0312 201.413 82.0312Z" fill="black"/>
<path d="M162.642 87.0001C162.642 94.6537 168.873 100.885 176.526 100.885C184.18 100.885 190.411 94.6537 190.411 87.0001C190.411 79.3464 184.18 73.1152 176.526 73.1152C168.873 73.1152 162.642 79.3464 162.642 87.0001Z" fill="black"/>
<path d="M127.012 144.151C127.012 138.884 123.792 138.171 120.595 138.171H119.1V150.154H120.595C123.792 150.154 127.012 149.418 127.012 144.151ZM116.179 135.825H120.733C126 135.825 130.048 137.642 130.048 144.151C130.048 150.66 126 152.5 120.733 152.5H116.179V135.825ZM140.163 152.5V150.798C139.45 152.086 138.185 152.799 136.506 152.799C133.562 152.799 132.366 150.867 132.366 147.923V140.126H135.103V147.256C135.103 148.935 135.333 150.568 137.38 150.568C139.427 150.568 140.163 148.958 140.163 146.727V140.126H142.9V152.5H140.163ZM151.202 139.85C153.916 139.85 156.262 141.621 156.745 144.358H154.077C153.824 143.047 152.697 142.127 151.202 142.127C149.477 142.127 147.959 143.392 147.959 146.313C147.959 149.257 149.523 150.522 151.133 150.522C152.49 150.522 153.801 149.924 154.169 148.268H156.837C156.285 151.166 153.732 152.799 151.087 152.799C147.499 152.799 145.13 150.016 145.13 146.336C145.13 142.656 147.499 139.85 151.202 139.85ZM158.964 135.825H161.701V145.094L166.278 140.126H169.567L164.829 145.209L170.096 152.5H166.899L163.012 147.141L161.701 148.544V152.5H158.964V135.825ZM182.243 144.151C182.243 138.884 179.023 138.171 175.826 138.171H174.331V150.154H175.826C179.023 150.154 182.243 149.418 182.243 144.151ZM171.41 135.825H175.964C181.231 135.825 185.279 137.642 185.279 144.151C185.279 150.66 181.231 152.5 175.964 152.5H171.41V135.825ZM187.942 152.5V135.825H194.221C197.257 135.825 200.224 136.653 200.224 140.08C200.224 141.644 199.35 143.024 198.361 143.645C199.741 144.266 200.868 145.347 200.868 147.555C200.868 151.143 198.039 152.5 194.635 152.5H187.942ZM190.863 145.025V150.154H194.75C196.843 150.154 197.855 149.211 197.855 147.555C197.855 145.83 196.82 145.025 194.589 145.025H190.863ZM190.863 138.171V142.794H194.497C196.222 142.794 197.257 142.058 197.257 140.402C197.257 138.93 196.153 138.171 194.497 138.171H190.863ZM213.367 152.5H210.63V139.804H206.904V137.918C209.319 137.849 210.492 137.642 211.343 135.825H213.367V152.5ZM218.843 152.5H215.715V149.372H218.843V152.5ZM226.218 150.683C228.633 150.683 230.013 148.383 230.013 144.151C230.013 139.919 228.633 137.619 226.218 137.619C223.826 137.619 222.446 139.919 222.446 144.151C222.446 148.383 223.826 150.683 226.218 150.683ZM226.218 152.799C221.802 152.799 219.594 149.28 219.594 144.151C219.594 139.068 221.802 135.526 226.218 135.526C230.68 135.526 232.865 139.068 232.865 144.151C232.865 149.28 230.68 152.799 226.218 152.799ZM236.721 152.5H233.593V149.372H236.721V152.5ZM244.097 150.683C246.512 150.683 247.892 148.383 247.892 144.151C247.892 139.919 246.512 137.619 244.097 137.619C241.705 137.619 240.325 139.919 240.325 144.151C240.325 148.383 241.705 150.683 244.097 150.683ZM244.097 152.799C239.681 152.799 237.473 149.28 237.473 144.151C237.473 139.068 239.681 135.526 244.097 135.526C248.559 135.526 250.744 139.068 250.744 144.151C250.744 149.28 248.559 152.799 244.097 152.799Z" fill="#FF6900"/>
<path d="M170 12.5087L170 -31.0002L-19 -31.0002L-19 135.5L44 135.5C55.0457 135.5 64 126.546 64 115.5L64 52.5087C64 41.463 72.9543 32.5087 84 32.5087L150 32.5087C161.046 32.5087 170 23.5544 170 12.5087Z" fill="#323232"/>
<path d="M325.983 149L325.983 -7L370.5 -7L370.5 233.5L269.584 233.5C258.538 233.5 249.584 224.546 249.584 213.5L249.584 189C249.584 177.954 258.538 169 269.584 169L305.983 169C317.029 169 325.983 160.046 325.983 149Z" fill="#323232"/>
<path d="M276.05 181.41C281.057 181.41 285.101 185.453 285.101 190.46C285.101 195.466 281.057 199.51 276.05 199.51C271.043 199.51 267 195.466 267 190.46C267 185.453 271.043 181.41 276.05 181.41Z" fill="#FF6900"/>
<path d="M271.211 191.805L272.986 191.805L272.986 189.125L271.211 189.125C270.475 189.125 269.863 189.737 269.863 190.473C269.863 191.215 270.475 191.805 271.211 191.805Z" fill="black"/>
<path d="M281.686 190.462C281.686 188.394 280.002 186.711 277.934 186.711C275.867 186.711 274.183 188.394 274.183 190.462C274.183 192.53 275.867 194.213 277.934 194.213C280.002 194.213 281.686 192.53 281.686 190.462Z" fill="black"/>
<path d="M301.857 188.595V192.205C301.857 192.982 301.404 193.53 300.777 193.53H300.475C299.838 193.53 299.395 192.982 299.395 192.205V188.595H298.196V192.433C298.196 193.816 299.136 194.81 300.453 194.81H300.799C302.116 194.81 303.045 193.816 303.045 192.433V188.595H301.857ZM337.342 192.228V191.097C337.342 190.252 337.817 189.658 338.498 189.658H338.8C339.643 189.658 340.258 190.343 340.258 191.314V191.942C340.258 192.947 339.643 193.644 338.8 193.644H338.498C337.817 193.644 337.342 193.062 337.342 192.228ZM336.273 192.228C336.273 193.736 337.191 194.81 338.498 194.81H338.8C339.329 194.81 339.794 194.547 340.15 194.09V194.707H341.295V188.595H340.15V189.246C339.794 188.789 339.329 188.515 338.8 188.515H338.498C337.191 188.515 336.273 189.578 336.273 191.097V192.228ZM331.176 194.718H335.723V193.45H332.353V186.836H331.176V194.718ZM343.487 191.965V191.337C343.487 190.354 344.092 189.658 344.934 189.658H345.226C345.917 189.658 346.392 190.24 346.392 191.074V192.205C346.392 193.05 345.917 193.644 345.226 193.644H344.934C344.092 193.644 343.487 192.959 343.487 191.965ZM342.439 194.707H343.584V194.056C343.94 194.513 344.405 194.787 344.934 194.787H345.226C346.543 194.787 347.472 193.713 347.472 192.205V191.074C347.472 189.555 346.543 188.492 345.226 188.492H344.934C344.405 188.492 343.94 188.755 343.584 189.212V186.836H342.439V194.707ZM351.759 190.309H352.893C352.688 189.178 351.802 188.481 350.56 188.481C349.135 188.481 348.271 189.143 348.271 190.229C348.271 191.074 348.897 191.714 349.923 191.919L350.841 192.125C351.478 192.274 351.856 192.582 351.856 192.982C351.856 193.473 351.403 193.759 350.657 193.759C349.955 193.759 349.459 193.393 349.34 192.776H348.163C348.314 194.033 349.254 194.81 350.614 194.81C352.104 194.81 353.001 194.056 353.001 192.833C353.001 191.931 352.245 191.245 351.014 190.994L350.171 190.823C349.696 190.697 349.405 190.446 349.405 190.137C349.405 189.76 349.826 189.52 350.485 189.52C351.176 189.52 351.651 189.817 351.759 190.309ZM312.807 190.788L315.032 188.31H313.358L311.403 190.537V186.847H310.216V194.707H311.403V192.399L311.976 191.759L313.93 194.707H315.399L312.807 190.788ZM294.114 193.45H292.678V188.115H294.114C295.227 188.115 296.112 189.315 296.112 190.766C296.112 192.262 295.227 193.45 294.114 193.45ZM294.114 186.836H291.49V194.718H294.114C295.875 194.718 297.311 192.959 297.311 190.766C297.311 188.618 295.875 186.836 294.114 186.836ZM318.833 193.45H317.418V188.115H318.833C319.956 188.115 320.831 189.315 320.831 190.766C320.831 192.262 319.956 193.45 318.833 193.45ZM318.833 186.836H316.22V194.718H318.833C320.615 194.718 322.03 192.959 322.03 190.766C322.03 188.618 320.615 186.836 318.833 186.836ZM325.993 193.45H324.146V191.268H325.993C326.543 191.268 327.019 191.771 327.019 192.353C327.019 192.97 326.543 193.45 325.993 193.45ZM324.146 190V188.115H325.615C326.111 188.115 326.511 188.527 326.511 189.052C326.511 189.578 326.111 190 325.615 190H324.146ZM327.256 190.423C327.526 190.046 327.71 189.566 327.71 189.052C327.71 187.841 326.749 186.836 325.615 186.836H322.958V194.718H325.993C327.224 194.718 328.206 193.656 328.206 192.353C328.206 191.554 327.839 190.857 327.256 190.423ZM306.436 189.543H306.727C307.44 189.543 308.023 190.092 308.023 190.777H309.233C309.233 189.418 308.099 188.298 306.727 188.298H306.436C305.086 188.298 303.995 189.452 303.995 190.868V192.228C303.995 193.656 305.086 194.81 306.436 194.81H306.727C308.142 194.81 309.298 193.69 309.298 192.342H308.088C308.088 192.993 307.473 193.53 306.727 193.53H306.436C305.745 193.53 305.172 192.947 305.172 192.228V190.868C305.172 190.137 305.745 189.543 306.436 189.543Z" fill="white"/>
</g>
<defs>
<clipPath id="clip0_3567_3206">
<rect width="367" height="206" fill="white"/>
</clipPath>
</defs>
</svg>
