<svg width="366" height="209" viewBox="0 0 366 209" fill="none" xmlns="http://www.w3.org/2000/svg">
<g clip-path="url(#clip0_3860_3794)">
<rect width="366" height="209" fill="black"/>
<path d="M153.5 182.5L153.5 214.501L377 214.501L377 50L322 50C310.954 50 302 58.9543 302 70L302 142.5C302 153.546 293.046 162.5 282 162.5L173.5 162.5C162.454 162.5 153.5 171.454 153.5 182.5Z" fill="#323232"/>
<g clip-path="url(#clip1_3860_3794)">
<path d="M155.86 89.0723H146.606V98.6057C146.606 101.295 144.524 103.512 141.893 103.734C142.5 102.163 142.828 100.456 142.847 98.6828V97.6418H133.593V98.5961C133.593 101.334 131.443 103.58 128.754 103.744V89.0723H119.5V119.928H128.754V113.017H141.468C143.281 113.017 145.016 112.679 146.625 112.062V119.928H155.879V98.6057V97.6514V89.0723H155.86ZM128.436 111.098H126.836V118.01H121.409V90.9809H126.836V105.671H128.436C132.012 105.671 134.971 103.011 135.434 99.56H140.89C140.398 105.999 134.981 111.098 128.436 111.098ZM153.942 118.01H148.515V111.147C150.77 109.874 152.65 108.004 153.942 105.758V118.01ZM153.942 98.6057V98.6828C153.903 105.527 148.293 111.098 141.449 111.098H135.588C137.834 109.807 139.695 107.927 140.977 105.671H141.449C145.343 105.671 148.515 102.5 148.515 98.6057V90.9809H153.942V98.6057Z" fill="#FF6900"/>
<path d="M191.073 104.457L187.275 98.3262H184.335L189.772 106.78V110.665H192.307V106.78L197.743 98.3262H194.803L191.073 104.457Z" fill="#FF6900"/>
<path d="M207.007 98.3262H199.941V110.665H207.007C212.318 110.665 214.237 107.725 214.237 104.457C214.237 101.189 212.569 98.3262 207.007 98.3262ZM206.949 108.467H202.486V100.534H206.949C210.603 100.534 211.653 102.375 211.653 104.467C211.663 106.549 210.603 108.467 206.949 108.467Z" fill="#FF6900"/>
<path d="M230.209 102.066C230.209 99.4733 228.33 98.3262 225.476 98.3262H217.1V110.665H219.644V105.999L224.31 106.009C226.315 106.009 227.404 106.385 227.404 107.792L227.414 110.655H229.949V107.715C229.949 105.97 229.024 105.44 227.105 105.286C228.869 105.006 230.209 104.148 230.209 102.066ZM225.476 104.11H219.644V100.524H225.476C226.778 100.524 227.684 101.083 227.674 102.211C227.664 103.397 226.768 104.11 225.476 104.11Z" fill="#FF6900"/>
<path d="M240.658 98.3262H237.902L232.099 110.665H234.836L236.109 107.86H242.451L243.733 110.665H246.5L240.658 98.3262ZM236.976 105.97L239.28 100.89L241.594 105.97H236.976Z" fill="#FF6900"/>
<path d="M179.592 103.551H170.531V98.3262H167.986V110.665H170.531V105.44H179.592V110.665H182.137V98.3262H179.592V103.551Z" fill="#FF6900"/>
</g>
<path d="M94 36.1624L174 36.1624C185.046 36.1624 194 27.208 194 16.1624L194 -28L-15 -28L-15 231.5L5.50001 231.5C16.5457 231.5 25.5 222.546 25.5 211.5L25.5 142.758C25.5 131.713 34.4543 122.758 45.5 122.758L54 122.758C65.0457 122.758 74 113.804 74 102.758L74 56.1624C74 45.1167 82.9543 36.1624 94 36.1624Z" fill="#323232"/>
<path d="M276.05 181.398C281.057 181.398 285.101 185.441 285.101 190.448C285.101 195.455 281.057 199.498 276.05 199.498C271.043 199.498 267 195.455 267 190.448C267 185.441 271.043 181.398 276.05 181.398Z" fill="#FF6900"/>
<path d="M271.211 191.793L272.986 191.793L272.986 189.114L271.211 189.114C270.475 189.114 269.863 189.725 269.863 190.461C269.863 191.203 270.475 191.793 271.211 191.793Z" fill="black"/>
<path d="M281.685 190.45C281.685 188.383 280.002 186.699 277.934 186.699C275.866 186.699 274.183 188.383 274.183 190.45C274.183 192.518 275.866 194.201 277.934 194.201C280.002 194.201 281.685 192.518 281.685 190.45Z" fill="black"/>
<path d="M301.857 188.583V192.193C301.857 192.97 301.403 193.518 300.777 193.518H300.474C299.837 193.518 299.395 192.97 299.395 192.193V188.583H298.196V192.422C298.196 193.804 299.135 194.798 300.453 194.798H300.798C302.116 194.798 303.045 193.804 303.045 192.422V188.583H301.857ZM337.342 192.216V191.085C337.342 190.24 337.817 189.646 338.497 189.646H338.8C339.642 189.646 340.258 190.331 340.258 191.302V191.931C340.258 192.936 339.642 193.633 338.8 193.633H338.497C337.817 193.633 337.342 193.05 337.342 192.216ZM336.273 192.216C336.273 193.724 337.191 194.798 338.497 194.798H338.8C339.329 194.798 339.793 194.535 340.15 194.078V194.695H341.294V188.583H340.15V189.235C339.793 188.778 339.329 188.503 338.8 188.503H338.497C337.191 188.503 336.273 189.566 336.273 191.085V192.216ZM331.176 194.706H335.722V193.438H332.353V186.824H331.176V194.706ZM343.486 191.953V191.325C343.486 190.343 344.091 189.646 344.933 189.646H345.225C345.916 189.646 346.391 190.228 346.391 191.062V192.193C346.391 193.039 345.916 193.633 345.225 193.633H344.933C344.091 193.633 343.486 192.947 343.486 191.953ZM342.439 194.695H343.584V194.044C343.94 194.501 344.404 194.775 344.933 194.775H345.225C346.543 194.775 347.471 193.701 347.471 192.193V191.062C347.471 189.543 346.543 188.481 345.225 188.481H344.933C344.404 188.481 343.94 188.743 343.584 189.2V186.824H342.439V194.695ZM351.758 190.297H352.892C352.687 189.166 351.802 188.469 350.56 188.469C349.134 188.469 348.27 189.132 348.27 190.217C348.27 191.062 348.897 191.702 349.923 191.908L350.84 192.113C351.478 192.262 351.856 192.57 351.856 192.97C351.856 193.461 351.402 193.747 350.657 193.747C349.955 193.747 349.458 193.381 349.339 192.764H348.162C348.314 194.021 349.253 194.798 350.614 194.798C352.104 194.798 353 194.044 353 192.822C353 191.919 352.244 191.234 351.013 190.982L350.171 190.811C349.696 190.685 349.404 190.434 349.404 190.126C349.404 189.749 349.825 189.509 350.484 189.509C351.175 189.509 351.65 189.806 351.758 190.297ZM312.807 190.777L315.031 188.298H313.358L311.403 190.525V186.836H310.215V194.695H311.403V192.387L311.975 191.748L313.93 194.695H315.398L312.807 190.777ZM294.114 193.438H292.678V188.104H294.114C295.226 188.104 296.112 189.303 296.112 190.754C296.112 192.25 295.226 193.438 294.114 193.438ZM294.114 186.824H291.49V194.706H294.114C295.874 194.706 297.31 192.947 297.31 190.754C297.31 188.606 295.874 186.824 294.114 186.824ZM318.833 193.438H317.418V188.104H318.833C319.956 188.104 320.83 189.303 320.83 190.754C320.83 192.25 319.956 193.438 318.833 193.438ZM318.833 186.824H316.219V194.706H318.833C320.614 194.706 322.029 192.947 322.029 190.754C322.029 188.606 320.614 186.824 318.833 186.824ZM325.992 193.438H324.146V191.257H325.992C326.543 191.257 327.018 191.759 327.018 192.342C327.018 192.959 326.543 193.438 325.992 193.438ZM324.146 189.989V188.104H325.614C326.111 188.104 326.511 188.515 326.511 189.04C326.511 189.566 326.111 189.989 325.614 189.989H324.146ZM327.256 190.411C327.526 190.034 327.709 189.554 327.709 189.04C327.709 187.829 326.748 186.824 325.614 186.824H322.958V194.706H325.992C327.223 194.706 328.206 193.644 328.206 192.342C328.206 191.542 327.839 190.845 327.256 190.411ZM306.435 189.532H306.727C307.44 189.532 308.023 190.08 308.023 190.765H309.232C309.232 189.406 308.098 188.286 306.727 188.286H306.435C305.086 188.286 303.995 189.44 303.995 190.857V192.216C303.995 193.644 305.086 194.798 306.435 194.798H306.727C308.142 194.798 309.297 193.678 309.297 192.33H308.088C308.088 192.981 307.472 193.518 306.727 193.518H306.435C305.744 193.518 305.172 192.936 305.172 192.216V190.857C305.172 190.126 305.744 189.532 306.435 189.532Z" fill="white"/>
</g>
<defs>
<clipPath id="clip0_3860_3794">
<rect width="366" height="209" fill="white"/>
</clipPath>
<clipPath id="clip1_3860_3794">
<rect width="127" height="55.0508" fill="white" transform="translate(119.5 76.9746)"/>
</clipPath>
</defs>
</svg>
