<?xml version="1.0" standalone="no"?>
<!DOCTYPE svg PUBLIC "-//W3C//DTD SVG 20010904//EN"
 "http://www.w3.org/TR/2001/REC-SVG-20010904/DTD/svg10.dtd">
<svg version="1.0" xmlns="http://www.w3.org/2000/svg"
 width="700.000000pt" height="700.000000pt" viewBox="0 0 700.000000 700.000000"
 preserveAspectRatio="xMidYMid meet">
<metadata>
Created by potrace 1.14, written by Peter Selinger 2001-2017
</metadata>
<g transform="translate(0.000000,700.000000) scale(0.100000,-0.100000)"
fill="#000000" stroke="none">
<path d="M3979 4915 c-599 -101 -1067 -571 -1176 -1180 -10 -55 -16 -146 -16
-235 0 -235 42 -421 142 -625 143 -292 372 -523 656 -660 211 -103 344 -135
587 -142 202 -6 318 8 478 59 229 73 405 182 581 357 209 209 334 440 396 731
26 121 26 439 0 560 -62 292 -186 520 -396 731 -218 219 -474 353 -770 403
-114 19 -371 20 -482 1z"/>
<path d="M1510 3991 c-182 -59 -300 -179 -354 -360 -20 -69 -21 -199 -1 -276
46 -177 202 -320 390 -360 54 -11 152 -15 433 -15 l362 0 0 515 0 515 -387 -1
c-344 0 -394 -2 -443 -18z"/>
</g>
</svg>
