<?xml version="1.0" encoding="utf-8"?>
<!-- Generator: Adobe Illustrator 25.4.1, SVG Export Plug-In . SVG Version: 6.00 Build 0)  -->
<svg version="1.1" id="Ebene_1" xmlns="http://www.w3.org/2000/svg" xmlns:xlink="http://www.w3.org/1999/xlink" x="0px" y="0px"
	 viewBox="0 0 300 300" style="enable-background:new 0 0 300 300;" xml:space="preserve">
<style type="text/css">
	.st0{fill:#FF6900;}
</style>
<path class="st0" d="M150,2L150,2c81.9,0,148,66.1,148,148l0,0c0,81.9-66.1,148-148,148l0,0C68.1,298,2,231.9,2,150l0,0
	C2,68.1,68.1,2,150,2z"/>
<path d="M70.9,172h29v-43.8h-29c-12.1,0-22,10-22,22C48.8,162.4,58.8,172,70.9,172"/>
<path d="M242.1,150c0-33.8-27.5-61.3-61.3-61.3s-61.3,27.5-61.3,61.3s27.5,61.3,61.3,61.3S242.1,183.8,242.1,150L242.1,150"/>
</svg>
