<?xml version="1.0" encoding="utf-8"?>
<!-- Generator: Adobe Illustrator 26.0.3, SVG Export Plug-In . SVG Version: 6.00 Build 0)  -->
<svg version="1.1" id="Ebene_1" xmlns="http://www.w3.org/2000/svg" xmlns:xlink="http://www.w3.org/1999/xlink" x="0px" y="0px"
	 viewBox="0 0 158.8 31.3" style="enable-background:new 0 0 158.8 31.3;" xml:space="preserve">
<style type="text/css">
	.st0{fill:none;}
	.st1{fill:#FF6900;}
</style>
<g>
	<path class="st0" d="M47.9,10.3h-2.8v9.6h2.8c2.2,0,3.9-2.1,3.9-4.9C51.7,12.5,50,10.3,47.9,10.3z"/>
	<path class="st0" d="M95.8,10.3h-2.7v9.6h2.7c2.2,0,3.9-2.1,3.9-4.9C99.7,12.5,98,10.3,95.8,10.3z"/>
	<path class="st0" d="M110.7,12c0-1-0.8-1.7-1.7-1.7h-2.9v3.4h2.9C109.9,13.7,110.7,12.9,110.7,12z"/>
	<path class="st0" d="M109.7,16h-3.6v3.9h3.6c1.1,0,2-0.9,2-2C111.7,16.9,110.8,16,109.7,16z"/>
	<path class="st1" d="M62.5,11.3v6.4c0,1.4-0.9,2.4-2,2.4h-0.6c-1.2,0-2-1-2-2.4v-6.4h-2.3v6.8c0,2.5,1.8,4.2,4.3,4.2h0.7
		c2.5,0,4.2-1.8,4.2-4.2v-6.8H62.5z"/>
	<polygon class="st1" points="117.8,22.2 126.4,22.2 126.4,19.9 120.1,19.9 120.1,8.1 117.8,8.1 	"/>
	<path class="st1" d="M134.8,12.4c-0.7-0.8-1.5-1.3-2.5-1.3h-0.6c-2.5,0-4.2,1.9-4.2,4.6v2c0,2.7,1.7,4.6,4.2,4.6h0.6
		c1,0,1.9-0.5,2.5-1.3v1.1h2.2V11.3h-2.2V12.4z M135,17.2c0,1.8-1.2,3-2.7,3h-0.6c-1.3,0-2.2-1-2.2-2.5v-2c0-1.5,0.9-2.6,2.2-2.6
		h0.6c1.6,0,2.7,1.2,2.7,3V17.2z"/>
	<path class="st1" d="M144.3,11.1h-0.6c-1,0-1.9,0.5-2.5,1.3V8.1h-2.2v14h2.2V21c0.7,0.8,1.5,1.3,2.5,1.3h0.6c2.5,0,4.2-1.9,4.2-4.6
		v-2C148.6,13,146.8,11.1,144.3,11.1z M146.5,17.7c0,1.5-0.9,2.6-2.2,2.6h-0.6c-1.6,0-2.7-1.2-2.7-3v-1.1c0-1.8,1.1-3,2.7-3h0.6
		c1.3,0,2.2,1,2.2,2.5V17.7z"/>
	<path class="st1" d="M156.7,14.3h2.1c-0.4-2-2.1-3.3-4.4-3.3c-2.7,0-4.3,1.2-4.3,3.1c0,1.5,1.2,2.6,3.1,3l1.7,0.4
		c1.2,0.3,1.9,0.8,1.9,1.5c0,0.9-0.9,1.4-2.3,1.4c-1.3,0-2.3-0.7-2.5-1.8h-2.2c0.3,2.2,2.1,3.6,4.6,3.6c2.8,0,4.5-1.3,4.5-3.5
		c0-1.6-1.4-2.8-3.7-3.3l-1.6-0.3c-0.9-0.2-1.4-0.7-1.4-1.2c0-0.7,0.8-1.1,2-1.1C155.6,12.9,156.4,13.4,156.7,14.3z"/>
	<polygon class="st1" points="83.2,15.2 87.4,10.7 84.2,10.7 80.5,14.7 80.5,8.1 78.3,8.1 78.3,22.1 80.5,22.1 80.5,18 81.6,16.9 
		85.3,22.1 88.1,22.1 	"/>
	<path class="st1" d="M47.9,8.1H43v14.1h4.9c3.3,0,6-3.1,6-7C54,11.3,51.3,8.1,47.9,8.1z M47.9,19.9h-2.7v-9.5h2.7
		c2.1,0,3.8,2.1,3.8,4.7C51.7,17.8,50,19.9,47.9,19.9z"/>
	<path class="st1" d="M94.6,8.1h-4.9v14.1h4.9c3.4,0,6-3.1,6-7C100.6,11.3,97.9,8.1,94.6,8.1z M94.6,19.9h-2.7v-9.5h2.7
		c2.1,0,3.8,2.1,3.8,4.7C98.3,17.8,96.7,19.9,94.6,19.9z"/>
	<path class="st1" d="M110.4,14.5c0.5-0.7,0.9-1.5,0.9-2.4c0-2.2-1.8-4-4-4h-5v14.1h5.7c2.3,0,4.2-1.9,4.2-4.2
		C112.2,16.5,111.5,15.3,110.4,14.5z M104.6,10.4h2.8c0.9,0,1.7,0.7,1.7,1.7c0,0.9-0.8,1.7-1.7,1.7c0,0,0,0,0,0h-2.8V10.4z
		 M108.1,19.9h-3.5V16h3.5c1,0,1.9,0.9,1.9,1.9C110,19,109.1,19.9,108.1,19.9z"/>
	<path class="st1" d="M71.2,12.9h0.6c1.3,0,2.4,1,2.4,2.2h2.3c0-2.4-2.1-4.4-4.7-4.4h-0.6c-2.5,0-4.6,2.1-4.6,4.6v2.4
		c0,2.5,2.1,4.6,4.6,4.6c0,0,0,0,0,0h0.6c2.7,0,4.8-2,4.8-4.4h-2.3c0,1.2-1.2,2.1-2.6,2.1h-0.6c-1.3,0-2.4-1-2.4-2.3v-2.4
		C68.8,14,69.9,12.9,71.2,12.9z"/>
</g>
<g>
	<path class="st1" d="M31.8,15.6C31.7,6.9,24.6-0.1,15.9,0c0,0,0,0,0,0C7.2-0.1,0.1,6.9,0,15.6c0,0,0,0,0,0
		c0.1,8.7,7.2,15.7,15.9,15.6c0,0,0,0,0,0C24.6,31.3,31.7,24.3,31.8,15.6C31.8,15.6,31.8,15.6,31.8,15.6z M10.5,18H7.4v0
		c-1.3,0-2.3-1-2.3-2.3c0-1.3,1-2.3,2.3-2.3h3.1V18z M19.2,22.1c0,0-0.1,0-0.1,0c-3.6-0.1-6.5-3.1-6.5-6.7c0.1-3.6,3.1-6.5,6.7-6.5
		C23,9,25.8,12,25.8,15.6C25.7,19.2,22.8,22.1,19.2,22.1z"/>
</g>
</svg>
