<?xml version="1.0" encoding="utf-8"?>
<!-- Generator: Adobe Illustrator 26.0.1, SVG Export Plug-In . SVG Version: 6.00 Build 0)  -->
<svg version="1.1" id="Ebene_1" xmlns="http://www.w3.org/2000/svg" xmlns:xlink="http://www.w3.org/1999/xlink" x="0px" y="0px"
	 viewBox="0 0 7384 800" style="enable-background:new 0 0 7384 800;" xml:space="preserve">
<style type="text/css">
	.st0{fill:#FF6900;}
</style>
<path class="st0" d="M1258,400c0-221-179-400-400-400S458,179,458,400s179,400,400,400S1258,621,1258,400z M143,257
	C64,257,0,321,0,400s64,144,143,144h188V257H143z"/>
<path class="st0" d="M2404.1,250.1v243c0,52.3-32.3,89.2-76.9,89.2h-21.5c-45.4,0-76.9-36.9-76.9-89.2v-243h-85.3v258.3
	c0,93,66.9,159.9,160.7,159.9h24.6c93.8,0,159.9-66.9,159.9-159.9V250.1H2404.1z"/>
<polygon class="st0" points="4491.6,662.2 4815.3,662.2 4815.3,576.8 4575.4,576.8 4575.4,131.7 4491.6,131.7 "/>
<g>
	<path class="st0" d="M5130.5,293.9c-25.4-30.8-58.4-49.2-96.1-49.2h-21.5c-93,0-158.4,71.5-158.4,173.8v76.1
		c0,101.5,65.4,173.8,158.4,173.8h21.5c37.7,0,70.7-17.7,96.1-48.4v41.5h81.5V250.1h-81.5V293.9z M5138.2,475.3
		c0,67.7-43.8,114.6-103.8,114.6h-21.5c-48.4,0-82.3-39.2-82.3-95.3v-76.1c0-56.9,33.8-96.9,82.3-96.9h21.5
		c60,0,103.8,46.1,103.8,111.5V475.3z"/>
	<path class="st0" d="M5491.9,243.1h-20.8c-37.7,0-70.7,17.7-96.1,48.4V131.7h-81.5v529.8h81.5v-43.8c25.4,30.8,58.4,49.2,96.1,49.2
		h20.8c93.8,0,159.9-72.3,159.9-173.8v-76.1C5651.8,314.7,5585.7,243.1,5491.9,243.1z M5574.9,493c0,56.9-33.8,96.9-83,96.9h-20.8
		c-60,0-103-46.1-103-113v-42.3c0-66.1,43.1-113,103-113h20.8c49.2,0,83,39.2,83,95.3V493z"/>
</g>
<path class="st0" d="M5957.1,365.4h80.7c-14.6-76.1-77.7-123-166.1-123c-101.5,0-163,44.6-163,117.6c0,56.9,44.6,100,117.6,113.8
	l65.4,13.8c45.4,10,72.3,30.8,72.3,57.7c0,33.1-32.3,52.3-85.3,52.3c-50,0-85.3-24.6-93.8-66.1H5701
	c10.8,84.6,77.7,136.9,174.5,136.9c106.1,0,169.9-50.7,169.9-133c0-60.7-53.8-106.9-141.5-123.8l-60-11.5
	c-33.8-8.5-54.6-25.4-54.6-46.1c0-25.4,30-41.5,76.9-41.5C5915.6,312.3,5949.4,332.3,5957.1,365.4z"/>
<polygon class="st0" points="3183.8,397.7 3342.1,230.8 3223,230.8 3083.8,380.8 3083.8,132.4 2999.2,132.4 2999.2,661.4 
	3083.8,661.4 3083.8,506.1 3124.6,463 3263.7,661.4 3368.3,661.4 "/>
<g>
	<path class="st0" d="M1852.8,131.7H1666v530.5h186.8c125.3,0,227.6-118.4,227.6-266C2080.4,251.6,1978.2,131.7,1852.8,131.7z
		 M1852.8,576.8h-102.3V217.8h102.3c79.2,0,142.2,80.7,142.2,178.4C1995.1,496.9,1932,576.8,1852.8,576.8z"/>
</g>
<g>
	<path class="st0" d="M3612.8,131.7h-186.1v530.5h186.1c126.9,0,227.6-118.4,227.6-266C3840.4,251.6,3739.7,131.7,3612.8,131.7z
		 M3612.8,576.8h-100.7V217.8h100.7c80,0,142.2,80.7,142.2,178.4C3755,496.9,3692.7,576.8,3612.8,576.8z"/>
	<path class="st0" d="M4212.5,373.1c19.2-25.4,32.3-57.7,32.3-92.3c0-81.5-68.4-149.2-149.2-149.2h-189.1v530.5h216.1
		c87.7,0,157.6-71.5,157.6-159.2C4280.2,449.2,4254,402.3,4212.5,373.1z M3991.1,217.8h104.6c35.4,0,63.8,27.7,63.8,63
		s-28.4,63.8-63.8,63.8h-104.6V217.8z M4122.5,576.8h-131.5V430h131.5c39.2,0,73,33.8,73,73C4195.6,544.5,4161.8,576.8,4122.5,576.8
		z"/>
</g>
<path class="st0" d="M2730.1,313.9h20.8c50.7,0,92.3,36.9,92.3,83h86.1c0-91.5-80.7-166.8-178.4-166.8h-20.8
	c-96.1,0-173.8,77.7-173.8,173v91.5c0,96.1,77.7,173.8,173.8,173.8h20.8c100.7,0,183-75.3,183-166.1h-86.1c0,43.8-43.8,80-96.9,80
	h-20.8c-49.2,0-90-39.2-90-87.7v-91.5C2640.2,353.9,2680.9,313.9,2730.1,313.9z"/>
</svg>
