<?xml version="1.0" encoding="utf-8"?>
<!-- Generator: Adobe Illustrator 25.4.1, SVG Export Plug-In . SVG Version: 6.00 Build 0)  -->
<svg version="1.1" id="Ebene_1" xmlns="http://www.w3.org/2000/svg" xmlns:xlink="http://www.w3.org/1999/xlink" x="0px" y="0px"
	 viewBox="0 0 7384 800" style="enable-background:new 0 0 7384 800;" xml:space="preserve">
<style type="text/css">
	.st0{fill:#FF6900;}
</style>
<path class="st0" d="M2626,205v316c0,68-42,116-100,116h-28c-59,0-100-48-100-116V205h-111v336c0,121,87,208,209,208h32
	c122,0,208-87,208-208V205H2626z M5912,523v-99c0-74,44-126,107-126h28c78,0,135,60,135,145v55c0,88-57,149-135,149h-28
	C5956,647,5912,596,5912,523z M5813,523c0,132,85,226,206,226h28c49,0,92-23,125-63v54h106V205h-106v57c-33-40-76-64-125-64h-28
	c-121,0-206,93-206,226V523z M5341,741h421V630h-312V51h-109V741z M6481,500v-55c0-86,56-147,134-147h27c64,0,108,51,108,124v99
	c0,74-44,126-108,126h-27C6537,647,6481,587,6481,500z M6384,740h106v-57c33,40,76,64,125,64h27c122,0,208-94,208-226v-99
	c0-133-86-226-208-226h-27c-49,0-92,23-125,63V51h-106V740z M7247,355h105c-19-99-101-160-216-160c-132,0-212,58-212,153
	c0,74,58,130,153,148l85,18c59,13,94,40,94,75c0,43-42,68-111,68c-65,0-111-32-122-86h-109c14,110,101,178,227,178
	c138,0,221-66,221-173c0-79-70-139-184-161l-78-15c-44-11-71-33-71-60c0-33,39-54,100-54C7193,286,7237,312,7247,355z M3640,397
	l206-217h-155l-181,195V52h-110v688h110V538l53-56l181,258h136L3640,397z M1909,630h-133V163h133c103,0,185,105,185,232
	C2094,526,2012,630,1909,630z M1909,51h-243v690h243c163,0,296-154,296-346C2205,207,2072,51,1909,51z M4198,630h-131V163h131
	c104,0,185,105,185,232C4383,526,4302,630,4198,630z M4198,51h-242v690h242c165,0,296-154,296-346C4494,207,4363,51,4198,51z
	 M4861,630h-171V439h171c51,0,95,44,95,95C4956,588,4912,630,4861,630z M4690,328V163h136c46,0,83,36,83,82s-37,83-83,83H4690z
	 M4978,365c25-33,42-75,42-120c0-106-89-194-194-194h-246v690h281c114,0,205-93,205-207C5066,464,5032,403,4978,365z M3050,288h27
	c66,0,120,48,120,108h112c0-119-105-217-232-217h-27c-125,0-226,101-226,225v119c0,125,101,226,226,226h27c131,0,238-98,238-216
	h-112c0,57-57,104-126,104h-27c-64,0-117-51-117-114V404C2933,340,2986,288,3050,288z M1258,400c0-221-179-400-400-400
	S458,179,458,400s179,400,400,400S1258,621,1258,400z M143,257C64,257,0,321,0,400s64,144,143,144h188V257H143z"/>
</svg>
