<?xml version="1.0" encoding="utf-8"?>
<!-- Generator: Adobe Illustrator 25.4.1, SVG Export Plug-In . SVG Version: 6.00 Build 0)  -->
<svg version="1.1" id="Ebene_1" xmlns="http://www.w3.org/2000/svg" xmlns:xlink="http://www.w3.org/1999/xlink" x="0px" y="0px"
	 viewBox="0 0 56 58" style="enable-background:new 0 0 56 58;" xml:space="preserve">
<style type="text/css">
	.st0{fill:#00C770;}
</style>
<path class="st0" d="M22.5,0c-1.7,0-3.4,0.7-4.6,2C16.7,3.2,16,5,16,6.7c0,1.1,0.4,2.1,1,2.9c0.5,0.5,0.8,1.2,0.8,1.9
	c0,0.3,0,0.6-0.2,0.8c-0.1,0.1-0.2,0.2-0.4,0.3c-0.6,0.1-1.2,0.1-1.8,0H3.6c-0.5,0-1,0.1-1.4,0.3S1.4,13.4,1,13.7
	c-0.3,0.4-0.6,0.8-0.8,1.2C0.1,15.5,0,16,0,16.5v11.6c-0.1,0.7,0,1.5,0.1,2.2c0.1,0.4,0.4,0.8,0.8,1.1c0.4,0.3,1,0.5,1.5,0.4
	c1,0,1.9-0.4,2.6-1C5.6,30.3,6.4,30,7.1,30s1.5,0.1,2.1,0.3c0.7,0.3,1.3,0.6,1.8,1.2c0.5,0.5,1,1.1,1.2,1.8c0.3,0.7,0.4,1.4,0.4,2.2
	s-0.1,1.5-0.4,2.2c-0.3,0.7-0.7,1.3-1.2,1.8s-1.2,0.9-1.8,1.2C8.5,41,7.8,41.1,7.1,41c-0.8,0-1.5-0.3-2.1-0.8c-0.7-0.6-1.7-1-2.6-1
	c-0.5,0-1.1,0.1-1.5,0.4c-0.4,0.3-0.6,0.7-0.8,1.1C0,41.2,0,42,0,42.7v11.6c0,1,0.4,1.9,1.1,2.6S2.7,58,3.6,58H16
	c0.7,0.1,1.4,0,2.1-0.1c0.5-0.1,0.9-0.4,1.2-0.8c0.3-0.5,0.4-1,0.4-1.6c-0.1-1-0.5-2-1.1-2.7c-0.5-0.6-0.8-1.4-0.8-2.2
	c0-0.7,0.1-1.5,0.3-2.2c0.2-0.7,0.6-1.3,1.1-1.9c0.5-0.5,1.1-1,1.8-1.3c0.7-0.3,1.4-0.5,2.1-0.5s1.4,0.2,2.1,0.5s1.3,0.7,1.8,1.3
	c0.5,0.5,0.9,1.2,1.1,1.9s0.3,1.5,0.3,2.2c0,0.8-0.3,1.6-0.8,2.2c-0.6,0.7-1,1.7-1,2.7c0,0.6,0.1,1.1,0.4,1.6
	c0.3,0.4,0.6,0.6,1.1,0.8c0.7,0.2,1.4,0.2,2.1,0.1h10.2c1,0,1.9-0.4,2.5-1.1c0.7-0.7,1.1-1.6,1.1-2.6V41.5c-0.1-0.6-0.1-1.2,0-1.7
	c0.1-0.1,0.2-0.2,0.3-0.3c0.2-0.1,0.5-0.2,0.8-0.2c0.7,0,1.4,0.3,1.9,0.8c0.8,0.6,1.8,1,2.8,1c1.7-0.1,3.2-0.9,4.4-2.1
	c1.1-1.3,1.8-2.9,1.8-4.6c0-1.7-0.6-3.4-1.8-4.6c-1.1-1.3-2.7-2-4.4-2.1c-1,0-2,0.4-2.8,1c-0.5,0.5-1.2,0.8-1.9,0.8
	c-0.3,0-0.6,0-0.8-0.2c-0.1-0.1-0.2-0.3-0.3-0.4c-0.1-0.6-0.1-1.1,0-1.7V16.5c0-1-0.4-1.9-1.1-2.6s-1.6-1.1-2.5-1.1H29.6
	c-0.6,0.1-1.2,0.1-1.7,0c-0.2,0-0.3-0.1-0.4-0.3s-0.2-0.5-0.2-0.8c0-0.7,0.3-1.4,0.8-1.9c0.6-0.8,1-1.9,1-2.9c0-0.9-0.1-1.8-0.5-2.6
	c-0.3-0.8-0.8-1.6-1.4-2.2S25.9,1,25.1,0.6C24.3,0.2,23.4,0,22.5,0z"/>
</svg>
