<svg width="92" height="42" viewBox="0 0 92 42" fill="none" xmlns="http://www.w3.org/2000/svg">
<path d="M70.974 2.69735e-05C67.0072 0.00639105 63.1234 1.13697 59.7726 3.26078C56.4217 5.38458 53.741 8.41468 52.041 12H9.99634L0 20.09L13.9949 30L19.9927 25L25.9905 30L31.9883 25L37.9861 30H52.041C53.6516 33.3968 56.1443 36.2987 59.2587 38.4029C62.3731 40.507 65.9951 41.7362 69.7465 41.9621C73.4979 42.1879 77.2411 41.4022 80.5853 39.6869C83.9295 37.9717 86.7521 35.3897 88.7584 32.2107C90.7647 29.0317 91.8811 25.3722 91.991 21.6143C92.1009 17.8563 91.2004 14.1378 89.3834 10.8469C87.5664 7.55592 84.8995 4.8133 81.6613 2.90533C78.4231 0.997355 74.7322 -0.00599782 70.974 2.69735e-05ZM77.9715 15C79.1577 15 80.3173 15.3519 81.3037 16.0112C82.29 16.6705 83.0588 17.6076 83.5127 18.7039C83.9667 19.8003 84.0855 21.0067 83.854 22.1706C83.6226 23.3345 83.0514 24.4035 82.2126 25.2427C81.3738 26.0818 80.305 26.6532 79.1416 26.8847C77.9781 27.1162 76.7722 26.9974 75.6762 26.5433C74.5803 26.0892 73.6435 25.3201 72.9845 24.3334C72.3254 23.3467 71.9737 22.1867 71.9737 21C71.9737 19.4087 72.6056 17.8826 73.7304 16.7574C74.8552 15.6322 76.3808 15 77.9715 15Z" fill="black"/>
</svg>
