<svg width="56" height="58" viewBox="0 0 56 58" fill="none" xmlns="http://www.w3.org/2000/svg">
<path d="M22.0242 0C20.2828 0 18.6128 0.71056 17.3814 1.97537C16.1501 3.24017 15.4583 4.95562 15.4583 6.74432C15.472 7.80353 15.8215 8.82929 16.4539 9.66605C16.9357 10.1966 17.2137 10.8887 17.2361 11.6139C17.2557 11.9031 17.1896 12.1917 17.0465 12.4417C16.9399 12.5687 16.8 12.6617 16.6435 12.7095C16.0614 12.7895 15.4715 12.7895 14.8894 12.7095H3.63026C3.15107 12.7094 2.67668 12.8075 2.23485 12.998C1.79302 13.1886 1.39264 13.4677 1.05713 13.8192C0.721617 14.1706 0.457726 14.5872 0.280901 15.0447C0.104075 15.5022 0.0178683 15.9913 0.027326 16.4834V28.0729C-0.0362908 28.7984 0.0117038 29.5297 0.169547 30.2399C0.301397 30.6792 0.567332 31.0634 0.92806 31.3355C1.37629 31.6418 1.90713 31.7952 2.44509 31.7738C3.40528 31.7417 4.32567 31.3722 5.05247 30.7268C5.65061 30.2145 6.40707 29.9383 7.18579 29.9477C7.9113 29.8978 8.63906 30.0016 9.32394 30.2524C10.0088 30.5033 10.6362 30.8961 11.1673 31.4063C11.6983 31.9164 12.1217 32.5332 12.4111 33.2184C12.7006 33.9036 12.8499 34.6425 12.8499 35.3894C12.8499 36.1363 12.7006 36.8752 12.4111 37.5604C12.1217 38.2456 11.6983 38.8624 11.1673 39.3726C10.6362 39.8828 10.0088 40.2755 9.32394 40.5264C8.63906 40.7773 7.9113 40.881 7.18579 40.8311C6.40218 40.845 5.64163 40.5586 5.05247 40.0277C4.31767 39.3994 3.40052 39.0397 2.44509 39.0051C1.91084 38.9873 1.38329 39.1312 0.92806 39.419C0.57197 39.6958 0.307203 40.0782 0.169547 40.5146C0.0115493 41.233 -0.0364339 41.9723 0.027326 42.7059V54.2711C0.027326 55.2526 0.40692 56.1939 1.0826 56.888C1.75828 57.582 2.6747 57.9719 3.63026 57.9719H14.8894C15.6036 58.0374 16.3234 57.9881 17.0228 57.8258C17.4855 57.6953 17.8988 57.4237 18.2079 57.0467C18.4881 56.5791 18.6282 56.0372 18.6109 55.4885C18.5492 54.4838 18.1563 53.5306 17.4968 52.7859C16.9839 52.1783 16.7056 51.3987 16.7146 50.5946C16.6661 49.8493 16.767 49.1018 17.0113 48.3983C17.2555 47.6948 17.6379 47.0504 18.1346 46.5049C18.6313 45.9594 19.2317 45.5245 19.8988 45.2272C20.5658 44.9299 21.2852 44.7765 22.0124 44.7765C22.7395 44.7765 23.4589 44.9299 24.1259 45.2272C24.793 45.5245 25.3934 45.9594 25.8901 46.5049C26.3868 47.0504 26.7692 47.6948 27.0134 48.3983C27.2577 49.1018 27.3586 49.8493 27.3101 50.5946C27.3152 51.3938 27.0467 52.1694 26.5516 52.7859C25.9233 53.5324 25.5635 54.4778 25.5323 55.4641C25.5115 56.0167 25.6608 56.562 25.959 57.0224C26.2263 57.3905 26.5994 57.663 27.0257 57.8015C27.717 57.9636 28.429 58.0129 29.1353 57.9476H40.3944C41.35 57.9476 42.2664 57.5577 42.9421 56.8636C43.6178 56.1696 43.9974 55.2283 43.9974 54.2467V42.6329C43.9192 42.0594 43.9192 41.4776 43.9974 40.9042C44.0628 40.7807 44.1616 40.6792 44.2818 40.612C44.5252 40.465 44.8061 40.3971 45.0877 40.4172C45.7951 40.4335 46.4712 40.7199 46.984 41.2207C47.7986 41.8703 48.7973 42.2293 49.8284 42.2433C51.4985 42.1401 53.0673 41.3859 54.2143 40.1347C55.3613 38.8835 56 37.2297 56 35.5112C56 33.7926 55.3613 32.1388 54.2143 30.8876C53.0673 29.6364 51.4985 28.8822 49.8284 28.779C48.7973 28.793 47.7986 29.152 46.984 29.8016C46.4652 30.2928 45.7928 30.5777 45.0877 30.6051C44.8061 30.6252 44.5252 30.5573 44.2818 30.4103C44.1444 30.303 44.0513 30.1466 44.0211 29.972C43.9426 29.4068 43.9426 28.833 44.0211 28.2677V16.4834C44.0148 15.5061 43.6325 14.571 42.9575 13.8822C42.2825 13.1934 41.3696 12.8069 40.4181 12.8069H29.1353C28.5611 12.8871 27.9791 12.8871 27.4049 12.8069C27.2393 12.7648 27.0903 12.6713 26.9782 12.5391C26.8351 12.2891 26.769 12.0005 26.7886 11.7113C26.811 10.9861 27.089 10.2939 27.5708 9.76344C28.2032 8.92668 28.5527 7.90092 28.5664 6.84171C28.5789 5.94992 28.4191 5.06443 28.0963 4.23649C27.7734 3.40855 27.2939 2.65462 26.6855 2.01832C26.077 1.38203 25.3518 0.876014 24.5516 0.529568C23.7515 0.183122 22.8925 0.00312673 22.0242 0Z" fill="black"/>
</svg>
