<?xml version="1.0" encoding="utf-8"?>
<!-- Generator: Adobe Illustrator 25.4.1, SVG Export Plug-In . SVG Version: 6.00 Build 0)  -->
<svg version="1.1" id="Ebene_1" xmlns="http://www.w3.org/2000/svg" xmlns:xlink="http://www.w3.org/1999/xlink" x="0px" y="0px"
	 viewBox="0 0 92 42" style="enable-background:new 0 0 92 42;" xml:space="preserve">
<style type="text/css">
	.st0{fill:#8C78FF;}
</style>
<path class="st0" d="M71,0c-4,0-7.9,1.1-11.2,3.3c-3.4,2.1-6,5.2-7.7,8.7H10L0,20.1L14,30l6-5l6,5l6-5l6,5H52
	c1.6,3.4,4.1,6.3,7.2,8.4c3.1,2.1,6.7,3.3,10.5,3.6c3.8,0.2,7.5-0.6,10.8-2.3c3.3-1.7,6.2-4.3,8.2-7.5s3.1-6.8,3.2-10.6
	c0.1-3.8-0.8-7.5-2.6-10.8c-1.8-3.3-4.5-6-7.7-7.9C78.4,1,74.7,0,71,0z M78,15c1.2,0,2.3,0.4,3.3,1c1,0.7,1.8,1.6,2.2,2.7
	c0.5,1.1,0.6,2.3,0.3,3.5c-0.2,1.2-0.8,2.2-1.6,3.1c-0.8,0.8-1.9,1.4-3.1,1.6c-1.2,0.2-2.4,0.1-3.5-0.3c-1.1-0.5-2-1.2-2.7-2.2
	c-0.7-1-1-2.1-1-3.3c0-1.6,0.6-3.1,1.8-4.2S76.4,15,78,15z"/>
</svg>
