<?xml version="1.0" encoding="utf-8"?>
<!-- Generator: Adobe Illustrator 25.4.1, SVG Export Plug-In . SVG Version: 6.00 Build 0)  -->
<svg version="1.1" id="Ebene_1" xmlns="http://www.w3.org/2000/svg" xmlns:xlink="http://www.w3.org/1999/xlink" x="0px" y="0px"
	 viewBox="0 0 71 59" style="enable-background:new 0 0 71 59;" xml:space="preserve">
<style type="text/css">
	.st0{fill:#FF6900;}
</style>
<g>
	<g>
		<g>
			<path class="st0" d="M46.4,45c2.6-1.9,4.7-4.5,6.2-7.4c1.4-2.9,2.2-6.2,2.2-9.4c0-11.4-8.8-20.6-19.7-20.6
				c-10.9,0-19.7,9.3-19.7,20.6c0,11.4,8.8,20.6,19.7,20.6C39.1,48.8,43.1,47.5,46.4,45z"/>
			<path class="st0" d="M63.9,20.8H61C57.9,8.9,47.5,0,35.1,0S12.2,8.9,9.1,20.8H7.1c-3.8,0-7,3.3-7.1,7.3c0,0,0,0.1,0,0.1
				c0,1.9,0.7,3.8,2,5.1c1.3,1.4,3.1,2.2,5,2.2H11c-0.6-2.4-1-4.9-1-7.4c0-2.5,0.3-5,1-7.4h-0.1c3.1-11,12.7-19,24.2-19
				c13.9,0,25.2,11.9,25.2,26.5c0,4.2-1,8.3-2.8,12.1c-1.9,3.8-4.6,7-7.9,9.5c-3.3,2.5-7.2,4.1-11.4,4.7c-0.2-0.7-0.6-1.3-1.2-1.7
				c-0.6-0.4-1.3-0.7-2-0.7c-0.9,0-1.8,0.4-2.4,1c-0.6,0.6-1,1.5-1,2.4s0.4,1.8,1,2.4c0.6,0.6,1.5,1,2.4,1c0.7,0,1.4-0.2,1.9-0.6
				c0.7-0.5,1.2-1.3,1.3-2.2c4.4-0.6,8.7-2.3,12.3-5c5.1-3.9,8.8-9.4,10.4-15.7h2.9c3.8,0,7-3.3,7.1-7.3c0,0,0-0.1,0-0.1
				c0-1.9-0.7-3.8-2-5.1C67.6,21.6,65.8,20.9,63.9,20.8z"/>
		</g>
	</g>
	<g>
		<g>
			<path class="st0" d="M46.4,45c2.6-1.9,4.7-4.5,6.2-7.4c1.4-2.9,2.2-6.2,2.2-9.4c0-11.4-8.8-20.6-19.7-20.6
				c-10.9,0-19.7,9.3-19.7,20.6c0,11.4,8.8,20.6,19.7,20.6C39.1,48.8,43.1,47.5,46.4,45z"/>
			<path class="st0" d="M63.9,20.8H61C57.9,8.9,47.5,0,35.1,0S12.2,8.9,9.1,20.8H7.1c-3.8,0-7,3.3-7.1,7.3c0,0,0,0.1,0,0.1
				c0,1.9,0.7,3.8,2,5.1c1.3,1.4,3.1,2.2,5,2.2H11c-0.6-2.4-1-4.9-1-7.4c0-2.5,0.3-5,1-7.4h-0.1c3.1-11,12.7-19,24.2-19
				c13.9,0,25.2,11.9,25.2,26.5c0,4.2-1,8.3-2.8,12.1c-1.9,3.8-4.6,7-7.9,9.5c-3.3,2.5-7.2,4.1-11.4,4.7c-0.2-0.7-0.6-1.3-1.2-1.7
				c-0.6-0.4-1.3-0.7-2-0.7c-0.9,0-1.8,0.4-2.4,1c-0.6,0.6-1,1.5-1,2.4s0.4,1.8,1,2.4c0.6,0.6,1.5,1,2.4,1c0.7,0,1.4-0.2,1.9-0.6
				c0.7-0.5,1.2-1.3,1.3-2.2c4.4-0.6,8.7-2.3,12.3-5c5.1-3.9,8.8-9.4,10.4-15.7h2.9c3.8,0,7-3.3,7.1-7.3c0,0,0-0.1,0-0.1
				c0-1.9-0.7-3.8-2-5.1C67.6,21.6,65.8,20.9,63.9,20.8z"/>
		</g>
	</g>
</g>
</svg>
