<svg width="71" height="59" viewBox="0 0 71 59" fill="none" xmlns="http://www.w3.org/2000/svg">
<g clip-path="url(#clip0)">
<path d="M46.3932 45.042C48.9885 43.099 51.0957 40.5613 52.5436 37.635C53.9916 34.7088 54.7393 31.4767 54.7261 28.2016C54.7261 16.8102 45.9118 7.55246 35.0612 7.55246C24.2105 7.55246 15.3962 16.8058 15.3962 28.2016C15.3962 39.593 24.2105 48.8464 35.0612 48.8464C39.1415 48.8404 43.1128 47.5072 46.3932 45.042Z" fill="black"/>
<path d="M63.9409 20.8439H61.0056C57.9085 8.86385 47.454 0.021637 35.0612 0.021637C22.6684 0.021637 12.2352 8.85086 9.12954 20.8179H7.07187C3.23772 20.8179 0.0596287 24.1202 0.00424646 28.141C0.00424646 28.1756 0.00424646 28.2102 0.00424646 28.2449C-0.0105224 30.1661 0.725158 32.015 2.05001 33.3861C3.37486 34.7572 5.18078 35.5387 7.07187 35.5593H10.9657C10.3316 33.1598 10.0108 30.686 10.0114 28.2016C10.0174 25.6993 10.3512 23.209 11.004 20.7963H10.9145C13.9691 9.79438 23.6439 1.75286 35.0825 1.75286C48.9664 1.75286 60.2601 13.6247 60.2601 28.2189C60.2702 32.4173 59.3093 36.5595 57.4549 40.3116C55.6006 44.0636 52.9045 47.3207 49.5841 49.8202C46.2452 52.3225 42.3359 53.9233 38.2222 54.4729C38.0181 53.7862 37.6034 53.1837 37.0386 52.7532C36.4739 52.3226 35.7885 52.0866 35.0825 52.0794C34.1786 52.0794 33.3117 52.4442 32.6726 53.0936C32.0334 53.7429 31.6744 54.6236 31.6744 55.5419C31.6744 56.4602 32.0334 57.3409 32.6726 57.9902C33.3117 58.6395 34.1786 59.0043 35.0825 59.0043C35.7685 59.0043 36.4363 58.7797 36.9868 58.3638C37.6864 57.8413 38.1633 57.0673 38.3202 56.1997C42.7625 55.6288 46.9867 53.9107 50.5895 51.2095C55.7191 47.3562 59.3927 41.8321 60.9971 35.5593H63.9409C67.775 35.5593 70.9403 32.257 70.9957 28.2362C70.9957 28.2016 70.9957 28.167 70.9957 28.1367C71.0049 26.2213 70.2684 24.38 68.947 23.0139C67.6255 21.6479 65.826 20.8679 63.9409 20.8439Z" fill="black"/>
</g>
<defs>
<clipPath id="clip0">
<rect width="71" height="59" fill="white"/>
</clipPath>
</defs>
</svg>
